<svg width="20" height="20" viewBox="0 0 20 20" fill="none" xmlns="http://www.w3.org/2000/svg">
<path d="M15.6243 8.09133V7.50416C15.6243 4.28021 13.1062 1.66669 10 1.66669C6.8938 1.66669 4.37573 4.28021 4.37573 7.50416V8.09133C4.37573 8.79598 4.17476 9.48488 3.79817 10.0712L2.8753 11.508C2.03235 12.8203 2.67587 14.6041 4.14197 15.0191C7.97728 16.1048 12.0227 16.1048 15.858 15.0191C17.3241 14.6041 17.9676 12.8203 17.1247 11.508L16.2018 10.0712C15.8252 9.48488 15.6243 8.79598 15.6243 8.09133Z" stroke="#3E4E50" stroke-width="1.5"/>
<path d="M6.25 15.8333C6.79586 17.2898 8.26871 18.3333 10 18.3333C11.7313 18.3333 13.2041 17.2898 13.75 15.8333" stroke="#3E4E50" stroke-width="1.5" stroke-linecap="round"/>
</svg>
