<svg width="10" height="10" viewBox="0 0 10 10" fill="none" xmlns="http://www.w3.org/2000/svg">
<g clip-path="url(#clip0_438_6887)">
<path d="M4.99939 0.52478C5.05358 0.52478 5.10753 0.535289 5.15759 0.55603C5.20767 0.576812 5.25308 0.607496 5.29138 0.645874L7.79138 3.14587C7.86881 3.22331 7.91248 3.32837 7.91248 3.43787C7.91236 3.54722 7.86872 3.65252 7.79138 3.72986C7.71399 3.80704 7.6087 3.84998 7.49939 3.84998C7.39003 3.84987 7.28474 3.80719 7.2074 3.72986L5.41248 1.93298V9.06287C5.41237 9.17208 5.36859 9.27663 5.29138 9.35388C5.21402 9.43124 5.10879 9.47498 4.99939 9.47498C4.89014 9.47487 4.78564 9.43114 4.70837 9.35388C4.63111 9.27662 4.58739 9.17212 4.58728 9.06287V1.93298L2.79138 3.72986C2.71399 3.80704 2.6087 3.84998 2.49939 3.84998C2.39003 3.84987 2.28474 3.80719 2.2074 3.72986C2.13006 3.65252 2.08739 3.54722 2.08728 3.43787C2.08728 3.38369 2.09781 3.32972 2.11853 3.27966C2.13921 3.22975 2.16925 3.18413 2.2074 3.14587L4.7074 0.645874C4.74572 0.607459 4.79205 0.576826 4.84216 0.55603C4.89205 0.535382 4.94539 0.524832 4.99939 0.52478Z" fill="black" stroke="black" stroke-width="0.2"/>
</g>
<defs>
<clipPath id="clip0_438_6887">
<rect width="10" height="10" fill="white"/>
</clipPath>
</defs>
</svg>
