<svg width="10" height="10" viewBox="0 0 10 10" fill="none" xmlns="http://www.w3.org/2000/svg">
<path d="M4.99939 9.47522C5.05358 9.47522 5.10753 9.46471 5.15759 9.44397C5.20767 9.42319 5.25308 9.3925 5.29138 9.35413L7.79138 6.85413C7.86881 6.77669 7.91248 6.67163 7.91248 6.56213C7.91236 6.45278 7.86872 6.34748 7.79138 6.27014C7.71399 6.19296 7.6087 6.15002 7.49939 6.15002C7.39003 6.15013 7.28474 6.19281 7.2074 6.27014L5.41248 8.06702V0.937134C5.41237 0.827922 5.36859 0.723371 5.29138 0.646118C5.21402 0.568759 5.10879 0.525024 4.99939 0.525024C4.89014 0.525129 4.78564 0.568859 4.70837 0.646118C4.63111 0.723378 4.58739 0.827883 4.58728 0.937134V8.06702L2.79138 6.27014C2.71399 6.19296 2.6087 6.15002 2.49939 6.15002C2.39003 6.15013 2.28474 6.19281 2.2074 6.27014C2.13006 6.34748 2.08739 6.45278 2.08728 6.56213C2.08728 6.61631 2.09781 6.67028 2.11853 6.72034C2.13921 6.77025 2.16925 6.81587 2.2074 6.85413L4.7074 9.35413C4.74572 9.39254 4.79205 9.42317 4.84216 9.44397C4.89205 9.46462 4.94539 9.47517 4.99939 9.47522Z" fill="#FF0000" stroke="#FF0000" stroke-width="0.2"/>
</svg>
