<svg width="16" height="16" viewBox="0 0 16 16" fill="none" xmlns="http://www.w3.org/2000/svg">
<path fill-rule="evenodd" clip-rule="evenodd" d="M4.84173 2.17363C4.92146 1.42029 5.55885 0.833328 6.33333 0.833328H9.66667C10.4411 0.833328 11.0785 1.42029 11.1583 2.17363C11.667 2.18399 12.1069 2.2103 12.4824 2.27929C12.9878 2.37211 13.4178 2.54894 13.7678 2.89889C14.169 3.30017 14.3416 3.80542 14.4223 4.40549C14.5 4.98347 14.5 5.71835 14.5 6.63008V10.7032C14.5 11.615 14.5 12.3498 14.4223 12.9278C14.3416 13.5279 14.169 14.0332 13.7678 14.4344C13.3665 14.8357 12.8612 15.0083 12.2612 15.089C11.6832 15.1667 10.9483 15.1667 10.0366 15.1667H5.96342C5.05169 15.1667 4.31681 15.1667 3.73883 15.089C3.13876 15.0083 2.63351 14.8357 2.23223 14.4344C1.83096 14.0332 1.65836 13.5279 1.57768 12.9278C1.49998 12.3499 1.49999 11.615 1.5 10.7032V6.63008C1.49999 5.71835 1.49998 4.98347 1.57768 4.40549C1.65836 3.80542 1.83096 3.30017 2.23223 2.89889C2.58219 2.54894 3.01224 2.37211 3.51757 2.27929C3.89315 2.2103 4.33301 2.18399 4.84173 2.17363ZM4.84331 3.17391C4.36452 3.18413 3.99557 3.20822 3.69823 3.26284C3.32036 3.33225 3.10164 3.4437 2.93934 3.606C2.75483 3.79051 2.63453 4.04956 2.56877 4.53874C2.50106 5.04231 2.5 5.70972 2.5 6.66666V10.6667C2.5 11.6236 2.50106 12.291 2.56877 12.7946C2.63453 13.2838 2.75483 13.5428 2.93934 13.7273C3.12385 13.9118 3.3829 14.0321 3.87208 14.0979C4.37565 14.1656 5.04306 14.1667 6 14.1667H10C10.9569 14.1667 11.6244 14.1656 12.1279 14.0979C12.6171 14.0321 12.8762 13.9118 13.0607 13.7273C13.2452 13.5428 13.3655 13.2838 13.4312 12.7946C13.4989 12.291 13.5 11.6236 13.5 10.6667V6.66666C13.5 5.70972 13.4989 5.04231 13.4312 4.53874C13.3655 4.04956 13.2452 3.79051 13.0607 3.606C12.8984 3.4437 12.6796 3.33225 12.3018 3.26284C12.0044 3.20822 11.6355 3.18413 11.1567 3.17391C11.0705 3.92041 10.4363 4.49999 9.66667 4.49999H6.33333C5.56373 4.49999 4.9295 3.92041 4.84331 3.17391ZM6.33333 1.83333C6.05719 1.83333 5.83333 2.05719 5.83333 2.33333V2.99999C5.83333 3.27614 6.05719 3.49999 6.33333 3.49999H9.66667C9.94281 3.49999 10.1667 3.27614 10.1667 2.99999V2.33333C10.1667 2.05719 9.94281 1.83333 9.66667 1.83333H6.33333ZM4.16667 6.99999C4.16667 6.72385 4.39052 6.49999 4.66667 6.49999H5C5.27614 6.49999 5.5 6.72385 5.5 6.99999C5.5 7.27614 5.27614 7.49999 5 7.49999H4.66667C4.39052 7.49999 4.16667 7.27614 4.16667 6.99999ZM6.5 6.99999C6.5 6.72385 6.72386 6.49999 7 6.49999H11.3333C11.6095 6.49999 11.8333 6.72385 11.8333 6.99999C11.8333 7.27614 11.6095 7.49999 11.3333 7.49999H7C6.72386 7.49999 6.5 7.27614 6.5 6.99999ZM4.16667 9.33333C4.16667 9.05719 4.39052 8.83333 4.66667 8.83333H5C5.27614 8.83333 5.5 9.05719 5.5 9.33333C5.5 9.60947 5.27614 9.83333 5 9.83333H4.66667C4.39052 9.83333 4.16667 9.60947 4.16667 9.33333ZM6.5 9.33333C6.5 9.05719 6.72386 8.83333 7 8.83333H11.3333C11.6095 8.83333 11.8333 9.05719 11.8333 9.33333C11.8333 9.60947 11.6095 9.83333 11.3333 9.83333H7C6.72386 9.83333 6.5 9.60947 6.5 9.33333ZM4.16667 11.6667C4.16667 11.3905 4.39052 11.1667 4.66667 11.1667H5C5.27614 11.1667 5.5 11.3905 5.5 11.6667C5.5 11.9428 5.27614 12.1667 5 12.1667H4.66667C4.39052 12.1667 4.16667 11.9428 4.16667 11.6667ZM6.5 11.6667C6.5 11.3905 6.72386 11.1667 7 11.1667H11.3333C11.6095 11.1667 11.8333 11.3905 11.8333 11.6667C11.8333 11.9428 11.6095 12.1667 11.3333 12.1667H7C6.72386 12.1667 6.5 11.9428 6.5 11.6667Z" fill="#3E4E50"/>
</svg>
