<svg width="16" height="16" viewBox="0 0 16 16" fill="none" xmlns="http://www.w3.org/2000/svg">
<path fill-rule="evenodd" clip-rule="evenodd" d="M7.95845 0.833328H8.04168C9.38416 0.833318 10.4437 0.833309 11.2154 0.935057C11.9739 1.03506 12.6554 1.25545 12.9791 1.8839C13.0257 1.97444 13.0651 2.06853 13.0968 2.1653C13.3176 2.83928 12.9908 3.47591 12.5253 4.07845C12.052 4.69122 11.3025 5.4334 10.3536 6.37304L8.71065 8L10.3536 9.62695C11.3025 10.5666 12.052 11.3088 12.5253 11.9215C12.9908 12.5241 13.3176 13.1607 13.0968 13.8347C13.0651 13.9315 13.0257 14.0255 12.9791 14.1161C12.6554 14.7445 11.9739 14.9649 11.2154 15.0649C10.4437 15.1667 9.38415 15.1667 8.04166 15.1667H7.95847C6.61597 15.1667 5.55646 15.1667 4.78475 15.0649C4.02625 14.9649 3.34473 14.7445 3.02105 14.1161C2.97442 14.0255 2.93506 13.9315 2.90336 13.8347C2.68251 13.1607 3.00933 12.5241 3.4748 11.9215C3.94817 11.3088 4.69766 10.5666 5.64654 9.62695L7.28948 8L5.64654 6.37304C4.69766 5.4334 3.94817 4.69122 3.4748 4.07845C3.00933 3.47591 2.68251 2.83928 2.90336 2.1653C2.93506 2.06854 2.97442 1.97444 3.02105 1.8839C3.34473 1.25545 4.02625 1.03506 4.78475 0.935057C5.55646 0.833309 6.61596 0.833318 7.95845 0.833328ZM8.00006 7.29632L9.62004 5.6921C10.6053 4.7164 11.3063 4.02069 11.734 3.46711C12.1745 2.89689 12.1984 2.63501 12.1465 2.47668C12.1313 2.43035 12.1124 2.38524 12.0901 2.34177C12.0123 2.19071 11.8042 2.02135 11.0847 1.92648C10.3863 1.8344 9.39319 1.83333 8.00006 1.83333C6.60693 1.83333 5.61385 1.8344 4.91547 1.92648C4.19593 2.02135 3.98787 2.19071 3.91007 2.34177C3.88769 2.38524 3.86882 2.43035 3.85364 2.47668C3.80176 2.63501 3.82567 2.89689 4.26617 3.46711C4.69382 4.02069 5.3948 4.7164 6.38009 5.6921L8.00006 7.29632ZM8.00006 8.70367L6.38009 10.3079C5.3948 11.2836 4.69382 11.9793 4.26617 12.5329C3.82567 13.1031 3.80176 13.365 3.85364 13.5233C3.86882 13.5696 3.88768 13.6147 3.91007 13.6582C3.98787 13.8093 4.19593 13.9786 4.91547 14.0735C5.61385 14.1656 6.60693 14.1667 8.00006 14.1667C9.39319 14.1667 10.3863 14.1656 11.0847 14.0735C11.8042 13.9786 12.0123 13.8093 12.0901 13.6582C12.1124 13.6147 12.1313 13.5696 12.1465 13.5233C12.1984 13.365 12.1745 13.1031 11.734 12.5329C11.3063 11.9793 10.6053 11.2836 9.62004 10.3079L8.00006 8.70367Z" fill="#3E4E50"/>
</svg>
