<svg width="16" height="16" viewBox="0 0 16 16" fill="none" xmlns="http://www.w3.org/2000/svg">
<path fill-rule="evenodd" clip-rule="evenodd" d="M5.99992 4.16667C4.9874 4.16667 4.16659 4.98748 4.16659 6.00001C4.16659 7.01253 4.9874 7.83334 5.99992 7.83334C7.01244 7.83334 7.83325 7.01253 7.83325 6.00001C7.83325 4.98748 7.01244 4.16667 5.99992 4.16667ZM5.16659 6.00001C5.16659 5.53977 5.53968 5.16667 5.99992 5.16667C6.46016 5.16667 6.83325 5.53977 6.83325 6.00001C6.83325 6.46024 6.46016 6.83334 5.99992 6.83334C5.53968 6.83334 5.16659 6.46024 5.16659 6.00001Z" fill="#3E4E50"/>
<path fill-rule="evenodd" clip-rule="evenodd" d="M5.99992 8.16667C5.20275 8.16667 4.45633 8.32717 3.89069 8.60998C3.35497 8.87785 2.83325 9.3404 2.83325 10L2.83317 10.0417C2.83214 10.3819 2.83042 10.9548 3.37341 11.3478C3.62537 11.5302 3.95785 11.6466 4.36971 11.7207C4.78539 11.7954 5.31806 11.8333 5.99992 11.8333C6.68178 11.8333 7.21445 11.7954 7.63012 11.7207C8.04199 11.6466 8.37446 11.5302 8.62643 11.3478C9.16942 10.9548 9.16769 10.3819 9.16667 10.0417L9.16658 10C9.16658 9.3404 8.64487 8.87785 8.10914 8.60998C7.54351 8.32717 6.79709 8.16667 5.99992 8.16667ZM3.83325 10C3.83325 9.92323 3.90849 9.71912 4.33791 9.50441C4.73742 9.30465 5.32433 9.16667 5.99992 9.16667C6.67551 9.16667 7.26242 9.30465 7.66193 9.50441C8.09135 9.71912 8.16659 9.92323 8.16659 10C8.16659 10.403 8.14093 10.4648 8.04007 10.5378C7.95871 10.5967 7.79118 10.6756 7.45305 10.7365C7.11872 10.7966 6.65139 10.8333 5.99992 10.8333C5.34844 10.8333 4.88112 10.7966 4.54679 10.7365C4.20866 10.6756 4.04113 10.5967 3.95977 10.5378C3.85891 10.4648 3.83325 10.403 3.83325 10Z" fill="#3E4E50"/>
<path d="M12.6666 8.50001C12.9427 8.50001 13.1666 8.27615 13.1666 8.00001C13.1666 7.72386 12.9427 7.50001 12.6666 7.50001H9.99992C9.72378 7.50001 9.49992 7.72386 9.49992 8.00001C9.49992 8.27615 9.72378 8.50001 9.99992 8.50001H12.6666Z" fill="#3E4E50"/>
<path d="M13.1666 6.00001C13.1666 6.27615 12.9427 6.50001 12.6666 6.50001H9.33325C9.05711 6.50001 8.83325 6.27615 8.83325 6.00001C8.83325 5.72386 9.05711 5.50001 9.33325 5.50001H12.6666C12.9427 5.50001 13.1666 5.72386 13.1666 6.00001Z" fill="#3E4E50"/>
<path d="M12.6666 10.5C12.9427 10.5 13.1666 10.2761 13.1666 10C13.1666 9.72386 12.9427 9.50001 12.6666 9.50001H10.6666C10.3904 9.50001 10.1666 9.72386 10.1666 10C10.1666 10.2761 10.3904 10.5 10.6666 10.5H12.6666Z" fill="#3E4E50"/>
<path fill-rule="evenodd" clip-rule="evenodd" d="M6.62897 2.16667H9.37086C10.596 2.16666 11.5665 2.16665 12.3259 2.26876C13.1075 2.37385 13.7402 2.59526 14.2391 3.09417C14.738 3.59308 14.9594 4.22571 15.0645 5.00732C15.1666 5.76679 15.1666 6.73721 15.1666 7.96237V8.03761C15.1666 9.26277 15.1666 10.2332 15.0645 10.9927C14.9594 11.7743 14.738 12.4069 14.2391 12.9058C13.7402 13.4048 13.1075 13.6262 12.3259 13.7312C11.5665 13.8334 10.5961 13.8333 9.37089 13.8333H6.62898C5.40382 13.8333 4.43337 13.8334 3.6739 13.7312C2.89229 13.6262 2.25966 13.4048 1.76075 12.9058C1.26184 12.4069 1.04043 11.7743 0.935342 10.9927C0.833234 10.2332 0.833242 9.2628 0.833252 8.03763V7.96239C0.833242 6.73723 0.833234 5.7668 0.935342 5.00732C1.04043 4.22571 1.26184 3.59308 1.76075 3.09417C2.25966 2.59526 2.89229 2.37385 3.6739 2.26876C4.43338 2.16665 5.40381 2.16666 6.62897 2.16667ZM3.80715 3.25985C3.13643 3.35002 2.74999 3.51913 2.46785 3.80127C2.18571 4.08341 2.0166 4.46985 1.92643 5.14057C1.83431 5.82568 1.83325 6.72879 1.83325 8.00001C1.83325 9.27122 1.83431 10.1743 1.92643 10.8594C2.0166 11.5302 2.18571 11.9166 2.46785 12.1987C2.74999 12.4809 3.13643 12.65 3.80715 12.7402C4.49226 12.8323 5.39537 12.8333 6.66658 12.8333H9.33325C10.6045 12.8333 11.5076 12.8323 12.1927 12.7402C12.8634 12.65 13.2498 12.4809 13.532 12.1987C13.8141 11.9166 13.9832 11.5302 14.0734 10.8594C14.1655 10.1743 14.1666 9.27122 14.1666 8.00001C14.1666 6.72879 14.1655 5.82568 14.0734 5.14057C13.9832 4.46985 13.8141 4.08341 13.532 3.80127C13.2498 3.51913 12.8634 3.35002 12.1927 3.25985C11.5076 3.16773 10.6045 3.16667 9.33325 3.16667H6.66659C5.39537 3.16667 4.49226 3.16773 3.80715 3.25985Z" fill="#3E4E50"/>
</svg>
