<svg width="22" height="22" viewBox="0 0 22 22" fill="none" xmlns="http://www.w3.org/2000/svg">
<path fill-rule="evenodd" clip-rule="evenodd" d="M3 7.26464C3 3.20264 6.52146 0 10.75 0C14.9785 0 18.5 3.20264 18.5 7.26464C18.5 11.0758 16.1371 15.55 12.3248 17.1792C11.324 17.6069 10.176 17.6069 9.17521 17.1792C5.36289 15.55 3 11.0758 3 7.26464ZM10.75 1.5C7.24655 1.5 4.5 4.13076 4.5 7.26464C4.5 10.593 6.60543 14.4498 9.76466 15.7999C10.389 16.0667 11.111 16.0667 11.7353 15.7999C14.8946 14.4498 17 10.593 17 7.26464C17 4.13076 14.2534 1.5 10.75 1.5ZM10.75 6.5C10.0596 6.5 9.5 7.05964 9.5 7.75C9.5 8.44036 10.0596 9 10.75 9C11.4404 9 12 8.44036 12 7.75C12 7.05964 11.4404 6.5 10.75 6.5ZM8 7.75C8 6.23122 9.23122 5 10.75 5C12.2688 5 13.5 6.23122 13.5 7.75C13.5 9.26878 12.2688 10.5 10.75 10.5C9.23122 10.5 8 9.26878 8 7.75ZM2.34541 13.7466C2.62344 14.0536 2.59992 14.5279 2.29288 14.8059C1.72519 15.32 1.5 15.8121 1.5 16.25C1.5 17.0137 2.22401 17.9548 3.98671 18.748C5.679 19.5096 8.06952 20 10.75 20C13.4305 20 15.821 19.5096 17.5133 18.748C19.276 17.9548 20 17.0137 20 16.25C20 15.8121 19.7748 15.32 19.2071 14.8059C18.9001 14.5279 18.8766 14.0536 19.1546 13.7466C19.4326 13.4395 19.9069 13.416 20.2139 13.6941C20.977 14.385 21.5 15.2511 21.5 16.25C21.5 17.9716 19.9854 19.2805 18.1288 20.1159C16.2018 20.9831 13.5924 21.5 10.75 21.5C7.90764 21.5 5.29815 20.9831 3.37116 20.1159C1.51457 19.2805 0 17.9716 0 16.25C0 15.2511 0.523048 14.385 1.28605 13.6941C1.59309 13.416 2.06738 13.4395 2.34541 13.7466Z" fill="#3E4E50"/>
</svg>
