<svg width="16" height="16" viewBox="0 0 16 16" fill="none" xmlns="http://www.w3.org/2000/svg">
<path fill-rule="evenodd" clip-rule="evenodd" d="M2.16675 6.76219C2.16675 3.49618 4.77009 0.833328 8.00008 0.833328C11.2301 0.833328 13.8334 3.49618 13.8334 6.76219C13.8334 8.33892 13.3841 10.0319 12.5897 11.4946C11.7963 12.9554 10.6372 14.2248 9.18709 14.9026C8.43379 15.2547 7.56637 15.2547 6.81307 14.9026C5.363 14.2248 4.20383 12.9554 3.41045 11.4946C2.6161 10.0319 2.16675 8.33892 2.16675 6.76219ZM8.00008 1.83333C5.33904 1.83333 3.16675 4.03165 3.16675 6.76219C3.16675 8.16024 3.5685 9.69027 4.28922 11.0173C5.01091 12.3462 6.03076 13.4331 7.23651 13.9967C7.72145 14.2233 8.27871 14.2233 8.76365 13.9967C9.9694 13.4331 10.9893 12.3462 11.7109 11.0173C12.4317 9.69027 12.8334 8.16024 12.8334 6.76219C12.8334 4.03165 10.6611 1.83333 8.00008 1.83333ZM8.00008 5.16666C7.17165 5.16666 6.50008 5.83823 6.50008 6.66666C6.50008 7.49509 7.17165 8.16666 8.00008 8.16666C8.82851 8.16666 9.50008 7.49509 9.50008 6.66666C9.50008 5.83823 8.82851 5.16666 8.00008 5.16666ZM5.50008 6.66666C5.50008 5.28595 6.61937 4.16666 8.00008 4.16666C9.38079 4.16666 10.5001 5.28595 10.5001 6.66666C10.5001 8.04737 9.38079 9.16666 8.00008 9.16666C6.61937 9.16666 5.50008 8.04737 5.50008 6.66666Z" fill="#3E4E50"/>
</svg>
