<svg width="15" height="15" viewBox="0 0 15 15" fill="none" xmlns="http://www.w3.org/2000/svg">
<path fill-rule="evenodd" clip-rule="evenodd" d="M6.14043 6.93074e-08H8.1929C9.26183 -4.18249e-06 10.0998 -7.48038e-06 10.7693 0.063645C11.4516 0.128525 12.0104 0.263046 12.5029 0.56488C13.0187 0.88096 13.4524 1.31463 13.7685 1.83042C14.0703 2.32297 14.2048 2.8817 14.2697 3.56407C14.3333 4.23353 14.3333 5.0715 14.3333 6.14042V6.8519C14.3333 7.61276 14.3333 8.20931 14.3005 8.69122C14.267 9.18153 14.1978 9.58959 14.0415 9.96695C13.6525 10.9062 12.9062 11.6525 11.967 12.0415C11.4303 12.2638 10.8191 12.3131 9.9822 12.3276C9.68947 12.3326 9.50406 12.3363 9.36272 12.352C9.23065 12.3666 9.17945 12.388 9.14949 12.4054C9.11789 12.4238 9.07483 12.4573 9.00007 12.5599C8.91916 12.6709 8.82774 12.8243 8.68278 13.0692L8.32138 13.6798C7.80566 14.5511 6.52764 14.5511 6.01193 13.6798L5.65053 13.0692C5.50556 12.8243 5.41414 12.6709 5.33324 12.5599C5.25848 12.4573 5.21542 12.4238 5.18381 12.4054C5.15385 12.388 5.10266 12.3666 4.97059 12.352C4.82925 12.3363 4.64384 12.3326 4.3511 12.3276C3.51425 12.3131 2.90303 12.2638 2.36638 12.0415C1.42711 11.6525 0.680855 10.9062 0.291795 9.96695C0.135486 9.58959 0.0663306 9.18154 0.0328768 8.69122C-3.74516e-06 8.20931 -2.03672e-06 7.61275 1.4878e-07 6.85189L6.93074e-08 6.14043C-4.18249e-06 5.07151 -7.48038e-06 4.23353 0.063645 3.56407C0.128525 2.8817 0.263046 2.32297 0.56488 1.83042C0.88096 1.31463 1.31463 0.88096 1.83042 0.56488C2.32297 0.263046 2.8817 0.128525 3.56407 0.063645C4.23353 -7.48038e-06 5.07151 -4.18249e-06 6.14043 6.93074e-08ZM3.65872 1.05916C3.04956 1.11708 2.66194 1.22815 2.35292 1.41752C1.97168 1.65114 1.65114 1.97168 1.41752 2.35292C1.22815 2.66194 1.11708 3.04956 1.05916 3.65872C1.00053 4.27533 1 5.06584 1 6.16667V6.83333C1 7.61674 1.00027 8.17926 1.03056 8.62315C1.06054 9.06255 1.11825 9.34906 1.21567 9.58427C1.50324 10.2785 2.05482 10.8301 2.74906 11.1177C3.09282 11.26 3.53137 11.3133 4.36833 11.3277L4.38955 11.3281C4.65488 11.3326 4.88739 11.3366 5.08065 11.358C5.28831 11.381 5.4914 11.4275 5.68657 11.541C5.8801 11.6536 6.01969 11.8039 6.14137 11.9709C6.25381 12.1252 6.36937 12.3204 6.50024 12.5416L6.87248 13.1704C7.00098 13.3876 7.33232 13.3876 7.46083 13.1704L7.83306 12.5416C7.96394 12.3204 8.07949 12.1252 8.19193 11.9709C8.31362 11.8039 8.4532 11.6536 8.64673 11.541C8.8419 11.4275 9.045 11.381 9.25266 11.358C9.44591 11.3366 9.67843 11.3326 9.94376 11.3281L9.96497 11.3277C10.8019 11.3133 11.2405 11.26 11.5843 11.1177C12.2785 10.8301 12.8301 10.2785 13.1177 9.58427C13.2151 9.34906 13.2728 9.06255 13.3028 8.62315C13.3331 8.17926 13.3333 7.61674 13.3333 6.83333V6.16667C13.3333 5.06584 13.3328 4.27533 13.2742 3.65872C13.2163 3.04956 13.1052 2.66194 12.9158 2.35292C12.6822 1.97168 12.3617 1.65114 11.9804 1.41752C11.6714 1.22815 11.2838 1.11708 10.6746 1.05916C10.058 1.00053 9.26749 1 8.16667 1H6.16667C5.06584 1 4.27533 1.00053 3.65872 1.05916ZM4 5.16667C4 4.89052 4.22386 4.66667 4.5 4.66667H9.83333C10.1095 4.66667 10.3333 4.89052 10.3333 5.16667C10.3333 5.44281 10.1095 5.66667 9.83333 5.66667H4.5C4.22386 5.66667 4 5.44281 4 5.16667ZM4 7.5C4 7.22386 4.22386 7 4.5 7H8.16667C8.44281 7 8.66667 7.22386 8.66667 7.5C8.66667 7.77614 8.44281 8 8.16667 8H4.5C4.22386 8 4 7.77614 4 7.5Z" fill="#3E4E50"/>
</svg>
