<svg width="1440" height="900" viewBox="0 0 1440 900" fill="none" xmlns="http://www.w3.org/2000/svg">
<rect width="1440" height="900" fill="white"/>
<path d="M721.276 700C864.585 700 980.76 639.507 980.76 564.885C980.76 490.263 864.585 429.77 721.276 429.77C577.967 429.77 461.792 490.263 461.792 564.885C461.792 639.507 577.967 700 721.276 700Z" fill="#F5F5F5"/>
<path d="M887.514 582.537C925.738 582.537 956.725 564.646 956.725 542.576C956.725 520.506 925.738 502.615 887.514 502.615C849.291 502.615 818.304 520.506 818.304 542.576C818.304 564.646 849.291 582.537 887.514 582.537Z" fill="#E6E6E6"/>
<path d="M608.788 518.859C635.266 534.148 636.345 559.387 609.856 574.677C583.367 589.966 539.373 589.511 512.884 574.222C486.395 558.933 486.407 534.148 512.884 518.859C539.362 503.569 582.288 503.569 608.788 518.859Z" fill="#E6E6E6"/>
<path d="M824.767 601.245L737.849 551.061C736.324 550.288 734.639 549.885 732.93 549.885C731.221 549.885 729.536 550.288 728.012 551.061L641.093 601.245C638.378 602.813 638.378 605.357 641.093 606.925L680.679 629.779L643.706 651.123C636.197 655.45 623.975 655.45 616.444 651.123L558.286 617.545C555.083 615.694 553.311 613.365 553.311 611.003C553.311 608.64 555.083 606.3 558.286 604.448L609.822 574.688C610.093 574.546 610.333 574.35 610.527 574.113C610.721 573.876 610.865 573.602 610.951 573.308C611.036 573.014 611.061 572.705 611.024 572.401C610.987 572.097 610.889 571.803 610.736 571.538C610.582 571.273 610.377 571.041 610.132 570.858C609.887 570.674 609.607 570.541 609.309 570.468C609.012 570.396 608.702 570.384 608.4 570.433C608.098 570.483 607.809 570.593 607.55 570.758L556.037 600.496C551.368 603.199 548.79 606.925 548.79 610.991C548.79 615.058 551.368 618.772 556.037 621.476L614.195 655.053C619.113 657.587 624.565 658.91 630.097 658.91C635.63 658.91 641.082 657.587 646 655.053L685.245 632.403L728.057 657.109C729.581 657.882 731.266 658.285 732.976 658.285C734.685 658.285 736.37 657.882 737.894 657.109L824.813 606.925C827.482 605.357 827.482 602.813 824.767 601.245Z" fill="#E6E6E6"/>
<path d="M924.09 523.811C924.09 523.811 927.248 477.035 926.362 459.792C925.624 446.161 923.772 440.482 923.386 437.403C923.386 437.403 920.035 405.598 919.763 378.462C919.626 365.421 918.422 356.153 911.278 340.659L865.353 351.643C864.422 358.527 861.264 404.303 860.514 445.002C859.867 480.636 860.878 511.827 860.878 511.827V513.702C860.878 515.792 860.423 517.245 859.083 520.585C857.408 524.888 855.002 528.869 851.972 532.353C851.03 533.375 844.475 539.1 843.612 540.304C840.795 543.587 846.634 545.438 850.961 544.848C855.505 544.234 862.616 542.497 864.592 539.725C865.933 537.862 866.943 531.376 868.318 529.502C872.964 523.164 874.872 520.415 874.906 518.415C874.974 514.758 873.713 513.315 873.259 511.248C873.634 506.932 882.96 471.435 883.119 458.86C883.198 452.874 882.789 444.628 882.789 444.628L890.014 403.145C892.808 413.504 897.715 439.221 899.373 449.092C901.384 461.155 906.643 492.119 909.755 510.589C910.948 517.711 911.505 521.312 912.027 524.617L912.152 526.026C912.254 527.821 913.561 547.017 914.265 551.016C915.742 559.41 923.204 558.354 924.397 551.561C925.419 545.791 924.147 527.889 924.113 525.697L924.09 523.811Z" fill="#FFA8A7"/>
<path d="M924.09 523.811C926.203 523.811 924.817 532.001 925.363 537.237C925.942 542.86 927.782 546.972 928.316 551.572C929.032 555.593 928.414 559.738 926.555 563.374C925.09 566.782 917.707 571.326 914.901 566.543C912.095 561.761 911.493 556.229 911.823 550.982C912.152 545.734 911.823 542.213 911.925 538.089C912.027 534.454 909.358 525.174 912.095 524.652L912.22 526.06C913.209 528.025 923.182 528.411 924.181 525.753L924.09 523.811Z" fill="#37474F"/>
<path d="M875.383 522.88C876.031 525.503 875.383 532.705 875.383 532.705C875.383 532.705 874.247 535.193 870.192 536.84L868.375 526.821L875.383 522.88Z" fill="#263238"/>
<path d="M870.169 536.84L861.241 533.909L859.083 525.981L869.124 531.058L870.169 536.84Z" fill="black"/>
<path d="M860.878 513.702V511.827C859.662 512.418 856.993 522.198 853.381 528.866C850.087 534.988 843.555 538.396 841.431 541.065C838.591 544.621 844.112 549.221 852.961 547.324C857.356 546.381 864.013 543.576 865.819 540.611C867.625 537.646 868.227 532.194 869.704 530.013C871.18 527.832 874.69 525.322 875.383 522.845C875.96 520.61 875.96 518.265 875.383 516.03C874.69 513.758 874.077 511.044 873.304 511.293V513.009C872.714 514.213 870.567 515.621 866.103 515.871C863.922 515.973 861.855 515.644 860.878 513.702Z" fill="#37474F"/>
<path d="M864.422 351.052C864.422 351.052 861.389 384.754 860.412 414.594C859.435 444.434 860.31 482.941 860.31 482.941C860.31 482.941 863.388 485.145 870.169 485.452C876.951 485.758 879.257 483.498 879.257 483.498C879.257 483.498 883.403 469.969 884.05 460.451C884.461 455.298 884.461 450.121 884.05 444.968L890.104 405.144C890.104 405.144 897.783 444.355 898.658 449.092C899.532 453.828 906.882 495.732 906.882 495.732C906.882 495.732 909.767 498.39 917.173 498.253C923.727 498.128 925.624 495.777 925.624 495.777C925.624 495.777 927.203 470.083 926.839 459.11C926.533 449.432 924.318 441.731 923.875 435.45C923.432 429.168 923.182 393.421 922.739 379.791C922.296 366.16 921.16 354.46 909.494 338.058L864.422 351.052Z" fill="#455A64"/>
<path d="M890.15 405.178L885.106 380.188C885.106 380.188 876.326 377.916 872.225 372.532C872.225 372.532 873.361 378.484 882.448 382.29L887.81 407.143L885.947 432.837L890.15 405.178Z" fill="#37474F"/>
<path d="M800.255 344.839C803.49 345.333 806.794 345.088 809.921 344.123C808.548 343.437 807.262 342.586 806.093 341.59C805.557 341.159 805.21 340.536 805.125 339.854C805.04 339.171 805.224 338.482 805.639 337.933C806.059 337.478 807.104 338.535 809.467 339.205C812.489 340.057 814.681 340.239 817.589 341.92C818.686 342.558 819.975 342.784 821.224 342.556C828.312 341.227 844.839 333.469 852.415 329.425C853.96 323.121 856.641 313.852 859.946 302.288C863.002 291.634 867.898 286.976 875.713 287.147L874.588 310.285C874.588 310.285 870.862 326.267 866.251 339.319C865.444 341.59 862.207 344.237 856.277 346.441C848.599 349.292 839.33 351.984 828.005 355.085C823.416 356.392 818.728 357.323 813.988 357.868C802.016 358.89 797.427 355.596 795.814 353.233C791.225 346.713 793.939 343.578 800.255 344.839Z" fill="#FFA8A7"/>
<path d="M895.852 286.976L906.779 287.817C905.838 292.258 906.105 296.87 907.551 301.173C908.998 305.476 911.571 309.313 915.003 312.284L910.13 331.913C910.289 334.343 914.31 342.522 918.206 351.314C910.88 361.128 874.94 364.479 863.218 355.857C865.024 346.611 866.375 339.591 866.739 336.081L866.148 323.393C851.45 311.341 869.181 292.974 875.712 287.135L883.914 286.772L895.852 286.976Z" fill="#026571"/>
<path d="M941.867 384.766C941.074 384.147 940.446 383.343 940.038 382.423C939.63 381.504 939.454 380.498 939.527 379.495C939.72 377.667 940.141 375.372 940.902 374.486C941.663 373.6 946.433 367.114 948.546 370.885C950.818 374.997 950.352 376.667 950.352 376.667L941.867 384.766Z" fill="#F28F8F"/>
<path d="M927.146 471.458C922.018 471.287 917.025 469.775 912.663 467.073L855.948 434.314C847.19 429.259 840.045 416.912 840.045 406.791V359.208C840.04 357.616 839.616 356.053 838.816 354.676C838.016 353.299 836.868 352.156 835.488 351.362C834.107 350.569 832.543 350.152 830.95 350.153C829.358 350.154 827.794 350.574 826.415 351.37L806.559 362.866C806.301 363.03 806.011 363.14 805.709 363.19C805.407 363.24 805.097 363.228 804.8 363.155C804.502 363.082 804.222 362.95 803.977 362.766C803.732 362.582 803.527 362.351 803.373 362.085C803.22 361.82 803.122 361.527 803.085 361.222C803.048 360.918 803.073 360.61 803.159 360.316C803.244 360.021 803.388 359.747 803.582 359.51C803.776 359.273 804.016 359.078 804.287 358.936L824.2 347.429C826.27 346.234 828.618 345.604 831.009 345.603C833.399 345.602 835.748 346.229 837.819 347.423C839.891 348.616 841.612 350.333 842.81 352.402C844.008 354.47 844.641 356.818 844.646 359.208V406.791C844.646 415.31 850.893 426.101 858.277 430.383L914.992 463.12C922.25 467.311 928.986 468.038 933.939 465.187C938.891 462.336 941.629 456.1 941.629 447.751V387.004C941.629 376.712 948.205 364.854 956.6 360.003L970.446 352.052C970.705 351.888 970.994 351.777 971.296 351.728C971.599 351.678 971.908 351.69 972.206 351.763C972.503 351.836 972.783 351.968 973.028 352.152C973.273 352.336 973.479 352.567 973.632 352.832C973.785 353.098 973.883 353.391 973.92 353.695C973.957 353.999 973.932 354.308 973.847 354.602C973.762 354.896 973.618 355.17 973.424 355.408C973.23 355.645 972.99 355.84 972.718 355.982L958.872 363.933C951.988 367.909 946.172 378.462 946.172 386.992V447.74C946.172 457.804 942.628 465.392 936.21 469.106C933.453 470.684 930.323 471.496 927.146 471.458Z" fill="#37474F"/>
<path d="M829.152 366.148V369.863C829.152 375.804 824.983 383.039 819.826 386.004L785.432 405.871L750.457 385.675V355.392L784.375 339.693C789.771 337.206 798.313 337.592 803.47 340.557L819.804 349.996C824.949 352.972 829.152 360.208 829.152 366.148Z" fill="#37474F"/>
<path d="M784.375 339.693C789.771 337.206 798.313 337.592 803.47 340.557L819.804 349.996C824.949 352.961 824.745 357.391 819.349 359.89L785.397 375.565L750.412 355.38L784.375 339.693Z" fill="#455A64"/>
<path opacity="0.15" d="M788.703 368.295C790.058 369.179 791.186 370.37 791.995 371.772C792.804 373.173 793.272 374.745 793.36 376.36V401.27L785.409 405.814L750.435 385.618V355.392L759.295 351.302L788.703 368.295Z" fill="black"/>
<path d="M747.447 350.178C747.971 349.934 748.551 349.835 749.126 349.891C749.701 349.947 750.251 350.156 750.718 350.496L785.113 370.363C786.471 371.247 787.6 372.44 788.409 373.843C789.218 375.246 789.685 376.821 789.771 378.439V408.063C789.833 408.639 789.739 409.221 789.499 409.749C789.259 410.276 788.882 410.73 788.408 411.062C787.612 411.505 784.807 413.129 784.023 413.595C783.497 413.838 782.915 413.937 782.338 413.882C781.761 413.826 781.21 413.617 780.74 413.277L746.334 393.41C744.979 392.526 743.851 391.335 743.042 389.934C742.233 388.533 741.765 386.961 741.677 385.345V355.721C741.616 355.144 741.709 354.562 741.947 354.034C742.184 353.505 742.557 353.049 743.028 352.711L747.447 350.178Z" fill="#37474F"/>
<path d="M780.74 372.884L746.334 353.029C743.767 351.541 741.677 352.745 741.677 355.721V385.345C741.765 386.961 742.233 388.533 743.042 389.934C743.851 391.335 744.979 392.526 746.334 393.41L780.74 413.277C783.307 414.765 785.397 413.561 785.397 410.585V380.961C785.309 379.344 784.841 377.77 784.032 376.367C783.223 374.964 782.095 373.771 780.74 372.884Z" fill="#455A64"/>
<path d="M739.996 407.37V412.493C739.996 414.572 740.711 416.014 741.893 416.696L744.982 418.479C745.723 418.84 746.547 418.992 747.367 418.92C748.188 418.848 748.973 418.554 749.639 418.07L778.037 401.645V381.426L774.947 379.643L746.493 396.068C744.598 397.309 743.022 398.979 741.894 400.943C740.765 402.906 740.115 405.108 739.996 407.37ZM752.865 401.032C752.974 401.401 753.035 401.783 753.047 402.168C752.966 403.686 752.528 405.163 751.768 406.48C751.008 407.796 749.948 408.915 748.674 409.744C748.32 409.951 747.937 410.105 747.538 410.199C747.439 409.828 747.385 409.446 747.379 409.063C747.461 407.545 747.9 406.068 748.66 404.751C749.419 403.435 750.479 402.316 751.752 401.486C752.105 401.294 752.479 401.141 752.865 401.032Z" fill="#026571"/>
<path opacity="0.2" d="M744.823 418.366C744.883 418.418 744.947 418.463 745.016 418.502L744.903 418.434L741.915 416.696C740.723 416.037 740.018 414.595 740.018 412.504V407.382C740.093 405.105 740.754 402.887 741.938 400.941L745.028 402.724C743.855 404.674 743.198 406.891 743.119 409.165V414.288C743.036 415.614 743.463 416.923 744.312 417.945C744.465 418.105 744.637 418.246 744.823 418.366Z" fill="black"/>
<path opacity="0.5" d="M778.037 381.426L749.639 397.851C747.713 399.052 746.125 400.726 745.028 402.713L741.938 400.93C743.035 398.946 744.618 397.273 746.538 396.068L774.993 379.643L778.037 381.426Z" fill="white"/>
<path opacity="0.2" d="M753.047 402.168C753.046 401.758 752.992 401.349 752.888 400.952C754.762 400.441 756.137 401.611 756.137 403.951C756.055 405.468 755.618 406.944 754.86 408.26C754.102 409.576 753.045 410.696 751.775 411.528C749.753 412.663 748.026 412.084 747.549 410.199C747.95 410.111 748.334 409.957 748.685 409.744C749.955 408.912 751.012 407.792 751.769 406.476C752.527 405.16 752.965 403.684 753.047 402.168Z" fill="black"/>
<path d="M713.768 392.217V397.352C713.768 399.419 714.483 400.873 715.665 401.543L718.754 403.338C719.494 403.69 720.315 403.836 721.131 403.76C721.947 403.684 722.727 403.389 723.389 402.906L751.786 386.47V366.285L748.697 364.49L720.299 380.915C718.4 382.154 716.819 383.823 715.684 385.787C714.55 387.75 713.893 389.953 713.768 392.217ZM726.637 385.845C726.741 386.242 726.794 386.65 726.796 387.06C726.715 388.578 726.276 390.055 725.516 391.372C724.756 392.688 723.697 393.807 722.423 394.637C722.064 394.832 721.683 394.985 721.287 395.091C721.179 394.703 721.126 394.301 721.128 393.898C721.21 392.382 721.647 390.906 722.405 389.59C723.163 388.273 724.22 387.154 725.49 386.322C725.848 386.11 726.235 385.949 726.637 385.845Z" fill="#026571"/>
<path opacity="0.2" d="M718.891 403.417H718.834H718.754L715.665 401.611C714.472 400.941 713.768 399.498 713.768 397.408V392.286C713.78 391.191 713.952 390.104 714.279 389.06C714.621 387.942 715.09 386.867 715.676 385.856L718.766 387.628C718.473 388.134 718.211 388.658 717.982 389.196C717.277 390.722 716.89 392.377 716.846 394.058V399.18C716.749 400.499 717.155 401.806 717.982 402.838C718.25 403.081 718.557 403.277 718.891 403.417Z" fill="black"/>
<path opacity="0.5" d="M751.82 366.285L723.423 382.71C721.494 383.907 719.905 385.582 718.811 387.571L715.721 385.799C716.799 383.814 718.362 382.133 720.265 380.915L748.663 364.49L751.82 366.285Z" fill="white"/>
<path opacity="0.2" d="M726.785 387.049C726.787 386.643 726.738 386.238 726.638 385.845C728.5 385.322 729.886 386.504 729.886 388.844C729.805 390.36 729.367 391.836 728.61 393.153C727.852 394.469 726.795 395.588 725.524 396.42C723.491 397.556 721.776 396.977 721.299 395.08C721.701 394.995 722.085 394.842 722.435 394.625C723.704 393.793 724.76 392.674 725.516 391.357C726.272 390.041 726.707 388.565 726.785 387.049Z" fill="black"/>
<path d="M722.378 373.259C721.999 373.26 721.631 373.134 721.333 372.902C721.034 372.669 720.822 372.343 720.731 371.976L716.187 354.165C716.074 353.726 716.14 353.261 716.37 352.871C716.6 352.482 716.976 352.199 717.414 352.086C717.852 351.973 718.318 352.039 718.707 352.269C719.097 352.499 719.38 352.875 719.493 353.313L724.036 371.135C724.094 371.351 724.108 371.577 724.077 371.799C724.047 372.021 723.972 372.234 723.858 372.427C723.743 372.619 723.592 372.787 723.412 372.92C723.232 373.054 723.027 373.15 722.809 373.202C722.668 373.239 722.523 373.258 722.378 373.259Z" fill="#E0E0E0"/>
<path d="M709.588 380.688C709.205 380.689 708.832 380.561 708.531 380.325L691.618 366.955C691.431 366.82 691.274 366.649 691.155 366.452C691.036 366.255 690.959 366.036 690.927 365.808C690.895 365.58 690.91 365.348 690.97 365.126C691.031 364.904 691.136 364.696 691.278 364.516C691.421 364.335 691.599 364.186 691.801 364.076C692.004 363.966 692.226 363.898 692.455 363.877C692.684 363.855 692.916 363.88 693.135 363.951C693.354 364.021 693.557 364.135 693.73 364.286L710.644 377.644C710.997 377.925 711.226 378.335 711.279 378.784C711.332 379.233 711.206 379.684 710.928 380.041C710.769 380.244 710.566 380.408 710.333 380.521C710.101 380.633 709.846 380.69 709.588 380.688Z" fill="#E0E0E0"/>
<path d="M686.279 397C685.827 397.016 685.387 396.852 685.056 396.545C684.725 396.237 684.529 395.81 684.513 395.358C684.496 394.906 684.66 394.466 684.968 394.135C685.275 393.804 685.702 393.608 686.154 393.592L705.93 392.058C706.153 392.04 706.378 392.066 706.591 392.135C706.804 392.204 707.002 392.314 707.172 392.46C707.342 392.606 707.482 392.784 707.582 392.984C707.683 393.184 707.743 393.402 707.759 393.626C707.79 394.076 707.643 394.52 707.35 394.862C707.057 395.204 706.64 395.417 706.191 395.455L686.415 396.988L686.279 397Z" fill="#E0E0E0"/>
<path d="M957.327 366.228C956.941 362.031 956.319 357.86 955.464 353.733C952.88 344.052 949.435 334.62 945.173 325.552C943.276 321.928 938.993 316.646 935.961 312.182C931.667 305.878 928.645 302.345 925.385 298.063C918.206 288.669 915.162 288.124 906.779 287.84C905.643 290.827 903.054 303.072 911.448 312.966L929.44 331.935C930.463 333.582 941.458 352.381 943.287 359.322C943.603 360.556 943.45 361.864 942.855 362.991C941.418 366.172 940.362 369.512 939.709 372.941C939.175 375.349 937.744 377.258 938.232 377.632C938.836 378.036 939.558 378.224 940.281 378.166C941.004 378.108 941.687 377.808 942.219 377.314C943.504 375.936 944.552 374.355 945.32 372.635C945.658 372.612 945.997 372.661 946.315 372.776C946.633 372.892 946.923 373.073 947.168 373.306C947.412 373.54 947.606 373.823 947.735 374.135C947.865 374.448 947.929 374.784 947.921 375.122C948.024 376.519 947.388 378.462 946.899 380.881C946.808 381.358 946.695 381.903 946.479 383.221C946.292 384.111 946.186 385.016 946.161 385.924C948.433 386.345 950.807 384.959 954.623 381.381C958.065 378.041 958.292 373.657 957.327 366.228Z" fill="#FFA8A7"/>
<path d="M897.806 281.456C897.874 279.184 905.257 273.868 908.994 268.211C912.402 262.964 917.298 248.538 905.825 243.926C905.825 243.926 908.301 237.008 903.803 232.931C899.305 228.853 893.251 231.374 892.297 233.078C891.72 230.954 890.474 229.073 888.742 227.714C887.011 226.355 884.887 225.591 882.687 225.536C880.538 225.374 878.402 225.994 876.674 227.282C874.946 228.57 873.741 230.439 873.282 232.544C871.466 231.758 869.436 231.621 867.531 232.154C865.626 232.688 863.963 233.86 862.82 235.475C858.606 241.279 864.194 246.595 864.194 246.595C863.47 247.084 862.891 247.761 862.521 248.554C862.151 249.346 862.003 250.224 862.093 251.093C862.422 253.547 864.774 254.149 865.046 255.376C865.099 255.633 865.067 255.899 864.954 256.136C864.841 256.373 864.654 256.566 864.422 256.687C864.189 256.807 863.924 256.849 863.665 256.805C863.407 256.761 863.17 256.634 862.99 256.444C863.052 256.764 863.176 257.069 863.355 257.341C863.534 257.613 863.766 257.848 864.036 258.03C864.306 258.213 864.61 258.34 864.929 258.405C865.249 258.47 865.578 258.471 865.898 258.409C868.545 258.261 870.908 254.66 870.908 254.66L897.806 281.456Z" fill="#263238"/>
<path d="M873.725 243.199C870.317 244.676 867.102 249.867 867.148 264.384C867.148 276.685 870.964 279.798 872.827 280.718C874.69 281.638 878.45 281.161 882.073 280.604V287.681C882.073 287.681 875.519 295.814 881.392 299.858C896.522 297.211 897.681 287.283 897.681 287.283L897.953 271.858C897.953 271.858 900.032 274.039 903.633 270.835C906.654 268.189 907.745 263.657 905.473 261.158C903.201 258.659 900.293 258.465 897.658 261.248C897.658 261.248 892.83 261.566 885.572 257.012C878.314 252.457 875.724 247.833 873.725 243.199Z" fill="#FFA8A7"/>
<path d="M882.437 272.085C882.452 272.32 882.421 272.555 882.344 272.777C882.268 272.999 882.148 273.204 881.991 273.38C881.835 273.555 881.645 273.698 881.433 273.799C881.221 273.901 880.991 273.959 880.756 273.97C880.392 274 880.027 273.919 879.709 273.74C879.391 273.56 879.134 273.289 878.972 272.962C878.809 272.635 878.748 272.266 878.797 271.904C878.845 271.542 879.001 271.203 879.244 270.931C879.487 270.658 879.807 270.464 880.161 270.375C880.515 270.285 880.888 270.304 881.231 270.428C881.575 270.552 881.873 270.776 882.088 271.072C882.303 271.367 882.425 271.72 882.437 272.085Z" fill="#B16668"/>
<path d="M873.089 260.181C873.086 260.501 872.99 260.813 872.811 261.079C872.633 261.345 872.381 261.552 872.086 261.676C871.791 261.8 871.466 261.835 871.151 261.775C870.837 261.716 870.546 261.566 870.316 261.344C870.086 261.121 869.926 260.836 869.856 260.524C869.787 260.212 869.81 259.886 869.924 259.587C870.038 259.287 870.237 259.028 870.496 258.841C870.756 258.654 871.065 258.547 871.385 258.534C871.605 258.529 871.824 258.568 872.029 258.649C872.234 258.729 872.421 258.849 872.579 259.002C872.738 259.156 872.864 259.339 872.952 259.541C873.039 259.743 873.086 259.96 873.089 260.181Z" fill="#263238"/>
<path d="M885.663 260.93C885.678 261.165 885.647 261.4 885.57 261.623C885.494 261.845 885.374 262.05 885.217 262.225C885.061 262.401 884.871 262.543 884.659 262.645C884.447 262.746 884.217 262.804 883.982 262.816C883.507 262.819 883.049 262.635 882.709 262.303C882.369 261.971 882.173 261.519 882.164 261.044C882.157 260.814 882.195 260.585 882.276 260.37C882.357 260.155 882.479 259.958 882.637 259.79C882.794 259.623 882.982 259.488 883.192 259.393C883.401 259.298 883.627 259.245 883.857 259.238C884.087 259.23 884.316 259.268 884.531 259.349C884.746 259.43 884.943 259.553 885.11 259.71C885.278 259.867 885.413 260.056 885.508 260.265C885.603 260.475 885.655 260.701 885.663 260.93Z" fill="#263238"/>
<path d="M871.953 253.672L868.488 255.705C868.612 255.939 868.783 256.146 868.989 256.311C869.196 256.477 869.435 256.598 869.691 256.667C869.946 256.736 870.214 256.752 870.476 256.714C870.738 256.675 870.989 256.583 871.214 256.444C871.67 256.165 872.001 255.722 872.138 255.205C872.276 254.689 872.209 254.14 871.953 253.672Z" fill="#263238"/>
<path d="M897.726 259.249V266.065C897.289 266.076 896.854 265.997 896.449 265.834C896.043 265.671 895.675 265.426 895.368 265.116C895.06 264.805 894.82 264.435 894.661 264.027C894.502 263.62 894.428 263.185 894.443 262.748C894.447 261.858 894.788 261.002 895.397 260.353C896.006 259.704 896.838 259.31 897.726 259.249Z" fill="#263238"/>
<path d="M877.564 258.556L876.871 268.371L871.691 267.155L877.564 258.556Z" fill="#F28F8F"/>
<path d="M882.119 280.627C885.924 280.184 893.785 278.003 895.068 274.8C894.56 276.405 893.578 277.818 892.251 278.855C889.877 280.899 882.108 283.012 882.108 283.012L882.119 280.627Z" fill="#F28F8F"/>
<path d="M927.861 204.726C929.311 205.279 930.67 206.045 931.894 206.998C933.08 207.865 934.099 208.938 934.904 210.167C935.67 211.349 936.173 212.682 936.381 214.075C936.585 215.561 936.401 217.076 935.847 218.47C935.45 219.587 934.836 220.614 934.041 221.492C933.33 222.241 932.515 222.883 931.621 223.4C930.752 223.897 929.839 224.315 928.895 224.65L926.214 225.615C925.426 225.9 924.665 226.258 923.943 226.683C923.261 227.025 922.691 227.553 922.296 228.205C922.115 228.51 921.856 228.76 921.546 228.932C921.398 229.014 921.233 229.061 921.064 229.071C920.895 229.081 920.726 229.053 920.569 228.989L917.025 227.66C916.857 227.598 916.703 227.502 916.572 227.379C916.441 227.256 916.336 227.108 916.264 226.944C916.186 226.787 916.145 226.614 916.145 226.439C916.145 226.263 916.186 226.09 916.264 225.933C916.719 224.84 917.392 223.851 918.24 223.025C919.01 222.302 919.869 221.68 920.796 221.174C921.691 220.693 922.626 220.29 923.591 219.97C924.545 219.652 925.431 219.345 926.26 219.027C927.009 218.752 927.728 218.402 928.407 217.982C928.99 217.612 929.437 217.062 929.679 216.414C929.903 215.848 929.985 215.234 929.918 214.629C929.85 214.023 929.636 213.443 929.293 212.939C928.438 211.697 927.195 210.775 925.76 210.315C924.51 209.817 923.136 209.72 921.829 210.035C920.521 210.35 919.342 211.063 918.456 212.075C918.23 212.315 917.965 212.514 917.673 212.666C917.357 212.765 917.016 212.74 916.718 212.598L912.947 211.178C912.813 211.131 912.689 211.058 912.584 210.962C912.478 210.867 912.393 210.751 912.334 210.621C912.269 210.489 912.235 210.343 912.235 210.195C912.235 210.048 912.269 209.902 912.334 209.769C912.833 208.611 913.614 207.596 914.606 206.816C915.709 205.898 916.967 205.183 918.32 204.703C919.806 204.178 921.367 203.894 922.943 203.863C924.623 203.831 926.293 204.124 927.861 204.726ZM919.774 231.874C919.94 231.933 920.091 232.026 920.218 232.147C920.345 232.269 920.446 232.416 920.512 232.578C920.582 232.74 920.618 232.914 920.618 233.089C920.618 233.265 920.582 233.439 920.512 233.601L918.967 237.701C918.909 237.867 918.815 238.018 918.694 238.146C918.573 238.273 918.426 238.373 918.263 238.44C918.102 238.51 917.928 238.546 917.752 238.546C917.576 238.546 917.402 238.51 917.241 238.44L913.231 236.929C913.065 236.87 912.914 236.777 912.787 236.655C912.66 236.534 912.559 236.387 912.493 236.225C912.423 236.063 912.387 235.889 912.387 235.713C912.387 235.538 912.423 235.364 912.493 235.202L914.038 231.102C914.098 230.936 914.192 230.783 914.313 230.655C914.434 230.526 914.58 230.423 914.742 230.352C914.904 230.284 915.078 230.25 915.253 230.25C915.428 230.25 915.602 230.284 915.764 230.352L919.774 231.874Z" fill="#026571"/>
<path d="M929.827 253.683C929.945 253.8 930.039 253.938 930.103 254.091C930.168 254.245 930.201 254.409 930.201 254.575C930.201 254.741 930.168 254.905 930.103 255.058C930.039 255.212 929.945 255.35 929.827 255.467L926.987 258.465C926.873 258.586 926.736 258.683 926.583 258.749C926.431 258.816 926.267 258.851 926.101 258.852C925.934 258.858 925.768 258.831 925.612 258.772C925.456 258.714 925.314 258.625 925.192 258.511L922.296 255.728C922.175 255.614 922.078 255.477 922.012 255.324C921.945 255.172 921.91 255.008 921.909 254.842C921.901 254.675 921.926 254.508 921.985 254.352C922.044 254.196 922.134 254.053 922.25 253.933L925.101 250.946C925.339 250.712 925.659 250.581 925.993 250.581C926.326 250.581 926.647 250.712 926.885 250.946L929.827 253.683ZM946.865 233.089C947.921 234.09 948.828 235.238 949.557 236.497C950.26 237.69 950.748 238.997 951 240.359C951.213 241.664 951.147 243 950.807 244.278C950.444 245.487 949.834 246.608 949.014 247.568C948.195 248.528 947.184 249.307 946.047 249.855C945.158 250.248 944.217 250.508 943.253 250.628C942.314 250.733 941.368 250.76 940.424 250.707L937.744 250.56C936.944 250.516 936.142 250.543 935.347 250.639C934.635 250.718 933.958 250.993 933.393 251.434C933.126 251.636 932.807 251.758 932.473 251.786C932.314 251.804 932.152 251.786 932.001 251.733C931.849 251.68 931.712 251.593 931.599 251.48L929.02 249.026C928.772 248.792 928.625 248.47 928.611 248.129C928.595 247.961 928.619 247.792 928.683 247.635C928.746 247.479 928.846 247.341 928.975 247.231C929.766 246.444 930.709 245.826 931.746 245.414C932.679 245.067 933.653 244.842 934.643 244.744C935.599 244.664 936.56 244.664 937.517 244.744C938.463 244.827 939.349 244.884 940.175 244.914C940.934 244.952 941.696 244.91 942.446 244.789C943.093 244.689 943.688 244.377 944.139 243.903C944.537 243.491 944.83 242.988 944.992 242.439C945.154 241.889 945.181 241.308 945.07 240.745C944.788 239.352 944.048 238.093 942.969 237.167C942.062 236.28 940.903 235.695 939.65 235.491C938.398 235.288 937.113 235.477 935.972 236.031C935.691 236.155 935.391 236.228 935.086 236.247C934.931 236.238 934.779 236.197 934.64 236.126C934.501 236.056 934.379 235.958 934.279 235.838L931.53 233.214C931.333 233.035 931.211 232.787 931.19 232.521C931.183 232.381 931.205 232.241 931.256 232.109C931.307 231.978 931.385 231.859 931.485 231.76C932.344 230.943 933.389 230.347 934.529 230.022C935.825 229.635 937.178 229.478 938.528 229.557C940.013 229.647 941.475 229.977 942.855 230.534C944.332 231.116 945.68 231.984 946.82 233.089H946.865Z" fill="#026571"/>
<g opacity="0.6">
<path d="M929.827 253.683C929.945 253.8 930.039 253.938 930.103 254.091C930.168 254.245 930.201 254.409 930.201 254.575C930.201 254.741 930.168 254.905 930.103 255.058C930.039 255.212 929.945 255.35 929.827 255.467L926.987 258.465C926.873 258.586 926.736 258.683 926.583 258.749C926.431 258.816 926.267 258.851 926.101 258.852C925.934 258.858 925.768 258.831 925.612 258.772C925.456 258.714 925.314 258.625 925.192 258.511L922.296 255.728C922.175 255.614 922.078 255.477 922.012 255.324C921.945 255.172 921.91 255.008 921.909 254.842C921.901 254.675 921.926 254.508 921.985 254.352C922.044 254.196 922.134 254.053 922.25 253.933L925.101 250.946C925.339 250.712 925.659 250.581 925.993 250.581C926.326 250.581 926.647 250.712 926.885 250.946L929.827 253.683ZM946.865 233.089C947.921 234.09 948.828 235.238 949.557 236.497C950.26 237.69 950.748 238.997 951 240.359C951.213 241.664 951.147 243 950.807 244.278C950.444 245.487 949.834 246.608 949.014 247.568C948.195 248.528 947.184 249.307 946.047 249.855C945.158 250.248 944.217 250.508 943.253 250.628C942.314 250.733 941.368 250.76 940.424 250.707L937.744 250.56C936.944 250.516 936.142 250.543 935.347 250.639C934.635 250.718 933.958 250.993 933.393 251.434C933.126 251.636 932.807 251.758 932.473 251.786C932.314 251.804 932.152 251.786 932.001 251.733C931.849 251.68 931.712 251.593 931.599 251.48L929.02 249.026C928.772 248.792 928.625 248.47 928.611 248.129C928.595 247.961 928.619 247.792 928.683 247.635C928.746 247.479 928.846 247.341 928.975 247.231C929.766 246.444 930.709 245.826 931.746 245.414C932.679 245.067 933.653 244.842 934.643 244.744C935.599 244.664 936.56 244.664 937.517 244.744C938.463 244.827 939.349 244.884 940.175 244.914C940.934 244.952 941.696 244.91 942.446 244.789C943.093 244.689 943.688 244.377 944.139 243.903C944.537 243.491 944.83 242.988 944.992 242.439C945.154 241.889 945.181 241.308 945.07 240.745C944.788 239.352 944.048 238.093 942.969 237.167C942.062 236.28 940.903 235.695 939.65 235.491C938.398 235.288 937.113 235.477 935.972 236.031C935.691 236.155 935.391 236.228 935.086 236.247C934.931 236.238 934.779 236.197 934.64 236.126C934.501 236.056 934.379 235.958 934.279 235.838L931.53 233.214C931.333 233.035 931.211 232.787 931.19 232.521C931.183 232.381 931.205 232.241 931.256 232.109C931.307 231.978 931.385 231.859 931.485 231.76C932.344 230.943 933.389 230.347 934.529 230.022C935.825 229.635 937.178 229.478 938.528 229.557C940.013 229.647 941.475 229.977 942.855 230.534C944.332 231.116 945.68 231.984 946.82 233.089H946.865Z" fill="white"/>
</g>
<path d="M525.652 539.282C529.253 541.474 534.035 541.554 538.544 539.975L541.952 516.121L526.049 512.055L525.652 539.282Z" fill="#FFA8A7"/>
<path d="M551.312 562.114C551.709 562.523 551.471 565.521 550.982 566.191C550.494 566.862 547.756 569.133 542.713 569.224C537.908 569.304 533.626 568.429 530.945 566.487C528.264 564.544 526.981 562.511 526.856 559.762C526.731 557.013 527.185 554.412 526.004 552.243C524.823 550.073 523.403 548.256 523.039 547.188C522.613 545.254 522.613 543.25 523.039 541.315L551.312 562.114Z" fill="#263238"/>
<path d="M539.646 538.975C539.668 540.011 539.813 541.041 540.078 542.042C540.697 544.191 541.57 546.257 542.679 548.199C543.23 549.212 543.849 550.187 544.53 551.118C545.882 552.924 547.609 554.435 549.074 556.173C550.63 557.82 551.565 559.956 551.721 562.216C551.721 565.987 547.575 567.043 544.405 567.43C540.962 567.85 537.468 567.489 534.182 566.373C532.463 565.823 530.939 564.79 529.793 563.395C528.646 562.001 527.926 560.306 527.719 558.513C527.594 557.456 527.719 556.4 527.651 555.344C527.368 552.92 526.486 550.605 525.084 548.608C524.269 547.452 523.583 546.21 523.039 544.905C522.176 542.531 523.107 539.952 523.857 537.669C524.505 535.704 524.993 533.33 525.72 533.557C525.72 533.955 525.72 534.841 525.72 534.841C525.924 535.284 526.424 535.602 526.549 536.124C526.667 536.663 526.83 537.192 527.038 537.703C527.347 538.494 527.895 539.169 528.605 539.634C528.73 538.214 528.855 536.794 528.969 535.386C528.936 535.162 528.956 534.934 529.025 534.719C529.094 534.503 529.211 534.306 529.368 534.143C529.524 533.98 529.716 533.855 529.928 533.777C530.141 533.699 530.368 533.67 530.593 533.693C533.258 533.206 535.981 533.126 538.669 533.455C538.872 533.47 539.069 533.525 539.251 533.617C539.432 533.708 539.593 533.835 539.726 533.989C539.864 534.29 539.908 534.627 539.851 534.954C539.71 536.29 539.642 537.632 539.646 538.975Z" fill="#026571"/>
<path opacity="0.2" d="M539.646 538.975C539.668 540.011 539.813 541.041 540.078 542.042C540.697 544.191 541.57 546.257 542.679 548.199C543.23 549.212 543.849 550.187 544.53 551.118C545.882 552.924 547.609 554.435 549.074 556.173C550.63 557.82 551.565 559.956 551.721 562.216C551.721 565.987 547.575 567.043 544.405 567.43C540.962 567.85 537.468 567.489 534.182 566.373C532.463 565.823 530.939 564.79 529.793 563.395C528.646 562.001 527.926 560.306 527.719 558.513C527.594 557.456 527.719 556.4 527.651 555.344C527.368 552.92 526.486 550.605 525.084 548.608C524.269 547.452 523.583 546.21 523.039 544.905C522.176 542.531 523.107 539.952 523.857 537.669C524.505 535.704 524.993 533.33 525.72 533.557C525.72 533.955 525.72 534.841 525.72 534.841C525.924 535.284 526.424 535.602 526.549 536.124C526.667 536.663 526.83 537.192 527.038 537.703C527.347 538.494 527.895 539.169 528.605 539.634C528.73 538.214 528.855 536.794 528.969 535.386C528.936 535.162 528.956 534.934 529.025 534.719C529.094 534.503 529.211 534.306 529.368 534.143C529.524 533.98 529.716 533.855 529.928 533.777C530.141 533.699 530.368 533.67 530.593 533.693C533.258 533.206 535.981 533.126 538.669 533.455C538.872 533.47 539.069 533.525 539.251 533.617C539.432 533.708 539.593 533.835 539.726 533.989C539.864 534.29 539.908 534.627 539.851 534.954C539.71 536.29 539.642 537.632 539.646 538.975Z" fill="black"/>
<path d="M543.145 549.017C541.804 547.881 538.669 547.71 536.943 547.801C535.194 547.86 533.487 548.356 531.979 549.244C531.756 549.38 531.493 549.435 531.235 549.399C530.976 549.364 530.737 549.241 530.559 549.051C530.454 548.94 530.375 548.808 530.326 548.663C530.278 548.518 530.262 548.365 530.279 548.213C530.297 548.062 530.347 547.916 530.427 547.786C530.506 547.656 530.613 547.545 530.741 547.461C532.41 546.373 534.349 545.771 536.341 545.723C540.634 545.654 541.77 546.427 541.77 546.427C541.77 546.427 543.633 547.79 543.145 549.017Z" fill="#455A64"/>
<path d="M546.155 553.038C544.451 551.902 540.998 551.902 539.271 551.959C537.554 552.04 535.889 552.573 534.444 553.503C534.22 553.642 533.955 553.699 533.693 553.664C533.432 553.628 533.192 553.504 533.012 553.31C532.906 553.2 532.826 553.067 532.777 552.922C532.729 552.776 532.713 552.622 532.731 552.469C532.75 552.317 532.802 552.171 532.884 552.041C532.966 551.912 533.076 551.802 533.206 551.72C534.884 550.571 536.853 549.918 538.885 549.834C543.122 549.755 544.178 550.686 544.178 550.686C544.665 550.901 545.097 551.225 545.439 551.633C545.782 552.04 546.027 552.521 546.155 553.038Z" fill="#455A64"/>
<path d="M534.875 541.599C536.669 541.384 538.488 541.635 540.157 542.326C540.873 542.792 541.293 543.985 540.805 544.257C539.332 543.574 537.712 543.265 536.091 543.36C534.503 543.43 532.94 543.772 531.468 544.371C531.093 544.507 530.661 544.712 530.332 544.893C530.21 544.956 530.077 544.992 529.941 545C529.805 545.009 529.669 544.989 529.541 544.942C529.413 544.895 529.296 544.822 529.197 544.727C529.099 544.633 529.021 544.519 528.969 544.394C528.897 544.184 528.901 543.955 528.98 543.748C529.059 543.541 529.208 543.367 529.4 543.258C531.086 542.322 532.953 541.756 534.875 541.599Z" fill="#455A64"/>
<path d="M570.474 530.32C573.246 537.26 577.585 535.125 584.196 531.126L585.196 507.431L568.373 505.875L570.474 530.32Z" fill="#FFA8A7"/>
<path d="M609.572 547.029C609.879 548.144 609.749 549.334 609.208 550.357C608.686 551.311 603.427 553.924 596.555 553.083C591.459 552.456 586.626 550.471 582.56 547.336C580.027 545.45 577.312 544.984 573.905 544.598C570.497 544.212 567.941 543.031 567.271 541.395C566.601 539.759 567.623 537.056 567.623 537.056L609.572 547.029Z" fill="#263238"/>
<path d="M582.81 525.186C583.431 525.054 584.042 524.88 584.639 524.663C584.972 524.54 585.339 524.54 585.673 524.663C586.104 524.856 586.241 525.379 586.343 525.799C586.44 526.827 586.638 527.843 586.933 528.832C587.398 529.653 588.015 530.377 588.751 530.967C590.388 532.432 592.173 533.723 594.078 534.818C596.271 536.158 598.429 537.215 600.689 538.385C602.95 539.555 606.119 540.395 607.913 541.792C610.515 543.769 610.617 548.369 607.436 550.005C604.699 551.425 597.611 552.742 590.398 550.266C586.456 548.914 582.254 544.405 577.028 543.712C573.7 543.28 569.27 542.758 567.26 540.111C566.533 538.975 567.169 535.681 567.76 531.831C568.293 528.423 568.782 522.971 569.884 523.334L569.963 524.379L571.304 525.981C571.597 526.293 571.908 526.589 572.235 526.867C572.594 527.286 572.973 527.688 573.371 528.071C573.911 528.533 574.582 528.815 575.291 528.877C575.626 528.898 575.961 528.824 576.256 528.661C576.824 528.343 576.903 527.594 577.392 527.128C577.92 526.585 578.554 526.156 579.255 525.867C580.228 525.521 581.245 525.314 582.276 525.254C582.456 525.243 582.634 525.22 582.81 525.186Z" fill="#026571"/>
<path opacity="0.2" d="M582.81 525.186C583.431 525.054 584.042 524.88 584.639 524.663C584.972 524.54 585.339 524.54 585.673 524.663C586.104 524.856 586.241 525.379 586.343 525.799C586.44 526.827 586.638 527.843 586.933 528.832C587.398 529.653 588.015 530.377 588.751 530.967C590.388 532.432 592.173 533.723 594.078 534.818C596.271 536.158 598.429 537.215 600.689 538.385C602.95 539.555 606.119 540.395 607.913 541.792C610.515 543.769 610.617 548.369 607.436 550.005C604.699 551.425 597.611 552.742 590.398 550.266C586.456 548.914 582.254 544.405 577.028 543.712C573.7 543.28 569.27 542.758 567.26 540.111C566.533 538.975 567.169 535.681 567.76 531.831C568.293 528.423 568.782 522.971 569.884 523.334L569.963 524.379L571.304 525.981C571.597 526.293 571.908 526.589 572.235 526.867C572.594 527.286 572.973 527.688 573.371 528.071C573.911 528.533 574.582 528.815 575.291 528.877C575.626 528.898 575.961 528.824 576.256 528.661C576.824 528.343 576.903 527.594 577.392 527.128C577.92 526.585 578.554 526.156 579.255 525.867C580.228 525.521 581.245 525.314 582.276 525.254C582.456 525.243 582.634 525.22 582.81 525.186Z" fill="black"/>
<path d="M591.068 532.796C590.85 532.324 590.517 531.914 590.101 531.603C589.684 531.292 589.197 531.089 588.683 531.013C587.183 530.649 584.446 531.626 582.708 532.91C582.543 533.03 582.41 533.188 582.32 533.372C582.231 533.555 582.187 533.757 582.194 533.961C582.201 534.165 582.257 534.364 582.359 534.542C582.46 534.719 582.604 534.868 582.776 534.977C582.995 535.109 583.249 535.172 583.504 535.158C583.759 535.144 584.004 535.053 584.207 534.897C586.129 533.322 588.594 532.567 591.068 532.796Z" fill="#455A64"/>
<path d="M595.623 535.715C595.317 535.232 594.899 534.829 594.405 534.541C593.911 534.252 593.355 534.086 592.783 534.057C590.44 534.033 588.149 534.753 586.241 536.113C586.079 536.225 585.947 536.374 585.856 536.548C585.764 536.722 585.717 536.916 585.717 537.112C585.717 537.309 585.764 537.503 585.856 537.677C585.947 537.851 586.079 538 586.241 538.112C586.453 538.24 586.7 538.3 586.948 538.284C587.196 538.268 587.432 538.176 587.626 538.021C588.699 537.059 589.976 536.352 591.361 535.953C592.746 535.554 594.203 535.472 595.623 535.715Z" fill="#455A64"/>
<path d="M600.689 538.373C600.335 537.922 599.888 537.553 599.379 537.29C598.869 537.027 598.309 536.878 597.736 536.851C595.474 536.869 593.276 537.601 591.454 538.941C591.296 539.058 591.169 539.212 591.084 539.389C590.998 539.567 590.957 539.762 590.964 539.959C590.971 540.155 591.025 540.347 591.122 540.518C591.219 540.689 591.357 540.834 591.522 540.94C591.729 541.079 591.975 541.147 592.223 541.133C592.471 541.118 592.708 541.023 592.897 540.861C593.911 539.866 595.144 539.123 596.497 538.691C597.851 538.259 599.286 538.15 600.689 538.373Z" fill="#455A64"/>
<path d="M525.209 475.331C525.72 463.893 528.151 457.94 528.492 454.771C528.492 454.771 529.423 391.843 530.957 372.748L587.297 370.351C588.126 390.798 588.876 445.73 588.433 452.999C588.013 459.962 585.184 520.358 585.184 520.358C577.233 522.846 568.748 519.222 568.748 519.222C568.748 519.222 564.022 484.861 563.25 477.285C562.702 470.47 562.877 463.616 563.773 456.839L560.172 407.915C560.172 407.915 555.821 445.854 553.674 460.167C551.221 476.535 540.634 527.276 540.634 527.276C533.024 529.173 525.618 525.89 525.618 525.89C525.618 525.89 524.459 491.904 525.209 475.331Z" fill="#455A64"/>
<path d="M560.183 407.961L561.251 401.214C564.534 400.725 572.848 395.534 577.767 390.991C574.263 396.292 569.523 400.662 563.954 403.724L563.784 456.861L560.183 407.961Z" fill="#37474F"/>
<path d="M583.287 337.206C579.459 328.471 572.871 313.761 572.871 313.761L571.201 289.907C573.639 289.985 576.07 290.201 578.482 290.555C582.026 291.111 587.649 294.496 590.216 300.88C592.136 305.617 602.109 334.514 602.109 334.514L619.488 325.359C623.941 322.53 625.52 317.839 628.36 315.135C631.199 312.432 634.039 312.023 637.185 309.854C640.332 307.684 641.57 305.946 642.365 308.116C643.16 310.285 639.639 313.613 638.957 314.443C638.276 315.272 634.857 317.044 639.219 317.271C643.581 317.498 652.406 313.25 654.519 312.523C656.632 311.796 656.45 314.306 655.348 315.862C654.247 317.419 654.133 321.985 652.293 324.541C650.339 327.267 649.283 328.437 645.091 330.061C641.195 331.561 633.119 331.947 628.962 334.343C624.804 336.74 614.74 345.839 608.027 350.507C599.019 356.777 593.953 357.186 590.421 352.188C586.888 347.19 584.639 340.284 583.287 337.206Z" fill="#FFA8A7"/>
<path d="M568.85 289.396C574.757 288.942 581.72 289.305 585.57 292.804C588.649 295.609 589.807 297.347 593.238 307.048C595.509 313.557 600.371 328.55 600.371 328.55C593.696 330.056 587.706 333.726 583.333 338.989L572.258 314.102L568.85 289.396Z" fill="#E0E0E0"/>
<path d="M602.109 334.457C599.116 335.517 596.54 337.507 594.76 340.137C594.76 340.137 595.18 335.593 601.575 332.878L602.109 334.457Z" fill="#F28F8F"/>
<path d="M554.708 288.328C551.91 288.213 549.111 288.519 546.405 289.237C541.214 290.611 531.911 293.224 531.911 293.224C528.957 294.757 527.81 299.869 527.14 302.811C525.004 312.228 530.548 333.48 531.399 341.761C532.251 350.042 530.411 375.406 530.411 375.406C536.761 382.767 571.167 387.651 587.922 375.406C587.922 375.406 588.649 317.169 587.002 308.808C584.503 296.155 580.788 290.146 567.691 289.385L554.708 288.328Z" fill="#F5F5F5"/>
<path d="M562.057 257.091L558.32 259.147C558.062 258.633 558.008 258.039 558.171 257.487C558.333 256.934 558.699 256.464 559.195 256.171C559.442 256.037 559.713 255.954 559.993 255.928C560.273 255.902 560.555 255.933 560.823 256.019C561.09 256.105 561.338 256.244 561.55 256.428C561.762 256.613 561.935 256.838 562.057 257.091Z" fill="#263238"/>
<path d="M578.312 258.59L574.904 255.966C575.064 255.736 575.27 255.541 575.508 255.392C575.746 255.243 576.012 255.145 576.289 255.102C576.566 255.06 576.85 255.074 577.121 255.145C577.393 255.215 577.647 255.34 577.869 255.512C578.32 255.873 578.618 256.392 578.7 256.964C578.782 257.535 578.643 258.117 578.312 258.59Z" fill="#263238"/>
<path d="M544.883 245.198C544.883 245.198 540.861 245.755 539.385 248.822C538.113 251.457 538.567 257.818 540.282 264.724C541.251 269.205 542.699 273.569 544.599 277.742C545.27 278.924 546.367 279.805 547.666 280.207L547.45 271.96L547.154 266.28C547.154 266.28 550.823 261.26 551.232 257.193C551.755 251.9 550.642 249.73 550.642 249.73L544.883 245.198Z" fill="#263238"/>
<path d="M551.368 253.149C551.384 257.22 553.012 261.118 555.898 263.988C558.783 266.859 562.69 268.467 566.76 268.461C575.234 268.461 581.595 261.476 581.527 252.99C581.458 244.505 575.097 237.713 566.612 237.747C562.551 237.777 558.667 239.414 555.81 242.301C552.953 245.187 551.356 249.088 551.368 253.149Z" fill="#263238"/>
<path d="M547.45 265.315C546.064 266.519 544.939 263.418 543.781 262.203C542.622 260.987 538.817 259.351 536.965 263.338C535.114 267.325 538.624 273.107 541.509 274.22C542.38 274.55 543.337 274.577 544.225 274.297C545.113 274.017 545.881 273.445 546.405 272.676V290.85C550.778 298.733 558.491 298.483 562.614 298.04C566.737 297.597 567.635 293.315 564.624 289.862V284.182C566.915 284.542 569.239 284.652 571.553 284.512C575.325 283.921 577.233 281.104 578.369 276.981C580.186 270.404 580.925 259.363 578.369 246.607C574.143 243.335 559.49 243.881 550.619 249.503C551.312 260.942 548.767 264.122 547.45 265.315Z" fill="#FFA8A7"/>
<path d="M579.118 240.291C579.689 237.923 579.945 235.49 579.88 233.056C579.88 232.101 579.641 230.943 578.744 230.579C577.846 230.216 576.96 230.875 576.188 231.397C572.916 233.601 568.85 234.226 564.908 234.441C558.093 234.816 547.677 234.373 544.212 241.836C543.247 243.903 543.076 246.084 544.985 247.516C546.686 248.655 548.632 249.379 550.664 249.628C554.072 250.23 557.48 250.98 560.978 251.446C564.477 251.911 568.634 252.366 572.099 251.298C575.018 250.401 577.983 249.628 580.152 247.311C582.033 245.291 583.094 242.642 583.128 239.882C583.128 239.496 583.049 239.008 582.662 238.905C582.47 238.881 582.274 238.921 582.106 239.019L579.118 240.291Z" fill="#263238"/>
<path d="M564.59 284.307C564.59 284.307 556.162 282.637 553.231 281.081C551.495 280.182 550.07 278.781 549.142 277.06C549.574 278.779 550.346 280.394 551.414 281.808C553.583 284.557 564.568 286.545 564.568 286.545L564.59 284.307Z" fill="#F28F8F"/>
<path d="M562.898 262.668C562.887 263.041 562.766 263.402 562.551 263.706C562.336 264.011 562.036 264.245 561.688 264.38C561.341 264.515 560.961 264.544 560.597 264.465C560.233 264.385 559.9 264.2 559.641 263.933C559.381 263.666 559.206 263.328 559.137 262.961C559.069 262.595 559.109 262.216 559.254 261.873C559.4 261.53 559.643 261.237 559.953 261.031C560.264 260.825 560.628 260.715 561.001 260.715C561.511 260.724 561.997 260.934 562.352 261.3C562.708 261.666 562.904 262.158 562.898 262.668Z" fill="#263238"/>
<path d="M565.624 275.788C565.633 276.268 565.452 276.732 565.12 277.079C564.788 277.426 564.332 277.628 563.852 277.639C563.369 277.63 562.909 277.431 562.573 277.084C562.237 276.737 562.051 276.271 562.057 275.788C562.053 275.551 562.095 275.315 562.182 275.094C562.268 274.873 562.398 274.672 562.562 274.501C562.727 274.33 562.923 274.193 563.141 274.098C563.358 274.003 563.592 273.952 563.829 273.948C564.31 273.957 564.769 274.155 565.104 274.499C565.44 274.844 565.627 275.307 565.624 275.788Z" fill="#B16668"/>
<path d="M560.512 256.705L556.605 259.17C556.283 258.633 556.181 257.993 556.32 257.383C556.46 256.773 556.831 256.241 557.355 255.898C557.614 255.74 557.902 255.634 558.203 255.589C558.503 255.544 558.81 255.559 559.104 255.634C559.398 255.709 559.675 255.843 559.917 256.027C560.159 256.211 560.361 256.441 560.512 256.705Z" fill="#263238"/>
<path d="M574.302 254.297L578.414 256.137C578.303 256.407 578.139 256.651 577.931 256.856C577.723 257.061 577.475 257.221 577.203 257.327C576.931 257.433 576.641 257.483 576.349 257.474C576.058 257.464 575.771 257.396 575.506 257.273C574.969 257.018 574.548 256.57 574.325 256.019C574.102 255.468 574.094 254.854 574.302 254.297Z" fill="#263238"/>
<path d="M576.472 262.1C576.458 262.458 576.34 262.805 576.132 263.096C575.923 263.387 575.634 263.611 575.3 263.74C574.965 263.868 574.6 263.895 574.25 263.818C573.901 263.741 573.581 263.563 573.332 263.306C573.082 263.048 572.914 262.724 572.847 262.372C572.781 262.02 572.819 261.656 572.958 261.325C573.096 260.995 573.329 260.713 573.626 260.513C573.924 260.314 574.273 260.206 574.632 260.203C575.127 260.212 575.598 260.417 575.943 260.772C576.288 261.128 576.478 261.605 576.472 262.1Z" fill="#263238"/>
<path d="M567.18 258.897L567.862 271.528L573.848 269.938L567.18 258.897Z" fill="#F28F8F"/>
<path d="M461.121 310.921C463.087 311.978 471.095 317.612 475.445 318.1C477.285 318.305 477.785 318.009 477.717 317.532C477.626 316.873 476.456 315.885 476.172 315.351C475.684 314.42 472.764 310.558 473.9 308.536C475.036 306.514 476.024 308.445 478.728 311.092C481.431 313.738 484.203 314.658 486.577 317.737C488.951 320.815 489.746 325.688 493.676 329.221L509.329 339.909C509.329 339.909 516.621 306.071 519.825 302.084C523.232 297.893 537.851 307.025 534.784 320.349C531.717 333.673 524.732 356.8 519.87 361.332C516.735 364.274 510.135 361.503 501.9 354.176C495.391 348.383 486.475 339.694 482.704 336.615C478.932 333.537 471.095 331.879 467.494 329.8C463.62 327.528 462.769 326.199 461.281 323.189C459.883 320.361 460.508 315.828 459.679 314.102C458.85 312.375 459.122 309.865 461.121 310.921Z" fill="#FFA8A7"/>
<path d="M531.911 293.224C536.931 296.359 537.181 300.925 537.431 306.151C537.502 312.267 536.534 318.351 534.569 324.143C532.444 330.72 529.071 342.726 529.071 342.726C529.071 342.726 515.963 343.033 509.215 337.206C509.215 337.206 512.294 324.257 514.463 314.488C516.633 304.719 519.268 294.326 531.911 293.224Z" fill="#E0E0E0"/>
<path d="M509.272 339.932C512.85 341.92 514.952 346.191 515.599 347.883C515.444 345.913 514.824 344.007 513.789 342.322C512.754 340.638 511.335 339.223 509.647 338.194L509.272 339.932Z" fill="#F28F8F"/>
<path d="M645.262 585.433L732.93 636.049V654.7L645.262 604.085V585.433Z" fill="#026571"/>
<path opacity="0.35" d="M645.262 585.433L732.93 636.049V654.7L645.262 604.085V585.433Z" fill="black"/>
<path d="M820.599 585.433L732.93 636.049V654.7L820.599 604.085V585.433Z" fill="#026571"/>
<path opacity="0.2" d="M820.599 585.433L732.93 636.049V654.7L820.599 604.085V585.433Z" fill="black"/>
<path d="M820.599 585.433L732.93 534.829L645.262 585.433L732.93 636.049L820.599 585.433Z" fill="#026571"/>
<path opacity="0.15" d="M820.599 585.433L732.93 534.829L645.262 585.433L732.93 636.049L820.599 585.433Z" fill="black"/>
<path opacity="0.1" d="M732.93 636.049V630.722L654.485 585.433H645.262L732.93 636.049Z" fill="black"/>
<path opacity="0.1" d="M732.93 534.829V540.157L811.375 585.433H820.599L732.93 534.829Z" fill="black"/>
<path d="M820.599 585.433H811.375L732.93 630.722V636.049L820.599 585.433Z" fill="#026571"/>
<path d="M732.93 534.829V540.157L654.485 585.433H645.262L732.93 534.829Z" fill="#026571"/>
<path d="M733.248 563.465L770.915 585.206C773.732 586.842 773.732 589.477 770.915 591.102L742.824 607.368C741.241 608.176 739.49 608.598 737.712 608.598C735.935 608.598 734.183 608.176 732.601 607.368L694.935 585.627C692.117 583.991 692.117 581.356 694.935 579.731L723.037 563.465C724.618 562.659 726.367 562.238 728.142 562.238C729.917 562.238 731.667 562.659 733.248 563.465Z" fill="#37474F"/>
<path d="M742.824 607.368L769.983 591.681L733.248 570.474C731.663 569.675 729.912 569.259 728.137 569.259C726.361 569.259 724.611 569.675 723.025 570.474L695.866 586.183L732.601 607.368C734.183 608.176 735.935 608.598 737.712 608.598C739.49 608.598 741.241 608.176 742.824 607.368Z" fill="#455A64"/>
<path d="M710.496 585.468L726.978 575.96C727.285 575.806 727.623 575.726 727.966 575.726C728.31 575.726 728.648 575.806 728.955 575.96L730.977 577.096C731.522 577.403 731.522 577.914 730.977 578.232L714.495 587.739C714.19 587.893 713.853 587.973 713.512 587.973C713.171 587.973 712.834 587.893 712.53 587.739L710.508 586.603C710.39 586.563 710.287 586.487 710.214 586.386C710.141 586.285 710.101 586.164 710.1 586.039C710.098 585.915 710.136 585.793 710.207 585.69C710.278 585.588 710.379 585.51 710.496 585.468Z" fill="#263238"/>
<path d="M735.111 599.7L751.593 590.193C751.898 590.039 752.234 589.959 752.576 589.959C752.917 589.959 753.253 590.039 753.558 590.193L755.591 591.329C756.137 591.635 756.137 592.147 755.591 592.465L739.11 601.972C738.805 602.126 738.468 602.206 738.127 602.206C737.786 602.206 737.449 602.126 737.144 601.972L735.123 600.836C735.005 600.796 734.902 600.72 734.829 600.619C734.756 600.518 734.716 600.397 734.714 600.272C734.713 600.148 734.751 600.026 734.822 599.923C734.893 599.821 734.994 599.743 735.111 599.7Z" fill="#263238"/>
<path d="M694.844 622.271C694.751 620.547 694.252 618.869 693.387 617.375C692.523 615.88 691.317 614.611 689.868 613.672C689.368 613.306 688.778 613.081 688.16 613.021C687.543 612.962 686.921 613.068 686.359 613.331L684.212 614.581C683.706 614.937 683.305 615.422 683.05 615.985C682.794 616.548 682.693 617.169 682.758 617.784C682.852 619.508 683.35 621.185 684.213 622.681C685.075 624.177 686.277 625.449 687.722 626.394C688.225 626.76 688.817 626.984 689.436 627.044C690.055 627.104 690.679 626.997 691.243 626.735L693.378 625.451C693.881 625.096 694.28 624.616 694.538 624.057C694.795 623.499 694.9 622.883 694.844 622.271Z" fill="#026571"/>
<path opacity="0.1" d="M687.722 614.955C689.17 615.895 690.376 617.164 691.24 618.658C692.105 620.152 692.604 621.83 692.697 623.554C692.697 626.723 690.425 628.007 687.722 626.428C686.277 625.483 685.075 624.211 684.213 622.715C683.35 621.219 682.852 619.542 682.758 617.818C682.758 614.66 684.984 613.376 687.722 614.955Z" fill="black"/>
<path d="M630.098 651.236C624.555 651.333 619.08 650.007 614.195 647.385L556.037 613.808C551.369 611.105 548.79 607.379 548.79 603.313C548.79 599.246 551.369 595.532 556.037 592.828L623.418 553.924C630.802 549.664 637.049 538.862 637.049 530.331V317.089C637.049 316.487 637.289 315.909 637.715 315.483C638.141 315.057 638.719 314.817 639.321 314.817C639.924 314.817 640.501 315.057 640.927 315.483C641.353 315.909 641.593 316.487 641.593 317.089V530.331C641.593 540.622 634.618 552.72 625.69 557.865L558.309 596.77C555.106 598.621 553.334 600.939 553.334 603.313C553.334 605.687 555.106 608.015 558.309 609.867L616.467 643.444C623.975 647.783 636.197 647.783 643.728 643.444L686.608 618.704C686.867 618.54 687.156 618.429 687.458 618.379C687.761 618.33 688.07 618.342 688.368 618.415C688.665 618.487 688.945 618.62 689.19 618.804C689.435 618.987 689.641 619.219 689.794 619.484C689.947 619.75 690.045 620.043 690.082 620.347C690.119 620.651 690.094 620.96 690.009 621.254C689.924 621.548 689.78 621.822 689.586 622.06C689.392 622.297 689.152 622.492 688.88 622.634L646 647.385C641.116 650.009 635.641 651.335 630.098 651.236Z" fill="#37474F"/>
<path d="M528.048 235.543C528.015 235.389 528.014 235.23 528.045 235.075C528.076 234.921 528.139 234.775 528.23 234.646C528.316 234.511 528.429 234.396 528.562 234.308C528.695 234.22 528.845 234.161 529.003 234.135L534.523 233.067C534.679 233.032 534.84 233.03 534.997 233.061C535.153 233.092 535.302 233.156 535.432 233.249C535.696 233.43 535.879 233.707 535.943 234.021L536.795 238.451C536.827 238.606 536.826 238.766 536.793 238.92C536.76 239.075 536.695 239.22 536.602 239.348C536.519 239.484 536.408 239.6 536.277 239.69C536.146 239.78 535.997 239.842 535.841 239.871L530.309 240.927C530.155 240.961 529.996 240.962 529.841 240.931C529.687 240.9 529.54 240.836 529.412 240.746C529.277 240.66 529.162 240.547 529.074 240.414C528.986 240.281 528.927 240.131 528.9 239.973L528.048 235.543ZM523.437 211.621C523.405 211.465 523.405 211.305 523.436 211.149C523.467 210.993 523.529 210.844 523.618 210.712C523.707 210.58 523.821 210.467 523.953 210.379C524.086 210.292 524.235 210.231 524.391 210.201L529.923 209.134C530.077 209.102 530.237 209.102 530.392 209.135C530.546 209.169 530.692 209.234 530.82 209.327C530.953 209.411 531.068 209.522 531.156 209.653C531.244 209.784 531.304 209.932 531.331 210.088L534.955 229.023C534.987 229.178 534.986 229.338 534.953 229.492C534.92 229.647 534.854 229.793 534.762 229.92C534.677 230.054 534.566 230.168 534.435 230.256C534.304 230.344 534.156 230.404 534.001 230.432L528.469 231.499C528.314 231.531 528.154 231.531 528 231.497C527.845 231.464 527.699 231.399 527.571 231.306C527.438 231.222 527.324 231.111 527.236 230.98C527.148 230.849 527.088 230.701 527.06 230.545L523.437 211.621Z" fill="#026571"/>
<path d="M518.825 254.081C518.719 253.963 518.637 253.826 518.584 253.676C518.531 253.527 518.508 253.369 518.517 253.21C518.525 253.052 518.565 252.897 518.633 252.754C518.702 252.611 518.798 252.483 518.916 252.377L523.107 248.617C523.224 248.51 523.363 248.428 523.513 248.377C523.664 248.326 523.824 248.307 523.982 248.322C524.139 248.325 524.294 248.361 524.437 248.428C524.58 248.494 524.707 248.59 524.811 248.708L527.821 252.116C527.928 252.234 528.009 252.371 528.062 252.521C528.115 252.67 528.138 252.828 528.13 252.987C528.121 253.145 528.082 253.3 528.013 253.443C527.945 253.586 527.849 253.714 527.73 253.82L523.596 257.534C523.479 257.642 523.34 257.724 523.19 257.775C523.039 257.826 522.879 257.844 522.721 257.829C522.564 257.826 522.409 257.79 522.266 257.724C522.123 257.657 521.996 257.562 521.892 257.443L518.825 254.081ZM502.57 235.907C502.357 235.667 502.246 235.353 502.264 235.032C502.268 234.874 502.306 234.718 502.375 234.575C502.443 234.433 502.541 234.306 502.661 234.203L506.853 230.443C506.969 230.333 507.107 230.249 507.257 230.196C507.408 230.144 507.568 230.123 507.727 230.136C507.886 230.141 508.041 230.179 508.184 230.247C508.327 230.316 508.454 230.413 508.556 230.534L521.415 244.914C521.523 245.031 521.604 245.17 521.655 245.32C521.706 245.471 521.725 245.631 521.71 245.789C521.707 245.946 521.671 246.101 521.604 246.244C521.538 246.387 521.442 246.514 521.324 246.618L517.121 250.378C517.005 250.484 516.869 250.565 516.72 250.616C516.572 250.667 516.414 250.686 516.258 250.673C516.099 250.672 515.941 250.636 515.796 250.57C515.652 250.503 515.522 250.407 515.417 250.287L502.57 235.907Z" fill="#026571"/>
<g opacity="0.6">
<path d="M518.825 254.081C518.719 253.963 518.637 253.826 518.584 253.676C518.531 253.527 518.508 253.369 518.517 253.21C518.525 253.052 518.565 252.897 518.633 252.754C518.702 252.611 518.798 252.483 518.916 252.377L523.107 248.617C523.224 248.51 523.363 248.428 523.513 248.377C523.664 248.326 523.824 248.307 523.982 248.322C524.139 248.325 524.294 248.361 524.437 248.428C524.58 248.494 524.707 248.59 524.811 248.708L527.821 252.116C527.928 252.234 528.009 252.371 528.062 252.521C528.115 252.67 528.138 252.828 528.13 252.987C528.121 253.145 528.082 253.3 528.013 253.443C527.945 253.586 527.849 253.714 527.73 253.82L523.596 257.534C523.479 257.642 523.34 257.724 523.19 257.775C523.039 257.826 522.879 257.844 522.721 257.829C522.564 257.826 522.409 257.79 522.266 257.724C522.123 257.657 521.996 257.562 521.892 257.443L518.825 254.081ZM502.57 235.907C502.357 235.667 502.246 235.353 502.264 235.032C502.268 234.874 502.306 234.718 502.375 234.575C502.443 234.433 502.541 234.306 502.661 234.203L506.853 230.443C506.969 230.333 507.107 230.249 507.257 230.196C507.408 230.144 507.568 230.123 507.727 230.136C507.886 230.141 508.041 230.179 508.184 230.247C508.327 230.316 508.454 230.413 508.556 230.534L521.415 244.914C521.523 245.031 521.604 245.17 521.655 245.32C521.706 245.471 521.725 245.631 521.71 245.789C521.707 245.946 521.671 246.101 521.604 246.244C521.538 246.387 521.442 246.514 521.324 246.618L517.121 250.378C517.005 250.484 516.869 250.565 516.72 250.616C516.572 250.667 516.414 250.686 516.258 250.673C516.099 250.672 515.941 250.636 515.796 250.57C515.652 250.503 515.522 250.407 515.417 250.287L502.57 235.907Z" fill="white"/>
</g>
<path d="M626.962 201.114C628.908 200.992 630.832 201.577 632.381 202.761C633.044 203.365 633.562 204.11 633.896 204.942C634.23 205.774 634.373 206.671 634.312 207.566C634.37 208.465 634.226 209.366 633.892 210.203C633.558 211.04 633.042 211.792 632.381 212.405C630.842 213.614 628.916 214.22 626.962 214.109H622.419V220.526C622.421 220.63 622.403 220.733 622.364 220.828C622.324 220.924 622.266 221.011 622.192 221.083C622.121 221.155 622.036 221.213 621.942 221.252C621.848 221.291 621.748 221.311 621.646 221.31H619.318C619.215 221.312 619.112 221.292 619.016 221.254C618.92 221.215 618.833 221.157 618.76 221.084C618.687 221.011 618.629 220.924 618.591 220.828C618.552 220.732 618.533 220.63 618.534 220.526V201.92C618.534 201.818 618.554 201.717 618.594 201.622C618.634 201.528 618.691 201.442 618.764 201.37C618.837 201.298 618.924 201.242 619.019 201.204C619.114 201.165 619.215 201.146 619.318 201.148L626.962 201.114ZM622.419 210.508H626.883C627.802 210.555 628.715 210.33 629.507 209.86C629.854 209.6 630.126 209.253 630.298 208.854C630.469 208.456 630.533 208.02 630.484 207.589C630.539 207.157 630.478 206.719 630.306 206.319C630.134 205.92 629.858 205.573 629.507 205.317C628.707 204.87 627.798 204.657 626.883 204.703H622.419V210.508Z" fill="#455A64"/>
<path d="M636.913 210.019C637.015 209.56 637.195 209.122 637.447 208.724C637.745 208.228 638.129 207.789 638.583 207.43C639.147 206.994 639.781 206.656 640.457 206.43C641.288 206.156 642.16 206.026 643.035 206.044C643.933 206.03 644.826 206.16 645.682 206.43C646.429 206.668 647.121 207.054 647.715 207.566C648.292 208.084 648.739 208.73 649.022 209.451C649.343 210.284 649.501 211.171 649.487 212.064V220.526C649.488 220.631 649.467 220.734 649.426 220.829C649.385 220.925 649.324 221.011 649.249 221.083C649.178 221.156 649.093 221.214 648.999 221.253C648.906 221.292 648.805 221.311 648.704 221.31H646.523C646.419 221.312 646.317 221.292 646.221 221.254C646.125 221.215 646.038 221.157 645.965 221.084C645.892 221.011 645.834 220.924 645.795 220.828C645.757 220.732 645.737 220.63 645.739 220.526V219.584C645.283 220.191 644.687 220.678 644.001 221.003C643.097 221.43 642.103 221.633 641.104 221.594C640.334 221.61 639.567 221.499 638.833 221.265C638.224 221.073 637.663 220.756 637.186 220.333C636.749 219.933 636.4 219.445 636.163 218.902C635.923 218.335 635.803 217.724 635.811 217.107C635.782 216.514 635.895 215.923 636.14 215.381C636.385 214.84 636.755 214.365 637.22 213.995C638.358 213.163 639.692 212.638 641.093 212.473L645.784 211.666C645.813 211.345 645.757 211.021 645.622 210.728C645.486 210.435 645.276 210.183 645.012 209.997C644.426 209.658 643.757 209.489 643.081 209.508C642.692 209.488 642.303 209.558 641.945 209.713C641.662 209.855 641.402 210.039 641.173 210.258C641.031 210.388 640.87 210.496 640.695 210.576C640.543 210.636 640.382 210.666 640.218 210.667H637.538C637.357 210.673 637.182 210.608 637.049 210.485C636.984 210.429 636.936 210.355 636.912 210.273C636.887 210.19 636.888 210.102 636.913 210.019ZM641.729 218.152C642.32 218.162 642.908 218.069 643.467 217.88C643.938 217.717 644.373 217.467 644.751 217.141C645.079 216.856 645.342 216.504 645.523 216.108C645.69 215.752 645.779 215.365 645.784 214.972V214.631L641.865 215.313C641.265 215.384 640.688 215.586 640.173 215.903C640.005 216.022 639.869 216.181 639.778 216.365C639.687 216.55 639.643 216.754 639.65 216.96C639.648 217.156 639.707 217.347 639.819 217.508C639.931 217.669 640.091 217.791 640.275 217.857C640.734 218.056 641.229 218.157 641.729 218.152Z" fill="#455A64"/>
<path d="M659.903 224.184C660.323 224.182 660.74 224.121 661.142 224.002C661.555 223.881 661.941 223.68 662.278 223.412C662.626 223.13 662.915 222.783 663.129 222.389C663.355 221.938 663.468 221.439 663.459 220.935V219.868C663.274 220.069 663.073 220.256 662.857 220.424C662.577 220.648 662.272 220.839 661.948 220.992C661.552 221.179 661.137 221.323 660.71 221.424C660.185 221.543 659.647 221.6 659.108 221.594C658.21 221.609 657.321 221.418 656.507 221.038C655.748 220.68 655.072 220.17 654.519 219.538C653.961 218.903 653.522 218.172 653.224 217.38C652.905 216.564 652.724 215.7 652.691 214.824C652.691 214.54 652.691 214.199 652.691 213.825C652.691 213.45 652.691 213.098 652.691 212.814C652.724 211.938 652.905 211.074 653.224 210.258C653.525 209.468 653.963 208.737 654.519 208.1C655.068 207.47 655.741 206.959 656.496 206.6C657.309 206.219 658.199 206.029 659.097 206.044C659.636 206.038 660.173 206.095 660.699 206.214C661.125 206.315 661.54 206.459 661.937 206.646C662.261 206.799 662.566 206.99 662.845 207.214C663.061 207.382 663.262 207.569 663.447 207.77V207.111C663.45 206.906 663.532 206.71 663.676 206.564C663.82 206.418 664.015 206.334 664.22 206.328H666.412C666.617 206.336 666.812 206.421 666.957 206.567C667.102 206.712 667.188 206.906 667.196 207.111V220.617C667.262 221.582 667.122 222.55 666.785 223.457C666.448 224.364 665.922 225.189 665.242 225.877C663.752 227.123 661.843 227.757 659.903 227.649C658.98 227.655 658.061 227.521 657.177 227.251C656.403 227.027 655.67 226.678 655.008 226.217C654.427 225.827 653.926 225.33 653.531 224.752C653.183 224.252 652.975 223.667 652.929 223.059C652.92 222.958 652.934 222.856 652.972 222.761C653.009 222.666 653.069 222.582 653.145 222.514C653.294 222.37 653.494 222.288 653.701 222.287H655.667C655.794 222.284 655.921 222.307 656.04 222.354C656.159 222.401 656.268 222.471 656.359 222.56C656.553 222.741 656.712 222.912 656.848 223.059C657.118 223.407 657.469 223.684 657.87 223.866C658.517 224.118 659.211 224.227 659.903 224.184ZM656.496 213.018C656.439 213.554 656.439 214.095 656.496 214.631C656.504 215.643 656.912 216.611 657.632 217.323C658.301 217.876 659.149 218.167 660.017 218.141C660.886 218.166 661.732 217.867 662.391 217.3C662.73 216.999 663.005 216.632 663.2 216.222C663.395 215.813 663.506 215.368 663.527 214.915C663.569 214.538 663.588 214.159 663.584 213.779C663.587 213.4 663.568 213.021 663.527 212.643C663.48 211.757 663.089 210.925 662.438 210.323C661.787 209.72 660.927 209.395 660.04 209.417C659.172 209.391 658.324 209.682 657.654 210.235C657.283 210.597 656.989 211.029 656.79 211.508C656.59 211.986 656.491 212.5 656.496 213.018Z" fill="#455A64"/>
<path d="M670.433 213.825C670.428 212.789 670.597 211.76 670.933 210.78C671.249 209.865 671.748 209.022 672.398 208.304C673.028 207.595 673.803 207.029 674.67 206.646C675.595 206.252 676.59 206.05 677.595 206.05C678.6 206.05 679.595 206.252 680.52 206.646C681.376 207.013 682.149 207.55 682.792 208.225C683.414 208.906 683.9 209.7 684.223 210.565C684.556 211.462 684.725 212.413 684.723 213.37V214.665C684.727 214.767 684.708 214.869 684.669 214.963C684.63 215.057 684.571 215.141 684.496 215.21C684.427 215.286 684.343 215.347 684.249 215.388C684.155 215.429 684.053 215.45 683.95 215.449H674.329C674.325 215.844 674.419 216.235 674.602 216.585C674.781 216.92 675.034 217.212 675.34 217.437C675.661 217.676 676.023 217.853 676.408 217.959C676.811 218.074 677.228 218.131 677.646 218.13C678.149 218.143 678.651 218.078 679.134 217.937C679.475 217.832 679.797 217.675 680.088 217.471C680.25 217.345 680.425 217.238 680.611 217.153C680.785 217.087 680.97 217.057 681.156 217.062H683.428C683.636 217.063 683.835 217.145 683.985 217.289C684.064 217.357 684.126 217.443 684.163 217.54C684.201 217.637 684.214 217.742 684.2 217.846C684.134 218.22 683.982 218.573 683.757 218.879C683.415 219.36 682.992 219.779 682.508 220.118C681.871 220.558 681.175 220.906 680.441 221.151C679.529 221.453 678.572 221.599 677.612 221.583C676.608 221.599 675.61 221.41 674.682 221.026C673.812 220.672 673.036 220.124 672.41 219.425C671.76 218.73 671.257 217.911 670.933 217.017C670.586 215.989 670.417 214.909 670.433 213.825ZM677.499 209.497C677.009 209.483 676.523 209.568 676.067 209.747C675.698 209.889 675.362 210.106 675.079 210.383C674.816 210.626 674.603 210.92 674.454 211.246C674.315 211.532 674.223 211.839 674.182 212.155H680.69C680.648 211.846 680.576 211.541 680.475 211.246C680.367 210.923 680.189 210.628 679.952 210.383C679.689 210.104 679.367 209.887 679.009 209.747C678.528 209.563 678.014 209.478 677.499 209.497Z" fill="#455A64"/>
<path d="M708.338 220.526C708.34 220.629 708.321 220.73 708.283 220.825C708.244 220.92 708.188 221.007 708.116 221.08C708.044 221.153 707.958 221.211 707.864 221.25C707.769 221.29 707.668 221.31 707.566 221.31H705.339C705.238 221.311 705.137 221.292 705.043 221.253C704.95 221.213 704.865 221.156 704.794 221.083C704.718 221.011 704.658 220.925 704.617 220.829C704.576 220.734 704.555 220.631 704.556 220.526V213.211C704.608 212.226 704.324 211.253 703.749 210.451C703.448 210.094 703.067 209.814 702.636 209.634C702.206 209.454 701.738 209.38 701.273 209.417C700.821 209.395 700.37 209.477 699.955 209.656C699.539 209.835 699.17 210.107 698.876 210.451C698.255 211.233 697.941 212.214 697.99 213.211V220.526C697.993 220.63 697.974 220.733 697.935 220.828C697.896 220.924 697.837 221.011 697.763 221.083C697.692 221.155 697.607 221.213 697.513 221.252C697.42 221.291 697.319 221.311 697.218 221.31H695.116C695.015 221.311 694.914 221.291 694.821 221.252C694.727 221.213 694.642 221.155 694.571 221.083C694.497 221.011 694.438 220.924 694.399 220.828C694.36 220.733 694.341 220.63 694.344 220.526V207.111C694.34 207.01 694.358 206.908 694.398 206.814C694.437 206.72 694.496 206.635 694.571 206.566C694.64 206.49 694.724 206.43 694.818 206.389C694.912 206.347 695.014 206.327 695.116 206.328H697.309C697.411 206.327 697.513 206.347 697.607 206.389C697.701 206.43 697.785 206.49 697.854 206.566C697.929 206.635 697.988 206.72 698.027 206.814C698.067 206.908 698.085 207.01 698.081 207.111V207.77C698.596 207.263 699.191 206.845 699.842 206.532C700.589 206.188 701.405 206.021 702.227 206.044C703.236 206.01 704.239 206.196 705.169 206.589C705.91 206.918 706.561 207.42 707.066 208.054C707.558 208.687 707.907 209.42 708.088 210.201C708.296 211.045 708.399 211.911 708.395 212.78L708.338 220.526Z" fill="#455A64"/>
<path d="M718.766 206.044C719.742 206.028 720.712 206.193 721.628 206.532C722.447 206.855 723.199 207.329 723.843 207.929C724.465 208.503 724.974 209.189 725.342 209.951C725.72 210.726 725.94 211.567 725.99 212.427C726.004 212.647 726.004 212.867 725.99 213.086V214.688C726.004 214.903 726.004 215.12 725.99 215.335C725.919 216.193 725.696 217.032 725.331 217.812C724.973 218.57 724.467 219.25 723.843 219.811C723.195 220.391 722.443 220.846 721.628 221.151C719.789 221.792 717.788 221.792 715.949 221.151C715.113 220.854 714.341 220.399 713.677 219.811C713.056 219.25 712.554 218.57 712.2 217.812C711.832 217.032 711.605 216.194 711.53 215.335C711.53 215.161 711.53 214.945 711.53 214.688C711.53 214.427 711.53 214.165 711.53 213.893C711.53 213.62 711.53 213.359 711.53 213.086C711.53 212.814 711.53 212.598 711.53 212.427C711.59 211.569 711.81 210.729 712.177 209.951C712.546 209.189 713.055 208.503 713.677 207.929C714.341 207.338 715.112 206.879 715.949 206.578C716.847 206.229 717.802 206.048 718.766 206.044ZM722.253 212.518C722.214 212.003 722.071 211.501 721.833 211.042C721.631 210.675 721.352 210.357 721.015 210.11C720.697 209.876 720.333 209.713 719.947 209.633C719.575 209.546 719.194 209.5 718.811 209.497C718.429 209.499 718.047 209.545 717.675 209.633C717.289 209.713 716.925 209.876 716.607 210.11C716.264 210.351 715.984 210.67 715.79 211.042C715.546 211.498 715.403 212.002 715.369 212.518C715.369 212.677 715.369 212.87 715.369 213.098C715.369 213.325 715.369 213.575 715.369 213.825C715.369 214.074 715.369 214.313 715.369 214.552C715.359 214.741 715.359 214.93 715.369 215.12C715.402 215.636 715.545 216.14 715.79 216.596C715.987 216.969 716.267 217.291 716.607 217.539C716.93 217.764 717.292 217.926 717.675 218.016C718.049 218.095 718.429 218.137 718.811 218.141C719.193 218.136 719.573 218.095 719.947 218.016C720.33 217.926 720.692 217.764 721.015 217.539C721.35 217.285 721.628 216.964 721.833 216.596C722.072 216.138 722.215 215.635 722.253 215.12C722.253 214.983 722.253 214.79 722.253 214.552V213.098C722.276 212.87 722.264 212.677 722.253 212.473V212.518Z" fill="#455A64"/>
<path d="M734.168 215.881C734.143 216.401 734.313 216.911 734.646 217.312C734.889 217.517 735.172 217.67 735.476 217.761C735.781 217.853 736.101 217.882 736.418 217.846H738.178C738.28 217.844 738.381 217.863 738.474 217.902C738.568 217.941 738.653 218 738.723 218.073C738.796 218.144 738.854 218.228 738.893 218.322C738.932 218.416 738.952 218.517 738.951 218.618V220.515C738.952 220.617 738.933 220.719 738.895 220.814C738.857 220.909 738.8 220.996 738.728 221.069C738.657 221.142 738.571 221.199 738.476 221.239C738.382 221.279 738.281 221.299 738.178 221.299H736.009C734.506 221.398 733.022 220.928 731.851 219.981C731.333 219.458 730.934 218.829 730.683 218.136C730.432 217.444 730.334 216.705 730.397 215.971V209.792H728.489C728.284 209.786 728.089 209.702 727.945 209.556C727.801 209.409 727.719 209.213 727.717 209.008V207.111C727.719 206.906 727.801 206.71 727.945 206.564C728.089 206.418 728.284 206.334 728.489 206.328H730.397V201.636C730.397 201.432 730.479 201.235 730.623 201.09C730.768 200.945 730.965 200.864 731.17 200.864H733.362C733.464 200.862 733.564 200.882 733.658 200.921C733.752 200.96 733.837 201.018 733.907 201.091C733.98 201.162 734.038 201.247 734.077 201.341C734.116 201.434 734.135 201.535 734.134 201.636V206.328H737.849C738.054 206.336 738.248 206.421 738.394 206.567C738.539 206.712 738.624 206.906 738.633 207.111V209.065C738.624 209.27 738.539 209.465 738.394 209.61C738.248 209.755 738.054 209.841 737.849 209.849H734.134L734.168 215.881Z" fill="#455A64"/>
<path d="M753.047 206.328H757.045C757.15 206.327 757.253 206.348 757.348 206.389C757.444 206.43 757.53 206.49 757.602 206.566C757.675 206.637 757.732 206.722 757.771 206.816C757.811 206.909 757.83 207.01 757.829 207.111V209.065C757.83 209.167 757.811 209.267 757.771 209.361C757.732 209.455 757.675 209.54 757.602 209.61C757.53 209.686 757.444 209.746 757.348 209.787C757.253 209.828 757.15 209.849 757.045 209.849H753.047V220.583C753.049 220.686 753.03 220.787 752.991 220.882C752.953 220.977 752.897 221.064 752.825 221.137C752.753 221.21 752.667 221.268 752.573 221.307C752.478 221.347 752.377 221.367 752.275 221.367H750.082C749.981 221.368 749.88 221.348 749.786 221.309C749.693 221.27 749.608 221.213 749.537 221.14C749.461 221.068 749.401 220.982 749.36 220.886C749.319 220.79 749.298 220.687 749.299 220.583V209.792H747.368C747.265 209.794 747.163 209.773 747.069 209.732C746.975 209.691 746.891 209.63 746.822 209.554C746.747 209.485 746.688 209.4 746.649 209.306C746.61 209.212 746.591 209.11 746.595 209.008V207.111C746.591 207.01 746.61 206.908 746.649 206.814C746.688 206.72 746.747 206.635 746.822 206.566C746.891 206.49 746.975 206.429 747.069 206.388C747.163 206.346 747.265 206.326 747.368 206.328H749.264V205.033C749.242 204.233 749.381 203.437 749.673 202.693C749.912 202.078 750.303 201.535 750.809 201.114C751.343 200.702 751.959 200.407 752.615 200.251C753.383 200.074 754.168 199.99 754.955 200.001H757.295C757.397 199.999 757.498 200.018 757.592 200.057C757.685 200.097 757.77 200.155 757.84 200.228C757.913 200.299 757.971 200.383 758.01 200.477C758.049 200.571 758.069 200.672 758.068 200.773V202.67C758.069 202.772 758.05 202.874 758.012 202.969C757.974 203.064 757.917 203.151 757.845 203.224C757.774 203.297 757.688 203.354 757.593 203.394C757.499 203.434 757.398 203.454 757.295 203.454H755.319C754.736 203.413 754.155 203.548 753.649 203.84C753.436 204.02 753.271 204.25 753.17 204.51C753.069 204.77 753.034 205.051 753.07 205.328L753.047 206.328Z" fill="#455A64"/>
<path d="M766.678 206.044C767.654 206.028 768.625 206.193 769.54 206.532C770.343 206.86 771.079 207.334 771.71 207.929C772.332 208.503 772.841 209.189 773.209 209.951C773.587 210.726 773.807 211.567 773.857 212.427C773.871 212.647 773.871 212.867 773.857 213.086V214.688C773.87 214.903 773.87 215.12 773.857 215.335C773.785 216.193 773.562 217.032 773.198 217.812C772.84 218.57 772.334 219.25 771.71 219.811C771.061 220.391 770.31 220.846 769.495 221.151C768.588 221.457 767.634 221.596 766.678 221.56C765.698 221.576 764.724 221.41 763.804 221.072C762.989 220.767 762.237 220.312 761.589 219.731C760.968 219.17 760.466 218.49 760.112 217.732C759.739 216.955 759.512 216.115 759.442 215.256C759.442 215.085 759.442 214.87 759.442 214.608C759.442 214.347 759.442 214.086 759.442 213.813C759.442 213.541 759.442 213.279 759.442 213.007C759.442 212.734 759.442 212.518 759.442 212.348C759.492 211.488 759.712 210.646 760.09 209.872C760.453 209.142 760.945 208.484 761.543 207.929C762.192 207.345 762.943 206.887 763.758 206.578C764.689 206.218 765.68 206.037 766.678 206.044ZM770.085 212.473C770.05 211.958 769.911 211.456 769.677 210.996C769.475 210.627 769.191 210.308 768.847 210.065C768.534 209.831 768.174 209.668 767.791 209.588C767.419 209.5 767.038 209.455 766.655 209.451C766.272 209.453 765.891 209.499 765.519 209.588C765.133 209.668 764.769 209.831 764.451 210.065C764.108 210.305 763.828 210.625 763.634 210.996C763.39 211.453 763.247 211.956 763.213 212.473C763.213 212.632 763.213 212.825 763.213 213.052C763.213 213.279 763.213 213.529 763.213 213.779C763.213 214.029 763.213 214.268 763.213 214.506C763.203 214.695 763.203 214.885 763.213 215.074C763.246 215.591 763.389 216.094 763.634 216.551C763.831 216.923 764.111 217.246 764.451 217.494C764.774 217.719 765.136 217.88 765.519 217.971C765.893 218.05 766.273 218.092 766.655 218.096C767.037 218.091 767.417 218.049 767.791 217.971C768.17 217.88 768.529 217.718 768.847 217.494C769.189 217.243 769.472 216.921 769.677 216.551C769.912 216.092 770.051 215.589 770.085 215.074C770.1 214.885 770.1 214.695 770.085 214.506V213.098C770.101 212.89 770.101 212.681 770.085 212.473Z" fill="#455A64"/>
<path d="M777.026 207.111C777.029 206.906 777.111 206.71 777.255 206.564C777.398 206.418 777.593 206.334 777.798 206.328H779.991C780.196 206.336 780.39 206.421 780.535 206.567C780.681 206.712 780.766 206.906 780.774 207.111V214.427C780.725 215.4 780.979 216.364 781.501 217.187C781.784 217.548 782.152 217.833 782.572 218.015C782.993 218.198 783.453 218.272 783.909 218.232C784.353 218.257 784.796 218.175 785.201 217.993C785.606 217.812 785.962 217.535 786.238 217.187C786.813 216.385 787.097 215.412 787.044 214.427V207.111C787.053 206.906 787.138 206.712 787.283 206.567C787.428 206.421 787.623 206.336 787.828 206.328H790.009C790.113 206.327 790.216 206.348 790.312 206.389C790.408 206.43 790.494 206.491 790.566 206.566C790.639 206.637 790.696 206.722 790.735 206.816C790.774 206.909 790.794 207.01 790.793 207.111V220.526C790.794 220.63 790.775 220.732 790.736 220.828C790.698 220.924 790.64 221.011 790.567 221.084C790.494 221.157 790.407 221.215 790.311 221.254C790.215 221.292 790.112 221.312 790.009 221.31H787.828C787.727 221.311 787.626 221.292 787.532 221.253C787.439 221.214 787.354 221.156 787.283 221.083C787.207 221.011 787.147 220.925 787.106 220.829C787.065 220.734 787.044 220.631 787.044 220.526V219.868C786.556 220.322 786.005 220.704 785.409 221.003C784.68 221.38 783.866 221.564 783.046 221.537C782.049 221.571 781.056 221.385 780.138 220.992C779.412 220.665 778.779 220.162 778.298 219.527C777.822 218.888 777.485 218.157 777.31 217.38C777.116 216.534 777.02 215.669 777.026 214.801V207.111Z" fill="#455A64"/>
<path d="M808.82 220.526C808.821 220.629 808.802 220.73 808.764 220.825C808.726 220.92 808.669 221.007 808.597 221.08C808.526 221.153 808.44 221.211 808.345 221.25C808.251 221.29 808.15 221.31 808.047 221.31H805.855C805.753 221.311 805.653 221.292 805.559 221.253C805.465 221.213 805.38 221.156 805.31 221.083C805.234 221.011 805.174 220.925 805.133 220.829C805.092 220.734 805.071 220.631 805.071 220.526V213.211C805.124 212.226 804.839 211.253 804.265 210.451C803.964 210.094 803.582 209.814 803.152 209.634C802.721 209.454 802.254 209.38 801.788 209.417C801.337 209.395 800.886 209.477 800.47 209.656C800.055 209.835 799.686 210.107 799.392 210.451C798.771 211.233 798.456 212.214 798.506 213.211V220.526C798.508 220.63 798.489 220.733 798.45 220.828C798.411 220.924 798.353 221.011 798.278 221.083C798.207 221.155 798.122 221.213 798.029 221.252C797.935 221.291 797.835 221.311 797.733 221.31H795.541C795.44 221.311 795.339 221.291 795.245 221.252C795.152 221.213 795.067 221.155 794.996 221.083C794.922 221.011 794.863 220.924 794.824 220.828C794.785 220.733 794.766 220.63 794.769 220.526V207.111C794.765 207.01 794.783 206.908 794.822 206.814C794.861 206.72 794.921 206.635 794.996 206.566C795.065 206.49 795.149 206.43 795.243 206.389C795.337 206.347 795.438 206.327 795.541 206.328H797.733C797.836 206.327 797.937 206.347 798.031 206.389C798.125 206.43 798.21 206.49 798.278 206.566C798.354 206.635 798.413 206.72 798.452 206.814C798.491 206.908 798.51 207.01 798.506 207.111V207.77C799.02 207.263 799.615 206.845 800.266 206.532C801.013 206.188 801.83 206.021 802.652 206.044C803.66 206.01 804.664 206.196 805.594 206.589C806.335 206.918 806.985 207.42 807.491 208.054C807.983 208.687 808.332 209.42 808.513 210.201C808.72 211.045 808.823 211.911 808.82 212.78V220.526Z" fill="#455A64"/>
<path d="M818.407 206.044C818.945 206.037 819.483 206.094 820.008 206.214C820.435 206.314 820.85 206.459 821.246 206.646C821.57 206.799 821.875 206.99 822.155 207.214C822.373 207.379 822.575 207.566 822.757 207.77V201.636C822.757 201.534 822.777 201.433 822.817 201.338C822.856 201.244 822.914 201.158 822.987 201.086C823.06 201.014 823.147 200.958 823.242 200.92C823.337 200.881 823.438 200.863 823.541 200.864H825.744C825.846 200.86 825.948 200.878 826.042 200.918C826.136 200.957 826.221 201.016 826.29 201.091C826.366 201.16 826.427 201.244 826.468 201.338C826.509 201.432 826.53 201.534 826.528 201.636V220.526C826.529 220.631 826.508 220.734 826.467 220.829C826.426 220.925 826.365 221.011 826.29 221.083C826.219 221.156 826.134 221.213 826.04 221.253C825.947 221.292 825.846 221.311 825.744 221.31H823.563C823.46 221.312 823.358 221.292 823.262 221.254C823.166 221.215 823.079 221.157 823.006 221.084C822.933 221.011 822.875 220.924 822.836 220.828C822.797 220.732 822.778 220.63 822.78 220.526V219.868C822.598 220.072 822.396 220.259 822.178 220.424C821.898 220.648 821.593 220.839 821.269 220.992C820.872 221.179 820.457 221.323 820.031 221.424C819.506 221.544 818.968 221.601 818.429 221.594C817.531 221.609 816.641 221.418 815.828 221.038C815.069 220.68 814.392 220.17 813.84 219.538C813.286 218.9 812.848 218.17 812.545 217.38C812.226 216.564 812.045 215.7 812.011 214.824C812.011 214.54 812.011 214.199 812.011 213.825C812.011 213.45 812.011 213.098 812.011 212.814C812.045 211.938 812.226 211.074 812.545 210.258C812.85 209.47 813.288 208.74 813.84 208.1C814.392 207.468 815.069 206.958 815.828 206.6C816.635 206.223 817.516 206.033 818.407 206.044ZM815.726 213.018C815.669 213.554 815.669 214.095 815.726 214.631C815.738 215.642 816.146 216.609 816.862 217.323C817.532 217.874 818.379 218.165 819.247 218.141C820.119 218.165 820.968 217.865 821.632 217.3C821.971 216.998 822.246 216.632 822.441 216.222C822.636 215.813 822.747 215.368 822.768 214.915C822.81 214.538 822.829 214.159 822.825 213.779C822.829 213.4 822.81 213.02 822.768 212.643C822.721 211.757 822.331 210.925 821.68 210.323C821.028 209.72 820.168 209.395 819.281 209.417C818.413 209.394 817.566 209.684 816.896 210.235C816.524 210.597 816.229 211.03 816.029 211.508C815.828 211.986 815.725 212.5 815.726 213.018Z" fill="#455A64"/>
<path d="M661.539 249.685C661.633 249.684 661.726 249.703 661.812 249.74C661.898 249.777 661.975 249.832 662.039 249.901C662.105 249.966 662.158 250.044 662.193 250.13C662.228 250.215 662.245 250.308 662.243 250.401V253.195C662.245 253.288 662.228 253.38 662.193 253.466C662.158 253.552 662.105 253.63 662.039 253.695C661.975 253.764 661.898 253.818 661.812 253.856C661.726 253.893 661.633 253.911 661.539 253.91H649.044C648.95 253.912 648.857 253.894 648.771 253.857C648.685 253.819 648.608 253.764 648.544 253.695C648.477 253.63 648.422 253.553 648.385 253.467C648.348 253.381 648.329 253.288 648.329 253.195V236.156C648.329 236.063 648.348 235.97 648.385 235.884C648.422 235.799 648.477 235.721 648.544 235.657C648.608 235.587 648.685 235.532 648.771 235.495C648.857 235.457 648.95 235.439 649.044 235.441H661.346C661.534 235.446 661.713 235.524 661.846 235.657C661.979 235.79 662.056 235.968 662.062 236.156V238.939C662.063 239.035 662.044 239.13 662.007 239.217C661.97 239.305 661.915 239.385 661.846 239.45C661.781 239.517 661.703 239.569 661.617 239.604C661.531 239.64 661.439 239.657 661.346 239.655H653.213V242.506H660.767C660.861 242.504 660.954 242.523 661.04 242.56C661.126 242.597 661.203 242.652 661.267 242.722C661.334 242.786 661.388 242.864 661.426 242.95C661.463 243.036 661.482 243.128 661.482 243.222V246.016C661.482 246.11 661.463 246.202 661.426 246.288C661.388 246.374 661.334 246.451 661.267 246.516C661.203 246.585 661.126 246.641 661.04 246.678C660.954 246.715 660.861 246.733 660.767 246.732H653.213V249.685H661.539Z" fill="#026571"/>
<path d="M673.148 235.429C674.198 235.415 675.244 235.541 676.26 235.804C677.106 236.029 677.901 236.415 678.6 236.94C679.243 237.44 679.751 238.092 680.077 238.837C680.433 239.681 680.608 240.591 680.588 241.506C680.633 242.66 680.349 243.802 679.77 244.801C679.225 245.672 678.435 246.363 677.499 246.788L680.77 253.07C680.82 253.16 680.847 253.262 680.849 253.365C680.849 253.519 680.788 253.666 680.68 253.775C680.571 253.883 680.424 253.945 680.27 253.945H676.681C676.546 253.958 676.41 253.944 676.281 253.903C676.152 253.862 676.033 253.795 675.931 253.706C675.789 253.564 675.667 253.403 675.568 253.229L672.637 247.549H670.127V253.229C670.128 253.322 670.111 253.414 670.076 253.5C670.041 253.586 669.988 253.664 669.922 253.729C669.859 253.798 669.781 253.852 669.695 253.89C669.609 253.927 669.516 253.946 669.422 253.945H666.015C665.921 253.946 665.828 253.927 665.742 253.89C665.656 253.852 665.578 253.798 665.515 253.729C665.449 253.664 665.396 253.586 665.361 253.5C665.326 253.414 665.309 253.322 665.31 253.229V236.19C665.309 236.098 665.326 236.005 665.361 235.919C665.396 235.833 665.449 235.756 665.515 235.691C665.578 235.622 665.656 235.567 665.742 235.53C665.828 235.493 665.921 235.474 666.015 235.475L673.148 235.429ZM670.161 243.381H673.148C673.788 243.406 674.423 243.261 674.988 242.96C675.237 242.795 675.435 242.565 675.561 242.294C675.688 242.024 675.737 241.724 675.704 241.427C675.737 241.132 675.688 240.833 675.562 240.564C675.436 240.296 675.237 240.067 674.988 239.905C674.423 239.604 673.788 239.459 673.148 239.485H670.127L670.161 243.381Z" fill="#026571"/>
<path d="M691.493 235.429C692.542 235.415 693.589 235.541 694.605 235.804C695.451 236.029 696.245 236.415 696.945 236.94C697.591 237.436 698.099 238.089 698.422 238.837C698.778 239.681 698.952 240.591 698.933 241.506C698.977 242.66 698.694 243.802 698.115 244.801C697.569 245.672 696.779 246.363 695.843 246.788L699.115 253.07C699.165 253.16 699.192 253.262 699.194 253.365C699.194 253.519 699.133 253.666 699.025 253.775C698.916 253.883 698.769 253.945 698.615 253.945H695.025C694.891 253.958 694.755 253.944 694.626 253.903C694.497 253.862 694.378 253.795 694.276 253.706C694.134 253.564 694.012 253.403 693.912 253.229L690.982 247.549H688.562V253.229C688.562 253.322 688.543 253.415 688.505 253.501C688.468 253.587 688.414 253.664 688.346 253.729C688.283 253.798 688.205 253.852 688.119 253.89C688.033 253.927 687.94 253.946 687.847 253.945H684.382C684.288 253.946 684.195 253.927 684.109 253.89C684.023 253.852 683.946 253.798 683.882 253.729C683.816 253.664 683.764 253.586 683.728 253.5C683.693 253.414 683.676 253.322 683.678 253.229V236.19C683.676 236.098 683.693 236.005 683.728 235.919C683.764 235.833 683.816 235.756 683.882 235.691C683.946 235.622 684.023 235.567 684.109 235.53C684.195 235.493 684.288 235.474 684.382 235.475L691.493 235.429ZM688.517 243.381H691.493C692.133 243.406 692.768 243.261 693.333 242.96C693.582 242.795 693.78 242.565 693.906 242.294C694.032 242.024 694.082 241.724 694.049 241.427C694.082 241.132 694.033 240.833 693.907 240.564C693.78 240.296 693.582 240.067 693.333 239.905C692.768 239.604 692.133 239.459 691.493 239.485H688.517V243.381Z" fill="#026571"/>
<path d="M701.364 242.324C701.413 241.366 701.632 240.423 702.011 239.541C702.381 238.678 702.931 237.903 703.624 237.27C704.359 236.596 705.22 236.074 706.157 235.736C708.385 234.979 710.801 234.979 713.029 235.736C713.966 236.077 714.826 236.598 715.562 237.27C716.253 237.904 716.799 238.678 717.164 239.541C717.553 240.42 717.773 241.364 717.812 242.324C717.812 243.074 717.868 243.869 717.868 244.698C717.868 245.528 717.868 246.3 717.812 246.97C717.772 247.934 717.552 248.882 717.164 249.764C716.789 250.622 716.244 251.395 715.562 252.036C714.822 252.711 713.953 253.228 713.007 253.558C710.776 254.301 708.365 254.301 706.135 253.558C705.196 253.228 704.334 252.71 703.601 252.036C702.916 251.395 702.368 250.623 701.988 249.764C701.611 248.878 701.392 247.932 701.341 246.97C701.341 246.255 701.341 245.482 701.341 244.698C701.341 243.915 701.33 243.074 701.364 242.324ZM712.95 246.868C712.95 246.55 712.95 246.198 713.007 245.812C713.063 245.425 713.007 245.028 713.007 244.619C713.007 244.21 713.007 243.824 713.007 243.483C713.007 243.142 713.007 242.767 712.95 242.461C712.921 242.048 712.829 241.642 712.677 241.257C712.535 240.894 712.318 240.565 712.041 240.291C711.752 240.009 711.408 239.789 711.03 239.644C710.572 239.476 710.087 239.395 709.599 239.405C709.115 239.394 708.633 239.475 708.179 239.644C707.797 239.786 707.449 240.006 707.157 240.291C706.884 240.568 706.668 240.896 706.521 241.257C706.369 241.642 706.277 242.048 706.248 242.461C706.248 242.764 706.225 243.104 706.18 243.483C706.18 243.858 706.18 244.255 706.18 244.619C706.18 244.982 706.18 245.425 706.18 245.812C706.18 246.198 706.18 246.55 706.248 246.868C706.291 247.681 706.612 248.455 707.157 249.06C707.48 249.368 707.865 249.604 708.286 249.753C708.707 249.902 709.154 249.96 709.599 249.923C710.042 249.961 710.488 249.903 710.908 249.754C711.327 249.606 711.709 249.369 712.03 249.06C712.565 248.457 712.888 247.695 712.95 246.891V246.868Z" fill="#026571"/>
<path d="M728.796 235.429C729.845 235.416 730.892 235.542 731.908 235.804C732.751 236.028 733.541 236.414 734.237 236.94C734.883 237.439 735.394 238.091 735.725 238.837C736.081 239.681 736.255 240.591 736.236 241.506C736.28 242.66 735.997 243.802 735.418 244.801C734.859 245.682 734.047 246.374 733.089 246.788L736.361 253.07C736.414 253.16 736.445 253.261 736.452 253.365C736.451 253.442 736.434 253.518 736.403 253.588C736.371 253.659 736.326 253.722 736.27 253.774C736.217 253.829 736.153 253.872 736.083 253.902C736.013 253.931 735.937 253.946 735.861 253.945H732.271C732.137 253.958 732.001 253.944 731.872 253.903C731.743 253.862 731.624 253.795 731.522 253.706C731.383 253.564 731.264 253.403 731.17 253.229L728.239 247.549H725.785V253.229C725.78 253.417 725.703 253.596 725.57 253.729C725.437 253.862 725.258 253.939 725.07 253.945H721.662C721.474 253.939 721.295 253.862 721.162 253.729C721.029 253.596 720.952 253.417 720.947 253.229V236.19C720.952 236.002 721.029 235.824 721.162 235.691C721.295 235.558 721.474 235.481 721.662 235.475L728.796 235.429ZM725.808 243.381H728.796C729.432 243.406 730.063 243.261 730.624 242.96C730.877 242.799 731.079 242.569 731.208 242.298C731.336 242.027 731.386 241.725 731.351 241.427C731.385 241.131 731.335 240.831 731.206 240.562C731.078 240.292 730.876 240.065 730.624 239.905C730.063 239.604 729.432 239.459 728.796 239.485H725.785L725.808 243.381Z" fill="#026571"/>
<path d="M753.581 253.91C753.485 253.912 753.391 253.893 753.303 253.856C753.215 253.819 753.135 253.764 753.07 253.695C753.003 253.63 752.951 253.552 752.916 253.466C752.881 253.38 752.864 253.288 752.865 253.195V250.503H744.551C744.458 250.505 744.365 250.487 744.28 250.452C744.194 250.417 744.116 250.365 744.051 250.298C743.981 250.233 743.927 250.153 743.889 250.065C743.852 249.977 743.834 249.883 743.835 249.787V246.993C743.821 246.587 743.941 246.188 744.176 245.857L752.07 235.907C752.189 235.752 752.335 235.621 752.502 235.52C752.676 235.455 752.861 235.424 753.047 235.429H757.034C757.128 235.428 757.221 235.446 757.307 235.483C757.393 235.521 757.471 235.576 757.534 235.645C757.602 235.71 757.656 235.787 757.693 235.873C757.73 235.959 757.749 236.051 757.75 236.145V246.277H760.021C760.21 246.281 760.39 246.358 760.521 246.493C760.588 246.558 760.64 246.636 760.675 246.722C760.71 246.808 760.727 246.9 760.726 246.993V249.787C760.727 249.978 760.654 250.161 760.521 250.298C760.455 250.364 760.377 250.415 760.292 250.45C760.206 250.485 760.114 250.503 760.021 250.503H757.75V253.195C757.749 253.288 757.73 253.381 757.693 253.467C757.656 253.553 757.602 253.63 757.534 253.695C757.471 253.764 757.393 253.819 757.307 253.857C757.221 253.894 757.128 253.912 757.034 253.91H753.581ZM753.047 246.277V241.427L749.196 246.277H753.047Z" fill="#026571"/>
<path d="M770.653 235.191C771.816 235.164 772.973 235.361 774.061 235.77C774.949 236.118 775.754 236.648 776.424 237.326C777.044 237.977 777.52 238.751 777.821 239.598C778.129 240.481 778.313 241.402 778.366 242.336C778.366 243.085 778.366 243.88 778.366 244.71C778.366 245.539 778.366 246.311 778.366 246.981C778.313 247.915 778.129 248.836 777.821 249.719C777.525 250.569 777.049 251.344 776.424 251.991C775.754 252.669 774.949 253.199 774.061 253.547C771.855 254.319 769.452 254.319 767.246 253.547C766.358 253.199 765.553 252.669 764.883 251.991C764.258 251.344 763.781 250.569 763.486 249.719C763.177 248.836 762.994 247.915 762.941 246.981C762.941 246.266 762.941 245.493 762.941 244.71C762.941 243.926 762.941 243.085 762.941 242.336C762.994 241.402 763.177 240.481 763.486 239.598C763.786 238.751 764.263 237.977 764.883 237.326C765.553 236.648 766.358 236.118 767.246 235.77C768.334 235.361 769.491 235.164 770.653 235.191ZM773.493 246.891C773.561 245.391 773.561 243.915 773.493 242.449C773.464 242.042 773.395 241.639 773.289 241.245C773.205 240.896 773.05 240.567 772.834 240.28C772.606 239.999 772.314 239.777 771.982 239.632C771.565 239.46 771.116 239.379 770.665 239.394C770.214 239.38 769.765 239.461 769.347 239.632C769.016 239.777 768.724 239.999 768.495 240.28C768.28 240.569 768.122 240.897 768.029 241.245C767.916 241.637 767.851 242.041 767.836 242.449C767.757 243.929 767.757 245.411 767.836 246.891C767.855 247.3 767.912 247.707 768.007 248.106C768.101 248.456 768.263 248.784 768.484 249.072C768.717 249.349 769.013 249.568 769.347 249.708C769.765 249.879 770.214 249.96 770.665 249.946C771.116 249.961 771.565 249.88 771.982 249.708C772.317 249.568 772.613 249.349 772.846 249.072C773.067 248.784 773.229 248.456 773.323 248.106C773.418 247.707 773.475 247.3 773.493 246.891Z" fill="#026571"/>
<path d="M790.293 253.91C790.105 253.905 789.926 253.827 789.793 253.694C789.66 253.562 789.583 253.383 789.577 253.195V250.503H781.263C781.17 250.504 781.078 250.487 780.992 250.452C780.906 250.417 780.828 250.365 780.763 250.298C780.627 250.162 780.55 249.979 780.547 249.787V246.993C780.531 246.585 780.655 246.184 780.899 245.857L788.782 235.906C788.902 235.749 789.053 235.617 789.225 235.52C789.395 235.454 789.577 235.423 789.759 235.429H793.746C793.934 235.435 794.113 235.512 794.246 235.645C794.379 235.778 794.456 235.957 794.462 236.145V246.277H796.734C796.922 246.283 797.1 246.36 797.233 246.493C797.366 246.626 797.444 246.805 797.449 246.993V249.787C797.446 249.979 797.369 250.162 797.233 250.298C797.168 250.365 797.091 250.417 797.005 250.452C796.919 250.487 796.826 250.504 796.734 250.503H794.462V253.195C794.456 253.383 794.379 253.562 794.246 253.694C794.113 253.827 793.934 253.905 793.746 253.91H790.293ZM789.714 246.277V241.427L785.863 246.277H789.714Z" fill="#026571"/>
</svg>
