<svg width="63" height="48" viewBox="0 0 63 48" fill="none" xmlns="http://www.w3.org/2000/svg">
<path d="M0 9.75484C0.39329 8.38452 1.26503 6.02942 3.25161 3.71613C4.92077 1.7729 6.71226 0.630194 7.89677 0H48.4645C55.8101 1.94013 61.1861 8.00052 61.9355 15.0194C62.8397 23.4875 56.8537 31.9076 47.6903 34.0645C51.9747 38.7097 56.2575 43.3548 60.5419 48H45.6774L33.4452 35.6129C34.1806 35.5757 39.3848 35.2243 42.5806 30.8129C44.5827 28.0506 44.7468 25.1458 44.7484 24C47.6299 23.232 49.8379 21.0472 50.3226 18.4258C50.9791 14.8769 48.4072 10.9285 44.129 9.90968C29.4194 9.85858 14.7097 9.80594 0 9.75484Z" fill="#232D34"/>
<path d="M0 15.0193V39.1741C0.196645 40.1961 0.771097 42.4505 2.63226 44.5935C4.53832 46.7891 6.75406 47.6717 7.74193 47.9999H37.7806L21.2129 30.5032C20.5626 29.5524 18.7773 26.674 18.8903 22.6064C19.0003 18.6673 20.8274 15.9545 21.5226 15.0193H0Z" fill="#232D34"/>
<path d="M32.0515 30.813C36.3273 30.813 39.7934 27.3468 39.7934 23.071C39.7934 18.7953 36.3273 15.3291 32.0515 15.3291C27.7758 15.3291 24.3096 18.7953 24.3096 23.071C24.3096 27.3468 27.7758 30.813 32.0515 30.813Z" fill="#232D34"/>
</svg>
