<svg width="39" height="30" viewBox="0 0 39 30" fill="none" xmlns="http://www.w3.org/2000/svg">
<path d="M0 6.09677C0.245806 5.24032 0.790645 3.76839 2.03226 2.32258C3.07548 1.10806 4.19516 0.393871 4.93548 0H30.2903C34.8813 1.21258 38.2413 5.00032 38.7097 9.3871C39.2748 14.6797 35.5336 19.9423 29.8065 21.2903C32.4842 24.1935 35.161 27.0968 37.8387 30H28.5484L20.9032 22.2581C21.3629 22.2348 24.6155 22.0152 26.6129 19.2581C27.8642 17.5316 27.9668 15.7161 27.9677 15C29.7687 14.52 31.1487 13.1545 31.4516 11.5161C31.8619 9.29806 30.2545 6.83032 27.5806 6.19355C18.3871 6.16161 9.19355 6.12871 0 6.09677Z" fill="white"/>
<path d="M0 9.38708V24.4839C0.122903 25.1226 0.481935 26.5316 1.64516 27.871C2.83645 29.2432 4.22129 29.7948 4.83871 30H23.6129L13.2581 19.0645C12.8516 18.4703 11.7358 16.6713 11.8065 14.129C11.8752 11.6671 13.0171 9.9716 13.4516 9.38708H0Z" fill="white"/>
<path d="M20.0321 19.258C22.7044 19.258 24.8708 17.0917 24.8708 14.4193C24.8708 11.747 22.7044 9.58063 20.0321 9.58063C17.3597 9.58063 15.1934 11.747 15.1934 14.4193C15.1934 17.0917 17.3597 19.258 20.0321 19.258Z" fill="white"/>
</svg>
