<svg width="157" height="22" viewBox="0 0 157 22" fill="none" xmlns="http://www.w3.org/2000/svg">
<path d="M0 17.226V0H7.48268C9.03025 0 10.3638 0.254288 11.4833 0.762864C12.6028 1.25503 13.4672 1.96868 14.0763 2.9038C14.6855 3.83893 14.9901 4.95451 14.9901 6.25056C14.9901 7.5302 14.6855 8.63758 14.0763 9.57271C13.4672 10.4914 12.6028 11.1969 11.4833 11.689C10.3638 12.1812 9.03025 12.4273 7.48268 12.4273H2.22258L4.00064 10.6801V17.226H0ZM10.9894 17.226L6.66773 10.9754H10.94L15.3111 17.226H10.9894ZM4.00064 11.123L2.22258 9.2528H7.26042C8.49518 9.2528 9.41714 8.99031 10.0263 8.46533C10.6354 7.92394 10.94 7.18568 10.94 6.25056C10.94 5.29903 10.6354 4.56078 10.0263 4.03579C9.41714 3.51081 8.49518 3.24832 7.26042 3.24832H2.22258L4.00064 1.35347V11.123Z" fill="#5A5E60"/>
<path d="M24.4817 17.4228C22.9671 17.4228 21.6335 17.1275 20.4811 16.5369C19.3451 15.9463 18.4643 15.1424 17.8387 14.1253C17.2131 13.0917 16.9003 11.9187 16.9003 10.6063C16.9003 9.27741 17.2048 8.1044 17.814 7.08725C18.4396 6.05369 19.2875 5.24981 20.3576 4.67561C21.4277 4.08501 22.6378 3.78971 23.9878 3.78971C25.2884 3.78971 26.4573 4.06861 27.4946 4.6264C28.5482 5.16779 29.3796 5.95526 29.9888 6.98882C30.5979 8.00597 30.9025 9.22819 30.9025 10.6555C30.9025 10.8031 30.8943 10.9754 30.8778 11.1723C30.8613 11.3527 30.8449 11.525 30.8284 11.689H20.0366V9.44967H28.8034L27.3217 10.1141C27.3217 9.42506 27.1817 8.82625 26.9019 8.31767C26.622 7.8091 26.2351 7.41536 25.7412 7.13647C25.2473 6.84116 24.6711 6.69351 24.0125 6.69351C23.354 6.69351 22.7695 6.84116 22.2591 7.13647C21.7652 7.41536 21.3784 7.8173 21.0985 8.34228C20.8186 8.85086 20.6786 9.45787 20.6786 10.1633V10.7539C20.6786 11.4758 20.8351 12.1156 21.1479 12.6734C21.4771 13.2148 21.9299 13.6331 22.5061 13.9284C23.0988 14.2073 23.7903 14.3468 24.5805 14.3468C25.2884 14.3468 25.9058 14.2401 26.4327 14.0268C26.976 13.8136 27.4699 13.4937 27.9144 13.0671L29.9641 15.2819C29.3549 15.9709 28.5894 16.5041 27.6674 16.8814C26.7455 17.2424 25.6836 17.4228 24.4817 17.4228Z" fill="#5A5E60"/>
<path d="M41.5427 3.78971C42.5964 3.78971 43.5348 4.00298 44.358 4.42953C45.1976 4.83967 45.8562 5.47949 46.3336 6.34899C46.811 7.20209 47.0498 8.30127 47.0498 9.64653V17.226H43.1973V10.2371C43.1973 9.17077 42.9586 8.3833 42.4811 7.87472C42.0201 7.36615 41.3616 7.11186 40.5055 7.11186C39.8964 7.11186 39.3448 7.2431 38.8509 7.50559C38.3735 7.75168 37.9948 8.13721 37.7149 8.66219C37.4515 9.18717 37.3198 9.85981 37.3198 10.6801V17.226H33.4673V3.98658H37.1469V7.65324L36.4555 6.54586C36.9329 5.65996 37.6162 4.97912 38.5052 4.50336C39.3942 4.02759 40.4067 3.78971 41.5427 3.78971Z" fill="#5A5E60"/>
<path d="M55.9748 17.4228C54.4108 17.4228 53.1925 17.0291 52.3199 16.2416C51.4473 15.4377 51.011 14.2483 51.011 12.6734V1.05817H54.8635V12.6242C54.8635 13.182 55.0117 13.6167 55.308 13.9284C55.6044 14.2237 56.0077 14.3714 56.5181 14.3714C57.1272 14.3714 57.6458 14.2073 58.0739 13.8792L59.1111 16.5861C58.716 16.865 58.2385 17.0783 57.6788 17.226C57.1355 17.3572 56.5675 17.4228 55.9748 17.4228ZM48.9613 7.2349V4.28188H58.1727V7.2349H48.9613Z" fill="#5A5E60"/>
<path d="M61.2737 17.226V3.98658H64.9533V7.72707L64.4347 6.6443C64.8298 5.70917 65.4636 5.00373 66.3362 4.52796C67.2088 4.03579 68.2707 3.78971 69.5219 3.78971V7.33333C69.3573 7.31693 69.2091 7.30873 69.0774 7.30873C68.9457 7.29232 68.8057 7.28412 68.6576 7.28412C67.6039 7.28412 66.7478 7.58762 66.0893 8.19463C65.4472 8.78524 65.1261 9.71216 65.1261 10.9754V17.226H61.2737Z" fill="#232D34"/>
<path d="M78.0381 17.4228C76.6223 17.4228 75.3628 17.1275 74.2597 16.5369C73.1731 15.9463 72.3088 15.1424 71.6667 14.1253C71.0411 13.0917 70.7283 11.9187 70.7283 10.6063C70.7283 9.27741 71.0411 8.1044 71.6667 7.08725C72.3088 6.05369 73.1731 5.24981 74.2597 4.67561C75.3628 4.08501 76.6223 3.78971 78.0381 3.78971C79.4375 3.78971 80.6887 4.08501 81.7918 4.67561C82.8949 5.24981 83.7592 6.04549 84.3848 7.06264C85.0104 8.07979 85.3232 9.261 85.3232 10.6063C85.3232 11.9187 85.0104 13.0917 84.3848 14.1253C83.7592 15.1424 82.8949 15.9463 81.7918 16.5369C80.6887 17.1275 79.4375 17.4228 78.0381 17.4228ZM78.0381 14.2729C78.6802 14.2729 79.2564 14.1253 79.7668 13.83C80.2772 13.5347 80.6805 13.1163 80.9769 12.5749C81.2732 12.0172 81.4214 11.3609 81.4214 10.6063C81.4214 9.8352 81.2732 9.17897 80.9769 8.63758C80.6805 8.0962 80.2772 7.67785 79.7668 7.38255C79.2564 7.08725 78.6802 6.9396 78.0381 6.9396C77.396 6.9396 76.8198 7.08725 76.3094 7.38255C75.7991 7.67785 75.3875 8.0962 75.0747 8.63758C74.7783 9.17897 74.6302 9.8352 74.6302 10.6063C74.6302 11.3609 74.7783 12.0172 75.0747 12.5749C75.3875 13.1163 75.7991 13.5347 76.3094 13.83C76.8198 14.1253 77.396 14.2729 78.0381 14.2729Z" fill="#232D34"/>
<path d="M92.3681 17.4228C91.2322 17.4228 90.1373 17.2916 89.0837 17.0291C88.0465 16.7502 87.2233 16.4057 86.6141 15.9955L87.8983 13.2394C88.5074 13.6167 89.2236 13.9284 90.0468 14.1745C90.8864 14.4042 91.7096 14.519 92.5163 14.519C93.4053 14.519 94.031 14.4124 94.3932 14.1991C94.7718 13.9858 94.9612 13.6905 94.9612 13.3132C94.9612 13.0015 94.813 12.7718 94.5166 12.6242C94.2368 12.4601 93.8581 12.3371 93.3807 12.255C92.9032 12.173 92.3764 12.091 91.8001 12.0089C91.2404 11.9269 90.6724 11.8203 90.0962 11.689C89.52 11.5414 88.9931 11.3281 88.5157 11.0492C88.0382 10.7703 87.6513 10.393 87.355 9.91723C87.0751 9.44146 86.9352 8.82625 86.9352 8.07159C86.9352 7.2349 87.1739 6.49664 87.6513 5.85682C88.1452 5.217 88.8532 4.71663 89.7751 4.35571C90.6971 3.97838 91.8002 3.78971 93.0843 3.78971C93.9898 3.78971 94.9118 3.88814 95.8502 4.08501C96.7886 4.28188 97.5706 4.56898 98.1962 4.94631L96.9121 7.67785C96.27 7.30052 95.6197 7.04623 94.9612 6.91499C94.3191 6.76734 93.6935 6.69351 93.0843 6.69351C92.2282 6.69351 91.6026 6.80835 91.2075 7.03803C90.8123 7.26771 90.6148 7.56301 90.6148 7.92394C90.6148 8.25205 90.7547 8.49814 91.0346 8.66219C91.3309 8.82625 91.7178 8.95749 92.1953 9.05593C92.6727 9.15436 93.1913 9.24459 93.7511 9.32662C94.3273 9.39225 94.9035 9.49888 95.4798 9.64653C96.056 9.79418 96.5746 10.0075 97.0356 10.2864C97.513 10.5488 97.8999 10.918 98.1962 11.3937C98.4926 11.8531 98.6408 12.4601 98.6408 13.2148C98.6408 14.035 98.3938 14.7651 97.8999 15.4049C97.406 16.0283 96.6898 16.5205 95.7514 16.8814C94.8294 17.2424 93.7017 17.4228 92.3681 17.4228Z" fill="#232D34"/>
<path d="M108.871 17.4228C107.751 17.4228 106.772 17.1767 105.932 16.6846C105.092 16.1924 104.434 15.4459 103.956 14.4452C103.495 13.428 103.265 12.1484 103.265 10.6063C103.265 9.04773 103.487 7.76808 103.932 6.76734C104.376 5.76659 105.018 5.02013 105.858 4.52796C106.698 4.03579 107.702 3.78971 108.871 3.78971C110.122 3.78971 111.242 4.07681 112.229 4.65101C113.234 5.2088 114.024 5.99627 114.6 7.01342C115.193 8.03057 115.489 9.22819 115.489 10.6063C115.489 12.0007 115.193 13.2066 114.6 14.2237C114.024 15.2409 113.234 16.0283 112.229 16.5861C111.242 17.1439 110.122 17.4228 108.871 17.4228ZM101.018 22V3.98658H104.697V6.69351L104.623 10.6309L104.87 14.5436V22H101.018ZM108.204 14.2729C108.846 14.2729 109.414 14.1253 109.908 13.83C110.418 13.5347 110.822 13.1163 111.118 12.5749C111.431 12.0172 111.587 11.3609 111.587 10.6063C111.587 9.8352 111.431 9.17897 111.118 8.63758C110.822 8.0962 110.418 7.67785 109.908 7.38255C109.414 7.08725 108.846 6.9396 108.204 6.9396C107.562 6.9396 106.986 7.08725 106.475 7.38255C105.965 7.67785 105.562 8.0962 105.265 8.63758C104.969 9.17897 104.821 9.8352 104.821 10.6063C104.821 11.3609 104.969 12.0172 105.265 12.5749C105.562 13.1163 105.965 13.5347 106.475 13.83C106.986 14.1253 107.562 14.2729 108.204 14.2729Z" fill="#232D34"/>
<path d="M124.662 17.4228C123.147 17.4228 121.813 17.1275 120.661 16.5369C119.525 15.9463 118.644 15.1424 118.019 14.1253C117.393 13.0917 117.08 11.9187 117.08 10.6063C117.08 9.27741 117.385 8.1044 117.994 7.08725C118.62 6.05369 119.467 5.24981 120.538 4.67561C121.608 4.08501 122.818 3.78971 124.168 3.78971C125.468 3.78971 126.637 4.06861 127.675 4.6264C128.728 5.16779 129.56 5.95526 130.169 6.98882C130.778 8.00597 131.082 9.22819 131.082 10.6555C131.082 10.8031 131.074 10.9754 131.058 11.1723C131.041 11.3527 131.025 11.525 131.008 11.689H120.217V9.44967H128.983L127.502 10.1141C127.502 9.42506 127.362 8.82625 127.082 8.31767C126.802 7.8091 126.415 7.41536 125.921 7.13647C125.427 6.84116 124.851 6.69351 124.192 6.69351C123.534 6.69351 122.949 6.84116 122.439 7.13647C121.945 7.41536 121.558 7.8173 121.278 8.34228C120.999 8.85086 120.859 9.45787 120.859 10.1633V10.7539C120.859 11.4758 121.015 12.1156 121.328 12.6734C121.657 13.2148 122.11 13.6331 122.686 13.9284C123.279 14.2073 123.97 14.3468 124.76 14.3468C125.468 14.3468 126.086 14.2401 126.613 14.0268C127.156 13.8136 127.65 13.4937 128.094 13.0671L130.144 15.2819C129.535 15.9709 128.769 16.5041 127.847 16.8814C126.925 17.2424 125.864 17.4228 124.662 17.4228Z" fill="#232D34"/>
<path d="M140.068 17.4228C138.636 17.4228 137.36 17.1357 136.24 16.5615C135.121 15.9709 134.24 15.1588 133.598 14.1253C132.972 13.0917 132.66 11.9187 132.66 10.6063C132.66 9.27741 132.972 8.1044 133.598 7.08725C134.24 6.05369 135.121 5.24981 136.24 4.67561C137.36 4.08501 138.636 3.78971 140.068 3.78971C141.467 3.78971 142.686 4.08501 143.723 4.67561C144.76 5.24981 145.526 6.0783 146.02 7.16107L143.032 8.76063C142.686 8.13721 142.25 7.67785 141.723 7.38255C141.212 7.08725 140.653 6.9396 140.043 6.9396C139.385 6.9396 138.792 7.08725 138.265 7.38255C137.738 7.67785 137.319 8.0962 137.006 8.63758C136.71 9.17897 136.561 9.8352 136.561 10.6063C136.561 11.3773 136.71 12.0336 137.006 12.5749C137.319 13.1163 137.738 13.5347 138.265 13.83C138.792 14.1253 139.385 14.2729 140.043 14.2729C140.653 14.2729 141.212 14.1335 141.723 13.8546C142.25 13.5593 142.686 13.0917 143.032 12.4519L146.02 14.0761C145.526 15.1424 144.76 15.9709 143.723 16.5615C142.686 17.1357 141.467 17.4228 140.068 17.4228Z" fill="#232D34"/>
<path d="M153.864 17.4228C152.3 17.4228 151.081 17.0291 150.209 16.2416C149.336 15.4377 148.9 14.2483 148.9 12.6734V1.05817H152.752V12.6242C152.752 13.182 152.901 13.6167 153.197 13.9284C153.493 14.2237 153.897 14.3714 154.407 14.3714C155.016 14.3714 155.535 14.2073 155.963 13.8792L157 16.5861C156.605 16.865 156.127 17.0783 155.568 17.226C155.024 17.3572 154.456 17.4228 153.864 17.4228ZM146.85 7.2349V4.28188H156.062V7.2349H146.85Z" fill="#232D34"/>
</svg>
