<svg width="43" height="43" viewBox="0 0 43 43" fill="none" xmlns="http://www.w3.org/2000/svg">
<path fill-rule="evenodd" clip-rule="evenodd" d="M21.5 3C11.2827 3 3 11.2827 3 21.5C3 26.7895 5.21877 31.5606 8.78055 34.9339C9.29383 33.3005 10.1547 31.8016 11.6128 30.6137C13.767 28.8587 16.9612 28 21.4999 28C26.0387 28 29.2329 28.8587 31.3871 30.6137C32.8452 31.8017 33.706 33.3006 34.2193 34.9341C37.7812 31.5608 40 26.7896 40 21.5C40 11.2827 31.7173 3 21.5 3ZM31.6429 36.9743C31.2977 35.2006 30.6502 33.883 29.4922 32.9395C28.1123 31.8154 25.7374 31 21.4999 31C17.2624 31 14.8875 31.8154 13.5077 32.9395C12.3496 33.883 11.7022 35.2005 11.3569 36.9742C14.2692 38.8874 17.7528 40 21.5 40C25.2471 40 28.7307 38.8874 31.6429 36.9743ZM0 21.5C0 9.62588 9.62588 0 21.5 0C33.3741 0 43 9.62588 43 21.5C43 28.6436 39.5145 34.9734 34.1579 38.8807C30.6068 41.471 26.2297 43 21.5 43C16.7702 43 12.3931 41.4709 8.8419 38.8805C3.48541 34.9732 0 28.6436 0 21.5ZM21.5 13C19.0147 13 17 15.0147 17 17.5C17 19.9853 19.0147 22 21.5 22C23.9853 22 26 19.9853 26 17.5C26 15.0147 23.9853 13 21.5 13ZM14 17.5C14 13.3579 17.3579 10 21.5 10C25.6421 10 29 13.3579 29 17.5C29 21.6421 25.6421 25 21.5 25C17.3579 25 14 21.6421 14 17.5Z" fill="#5A5E60"/>
</svg>
