<svg width="43" height="43" viewBox="0 0 43 43" fill="none" xmlns="http://www.w3.org/2000/svg">
<path fill-rule="evenodd" clip-rule="evenodd" d="M12.1278 1.50248e-06C10.9879 -3.46191e-05 10.02 -6.5282e-05 9.22012 0.0826337C8.3685 0.170686 7.58144 0.361889 6.8379 0.821426C6.09435 1.28096 5.57135 1.89942 5.11174 2.62175C4.68007 3.30018 4.24726 4.16587 3.73749 5.18549L3.7045 5.25147C3.68505 5.29036 3.66731 5.33008 3.65131 5.37051L0.844086 12.4668C0.510057 13.3112 0.139891 14.3646 0.0316434 15.4425C-0.079078 16.5451 0.0728699 17.8083 0.936787 18.9038C1.94142 20.1778 3.50365 21 5.25711 21C6.83314 21 8.25434 20.3371 9.25711 19.2749C10.2599 20.3371 11.6811 21 13.2571 21C14.8331 21 16.2543 20.3371 17.2571 19.2749C18.2599 20.3371 19.6811 21 21.2571 21C22.8331 21 24.2543 20.3371 25.2571 19.2749C26.2599 20.3371 27.6811 21 29.2571 21C30.8331 21 32.2543 20.3371 33.2571 19.2749C34.2599 20.3371 35.6811 21 37.2571 21C39.0106 21 40.5728 20.1778 41.5775 18.9038C42.4415 17.8083 42.5934 16.5452 42.4827 15.4426C42.3745 14.3646 42.0043 13.3112 41.6703 12.4668L38.8631 5.37051C38.8471 5.33008 38.8293 5.29036 38.8099 5.25147L38.777 5.18561C38.2672 4.16594 37.8343 3.30021 37.4026 2.62175C36.943 1.89942 36.42 1.28096 35.6765 0.821426C34.9329 0.361889 34.1459 0.170686 33.2943 0.0826337C32.4944 -6.5282e-05 31.5266 -3.46191e-05 30.3867 1.50248e-06H12.1278ZM13.2571 18C11.8764 18 10.7571 16.8807 10.7571 15.5C10.7571 14.6716 10.0855 14 9.25711 14C8.42868 14 7.75711 14.6716 7.75711 15.5C7.75711 16.8807 6.63782 18 5.25711 18C4.4612 18 3.75269 17.6298 3.29245 17.0461C3.06461 16.7572 2.95441 16.3619 3.01663 15.7423C3.08132 15.0981 3.31919 14.3655 3.63374 13.5704L6.41695 6.53478C6.95239 5.46408 7.3102 4.75497 7.64281 4.23224C7.96277 3.7294 8.19203 3.51124 8.41509 3.37338C8.63815 3.23552 8.93581 3.12802 9.52866 3.06673C10.1561 3.00185 10.9679 3.00001 12.2016 3.00001H30.3128C31.5464 3.00001 32.3583 3.00185 32.9857 3.06673C33.5786 3.12802 33.8762 3.23552 34.0993 3.37338C34.3224 3.51124 34.5516 3.7294 34.8716 4.23224C35.2042 4.75497 35.562 5.46408 36.0974 6.53478L38.8807 13.5704C39.1952 14.3655 39.4331 15.0981 39.4977 15.7423C39.56 16.3619 39.4498 16.7572 39.2219 17.0461C38.7616 17.6297 38.053 18 37.2571 18C35.8764 18 34.7571 16.8807 34.7571 15.5C34.7571 14.6716 34.0855 14 33.2571 14C32.4287 14 31.7571 14.6716 31.7571 15.5C31.7571 16.8807 30.6378 18 29.2571 18C27.8764 18 26.7571 16.8807 26.7571 15.5C26.7571 14.6716 26.0855 14 25.2571 14C24.4287 14 23.7571 14.6716 23.7571 15.5C23.7571 16.8807 22.6378 18 21.2571 18C19.8764 18 18.7571 16.8807 18.7571 15.5C18.7571 14.6716 18.0855 14 17.2571 14C16.4287 14 15.7571 14.6716 15.7571 15.5C15.7571 16.8807 14.6378 18 13.2571 18Z" fill="#5A5E60"/>
<path d="M36.7573 27.5C36.7573 26.6716 36.0857 26 35.2573 26C34.4289 26 33.7573 26.6716 33.7573 27.5V40H8.75728V27.5C8.75728 26.6716 8.08571 26 7.25728 26C6.42886 26 5.75728 26.6716 5.75728 27.5V40H3.25728C2.42886 40 1.75728 40.6716 1.75728 41.5C1.75728 42.3284 2.42886 43 3.25728 43H39.2573C40.0857 43 40.7573 42.3284 40.7573 41.5C40.7573 40.6716 40.0857 40 39.2573 40H36.7573V27.5Z" fill="#5A5E60"/>
</svg>
