<svg width="54" height="48" viewBox="0 0 54 48" fill="none" xmlns="http://www.w3.org/2000/svg">
<path fill-rule="evenodd" clip-rule="evenodd" d="M23.5779 31.0471H19.7939L22.1607 18.2323H25.9444L23.5779 31.0471Z" fill="#0742A6"/>
<path fill-rule="evenodd" clip-rule="evenodd" d="M37.296 18.5456C36.5496 18.2863 35.3659 18 33.9021 18C30.1654 18 27.534 19.7449 27.5179 22.2396C27.4869 24.0801 29.4019 25.1024 30.8342 25.7161C32.2981 26.3433 32.7957 26.7526 32.7957 27.3116C32.7808 28.1701 31.6128 28.5658 30.5234 28.5658C29.0127 28.5658 28.2032 28.3618 26.9731 27.8841L26.4748 27.6794L25.9453 30.556C26.8328 30.9101 28.4678 31.2243 30.1654 31.238C34.1357 31.238 36.7206 29.5201 36.7512 26.8616C36.7663 25.4029 35.7551 24.2851 33.575 23.3717C32.2515 22.7853 31.441 22.39 31.441 21.79C31.4566 21.2446 32.1266 20.686 33.6205 20.686C34.8506 20.6587 35.7545 20.9176 36.4391 21.1767L36.7814 21.3128L37.296 18.5456Z" fill="#0742A6"/>
<path fill-rule="evenodd" clip-rule="evenodd" d="M44.068 18.2323H46.9948L50.0475 31.0469H46.5439C46.5439 31.0469 46.2011 29.5745 46.0924 29.1246H41.2342C41.0937 29.4652 40.4401 31.0469 40.4401 31.0469H36.4697L42.0902 19.2955C42.4797 18.4639 43.1654 18.2323 44.068 18.2323ZM43.8355 22.9218C43.8355 22.9218 42.6364 25.7711 42.3248 26.5072H45.47C45.3144 25.8665 44.5978 22.7991 44.5978 22.7991L44.3334 21.6949C44.222 21.9793 44.061 22.3702 43.9523 22.6338C43.8787 22.8126 43.8292 22.9328 43.8355 22.9218Z" fill="#0742A6"/>
<path fill-rule="evenodd" clip-rule="evenodd" d="M16.6341 18.2323L12.9284 26.9707L12.5235 25.1985C11.8384 23.1535 9.68976 20.9317 7.29199 19.827L10.6863 31.0335H14.6876L20.6353 18.2323H16.6341V18.2323Z" fill="#0742A6"/>
<path fill-rule="evenodd" clip-rule="evenodd" d="M9.48664 18.2323H3.39871L3.33643 18.4912C8.0854 19.5547 11.2305 22.118 12.5227 25.199L11.1993 19.3095C10.9814 18.491 10.3118 18.2593 9.48664 18.2323Z" fill="#0742A6"/>
</svg>
