<svg width="16" height="16" viewBox="0 0 16 16" fill="none" xmlns="http://www.w3.org/2000/svg">
<path fill-rule="evenodd" clip-rule="evenodd" d="M4.66634 1.16663C4.94248 1.16663 5.16634 1.39048 5.16634 1.66663V2.17511C5.6077 2.16662 6.09394 2.16662 6.62873 2.16663H9.37062C9.90541 2.16662 10.3917 2.16662 10.833 2.17511V1.66663C10.833 1.39048 11.0569 1.16663 11.333 1.16663C11.6092 1.16663 11.833 1.39048 11.833 1.66663V2.21802C12.0063 2.23123 12.1704 2.24784 12.3257 2.26872C13.1073 2.3738 13.7399 2.59521 14.2388 3.09412C14.7378 3.59303 14.9592 4.22566 15.0643 5.00728C15.0978 5.25707 15.1204 5.52968 15.1355 5.82667C15.1554 5.88067 15.1663 5.93904 15.1663 5.99996C15.1663 6.04617 15.1601 6.09092 15.1483 6.1334C15.1664 6.66805 15.1663 7.27513 15.1663 7.96235V9.3709C15.1664 10.5961 15.1664 11.5665 15.0643 12.326C14.9592 13.1076 14.7378 13.7402 14.2388 14.2391C13.7399 14.738 13.1073 14.9595 12.3257 15.0645C11.5662 15.1666 10.5958 15.1666 9.37062 15.1666H6.62873C5.40356 15.1666 4.43314 15.1666 3.67366 15.0645C2.89204 14.9595 2.25941 14.738 1.7605 14.2391C1.26159 13.7402 1.04018 13.1076 0.935098 12.326C0.832989 11.5665 0.832997 10.5961 0.833008 9.3709V7.96235C0.833002 7.27513 0.832997 6.66805 0.851014 6.13341C0.839278 6.09092 0.833008 6.04617 0.833008 5.99996C0.833008 5.93904 0.843904 5.88066 0.863854 5.82667C0.878977 5.52968 0.901514 5.25707 0.935098 5.00728C1.04018 4.22566 1.26159 3.59303 1.7605 3.09412C2.25941 2.59521 2.89205 2.3738 3.67366 2.26872C3.82894 2.24784 3.99305 2.23123 4.16634 2.21802V1.66663C4.16634 1.39048 4.3902 1.16663 4.66634 1.16663ZM1.84173 6.49996C1.83322 6.93511 1.83301 7.43062 1.83301 7.99996V9.33329C1.83301 10.6045 1.83407 11.5076 1.92618 12.1927C2.01636 12.8635 2.18547 13.2499 2.46761 13.532C2.74975 13.8142 3.13618 13.9833 3.80691 14.0735C4.49202 14.1656 5.39513 14.1666 6.66634 14.1666H9.33301C10.6042 14.1666 11.5073 14.1656 12.1924 14.0735C12.8632 13.9833 13.2496 13.8142 13.5317 13.532C13.8139 13.2499 13.983 12.8635 14.0732 12.1927C14.1653 11.5076 14.1663 10.6045 14.1663 9.33329V7.99996C14.1663 7.43062 14.1661 6.93511 14.1576 6.49996H1.84173ZM14.1119 5.49996H1.88746C1.89814 5.3737 1.91091 5.25412 1.92618 5.14052C2.01636 4.4698 2.18547 4.08337 2.46761 3.80123C2.74975 3.51909 3.13618 3.34998 3.80691 3.2598C4.49202 3.16769 5.39513 3.16663 6.66634 3.16663H9.33301C10.6042 3.16663 11.5073 3.16769 12.1924 3.2598C12.8632 3.34998 13.2496 3.51909 13.5317 3.80123C13.8139 4.08337 13.983 4.4698 14.0732 5.14053C14.0884 5.25412 14.1012 5.3737 14.1119 5.49996Z" fill="#ADB5BD"/>
</svg>
