<svg width="16" height="16" viewBox="0 0 16 16" fill="none" xmlns="http://www.w3.org/2000/svg">
<g clip-path="url(#clip0_542_3917)">
<path fill-rule="evenodd" clip-rule="evenodd" d="M8.00065 1.83337C4.59489 1.83337 1.83398 4.59428 1.83398 8.00004C1.83398 11.4058 4.59489 14.1667 8.00065 14.1667C11.4064 14.1667 14.1673 11.4058 14.1673 8.00004C14.1673 4.59428 11.4064 1.83337 8.00065 1.83337ZM0.833984 8.00004C0.833984 4.042 4.04261 0.833374 8.00065 0.833374C11.9587 0.833374 15.1673 4.042 15.1673 8.00004C15.1673 11.9581 11.9587 15.1667 8.00065 15.1667C4.04261 15.1667 0.833984 11.9581 0.833984 8.00004ZM8.00065 4.83337C8.27679 4.83337 8.50065 5.05723 8.50065 5.33337V7.79293L10.0209 9.31315C10.2161 9.50842 10.2161 9.825 10.0209 10.0203C9.82561 10.2155 9.50903 10.2155 9.31376 10.0203L7.6471 8.35359C7.55333 8.25983 7.50065 8.13265 7.50065 8.00004V5.33337C7.50065 5.05723 7.72451 4.83337 8.00065 4.83337Z" fill="#3E4E50"/>
</g>
<defs>
<clipPath id="clip0_542_3917">
<rect width="16" height="16" fill="white"/>
</clipPath>
</defs>
</svg>
