<svg width="23" height="21" viewBox="0 0 23 21" fill="none" xmlns="http://www.w3.org/2000/svg">
<path fill-rule="evenodd" clip-rule="evenodd" d="M6.61294 2.32985C6.89089 0.965398 8.10509 0 9.49619 0H12.8996C14.2908 0 15.5049 0.965398 15.7829 2.32985C15.8471 2.64484 16.1324 2.87589 16.4292 2.87589H16.4462L16.4633 2.87664C17.9252 2.94056 19.0481 3.11996 19.9856 3.73498C20.5762 4.12247 21.0843 4.62101 21.4802 5.20275C21.9728 5.92653 22.19 6.75723 22.2941 7.76193C22.3959 8.74353 22.3958 9.97396 22.3958 11.5323V11.6211C22.3958 13.1795 22.3959 14.4099 22.2941 15.3915C22.19 16.3962 21.9728 17.2269 21.4802 17.9507C21.0843 18.5324 20.5762 19.0309 19.9856 19.4184C19.2528 19.8992 18.4127 20.1111 17.3938 20.2129C16.3962 20.3125 15.1448 20.3125 13.5557 20.3125H8.84017C7.25102 20.3125 5.99965 20.3125 5.00204 20.2129C3.98312 20.1111 3.14304 19.8992 2.41026 19.4184C1.8196 19.0309 1.31151 18.5324 0.915613 17.9507C0.42304 17.2269 0.205787 16.3962 0.101689 15.3915C-1.60964e-05 14.4099 -8.95458e-06 13.1794 1.72383e-07 11.6211V11.5324C-8.95458e-06 9.97396 -1.60964e-05 8.74353 0.101689 7.76193C0.205787 6.75723 0.42304 5.92653 0.915613 5.20275C1.31151 4.62101 1.8196 4.12247 2.41026 3.73498C3.34774 3.11996 4.47062 2.94056 5.93253 2.87664L5.94959 2.87589H5.96666C6.26342 2.87589 6.54878 2.64484 6.61294 2.32985ZM9.49619 1.5625C8.82836 1.5625 8.26985 2.02395 8.144 2.64174C7.94019 3.64228 7.05313 4.42902 5.98576 4.43831C4.58096 4.50072 3.8285 4.67329 3.26733 5.04143C2.84697 5.3172 2.48699 5.67094 2.20735 6.08184C1.91969 6.50453 1.74683 7.04505 1.65587 7.92296C1.56348 8.81465 1.5625 9.96417 1.5625 11.5767C1.5625 13.1892 1.56348 14.3388 1.65587 15.2305C1.74683 16.1084 1.91969 16.6489 2.20735 17.0716C2.48699 17.4825 2.84697 17.8362 3.26733 18.112C3.70226 18.3973 4.25879 18.5684 5.15733 18.6581C6.06822 18.7491 7.2416 18.75 8.8831 18.75H13.5127C15.1542 18.75 16.3276 18.7491 17.2385 18.6581C18.137 18.5684 18.6936 18.3973 19.1285 18.112C19.5489 17.8362 19.9088 17.4825 20.1885 17.0716C20.4761 16.6489 20.649 16.1084 20.74 15.2305C20.8324 14.3388 20.8333 13.1892 20.8333 11.5767C20.8333 9.96417 20.8324 8.81465 20.74 7.92296C20.649 7.04505 20.4761 6.50453 20.1885 6.08184C19.9088 5.67094 19.5489 5.3172 19.1285 5.04143C18.5673 4.67329 17.8149 4.50072 16.4101 4.43831C15.3427 4.42902 14.4556 3.64228 14.2518 2.64174C14.126 2.02395 13.5675 1.5625 12.8996 1.5625H9.49619ZM11.1979 7.29167C11.6294 7.29167 11.9792 7.64144 11.9792 8.07292V10.4167H14.3229C14.7544 10.4167 15.1042 10.7664 15.1042 11.1979C15.1042 11.6294 14.7544 11.9792 14.3229 11.9792H11.9792V14.3229C11.9792 14.7544 11.6294 15.1042 11.1979 15.1042C10.7664 15.1042 10.4167 14.7544 10.4167 14.3229V11.9792H8.07292C7.64145 11.9792 7.29167 11.6294 7.29167 11.1979C7.29167 10.7664 7.64145 10.4167 8.07292 10.4167H10.4167V8.07292C10.4167 7.64144 10.7664 7.29167 11.1979 7.29167ZM16.6667 8.07292C16.6667 7.64144 17.0164 7.29167 17.4479 7.29167H18.4896C18.9211 7.29167 19.2708 7.64144 19.2708 8.07292C19.2708 8.50439 18.9211 8.85417 18.4896 8.85417H17.4479C17.0164 8.85417 16.6667 8.50439 16.6667 8.07292Z" fill="#3F484A"/>
</svg>
