<svg width="16" height="16" viewBox="0 0 16 16" fill="none" xmlns="http://www.w3.org/2000/svg">
<path fill-rule="evenodd" clip-rule="evenodd" d="M8.00004 5.49984C6.61933 5.49984 5.50004 6.61913 5.50004 7.99984C5.50004 9.38055 6.61933 10.4998 8.00004 10.4998C9.38075 10.4998 10.5 9.38055 10.5 7.99984C10.5 6.61913 9.38075 5.49984 8.00004 5.49984ZM6.50004 7.99984C6.50004 7.17141 7.17161 6.49984 8.00004 6.49984C8.82847 6.49984 9.50004 7.17141 9.50004 7.99984C9.50004 8.82826 8.82847 9.49984 8.00004 9.49984C7.17161 9.49984 6.50004 8.82826 6.50004 7.99984Z" fill="black"/>
<path fill-rule="evenodd" clip-rule="evenodd" d="M8.00004 2.1665C4.99062 2.1665 2.96357 3.9693 1.78709 5.49775L1.76587 5.5253C1.4998 5.87086 1.25475 6.18912 1.0885 6.56544C0.91047 6.96842 0.833374 7.40763 0.833374 7.99984C0.833374 8.59205 0.91047 9.03126 1.0885 9.43424C1.25475 9.81056 1.4998 10.1288 1.76587 10.4744L1.78709 10.5019C2.96357 12.0304 4.99062 13.8332 8.00004 13.8332C11.0095 13.8332 13.0365 12.0304 14.213 10.5019L14.2342 10.4744C14.5003 10.1288 14.7453 9.81056 14.9116 9.43424C15.0896 9.03126 15.1667 8.59205 15.1667 7.99984C15.1667 7.40763 15.0896 6.96842 14.9116 6.56544C14.7453 6.18911 14.5003 5.87085 14.2342 5.52529L14.213 5.49775C13.0365 3.9693 11.0095 2.1665 8.00004 2.1665ZM2.57952 6.1077C3.6658 4.69645 5.43361 3.1665 8.00004 3.1665C10.5665 3.1665 12.3343 4.69645 13.4206 6.1077C13.7129 6.48756 13.8842 6.71454 13.9969 6.96954C14.1021 7.20785 14.1667 7.49913 14.1667 7.99984C14.1667 8.50055 14.1021 8.79183 13.9969 9.03014C13.8842 9.28513 13.7129 9.51211 13.4206 9.89197C12.3343 11.3032 10.5665 12.8332 8.00004 12.8332C5.43361 12.8332 3.6658 11.3032 2.57952 9.89197C2.28713 9.51211 2.11586 9.28513 2.00321 9.03014C1.89793 8.79183 1.83337 8.50055 1.83337 7.99984C1.83337 7.49913 1.89793 7.20785 2.00321 6.96954C2.11586 6.71454 2.28713 6.48756 2.57952 6.1077Z" fill="black"/>
</svg>
