<svg width="23" height="24" viewBox="0 0 23 24" fill="none" xmlns="http://www.w3.org/2000/svg">
<path d="M5.48916 13.8775L4.86261 16.2165L2.57258 16.2649C1.88819 14.9955 1.5 13.5432 1.5 11.9998C1.5 10.5074 1.86295 9.10006 2.50631 7.86084H2.5068L4.54557 8.23462L5.43868 10.2612C5.25175 10.8061 5.14987 11.3911 5.14987 11.9998C5.14994 12.6605 5.26961 13.2935 5.48916 13.8775Z" fill="#FBBB00"/>
<path d="M19.3431 10.3184C19.4465 10.8628 19.5003 11.425 19.5003 11.9997C19.5003 12.644 19.4326 13.2725 19.3035 13.8788C18.8654 15.9419 17.7206 17.7433 16.1348 19.0182L16.1343 19.0177L13.5663 18.8866L13.2029 16.6178C14.2552 16.0007 15.0776 15.0349 15.5108 13.8788H10.6982V10.3184H15.581H19.3431Z" fill="#518EF8"/>
<path d="M16.1335 19.0183L16.134 19.0188C14.5917 20.2585 12.6324 21.0002 10.4996 21.0002C7.07225 21.0002 4.09238 19.0845 2.57227 16.2654L5.48885 13.8779C6.24889 15.9064 8.20564 17.3503 10.4996 17.3503C11.4857 17.3503 12.4094 17.0838 13.2021 16.6185L16.1335 19.0183Z" fill="#28B446"/>
<path d="M16.2442 5.07196L13.3286 7.45892C12.5082 6.94613 11.5384 6.64991 10.4995 6.64991C8.15358 6.64991 6.16023 8.16011 5.43826 10.2613L2.50635 7.86096H2.50586C4.00372 4.97307 7.02117 3 10.4995 3C12.6832 3 14.6855 3.77786 16.2442 5.07196Z" fill="#F14336"/>
</svg>
