<svg width="20" height="20" viewBox="0 0 20 20" fill="none" xmlns="http://www.w3.org/2000/svg">
<path fill-rule="evenodd" clip-rule="evenodd" d="M3.6792 14.8825C3.97738 14.7086 4.36007 14.8094 4.53395 15.1075C5.223 16.2892 6.27641 17.1827 7.57548 17.7625C7.89069 17.9032 8.03217 18.2728 7.89149 18.588C7.7508 18.9032 7.38123 19.0447 7.06602 18.904C5.55643 18.2303 4.28993 17.1705 3.45414 15.7372C3.28025 15.4391 3.38102 15.0564 3.6792 14.8825Z" fill="#3F484A"/>
<path fill-rule="evenodd" clip-rule="evenodd" d="M15.7559 3.26824C14.9109 2.40535 13.706 2.08706 12.5263 2.42271C12.1943 2.51717 11.8486 2.32461 11.7542 1.99261C11.6597 1.66061 11.8522 1.3149 12.1842 1.22043C13.7994 0.760853 15.4798 1.19962 16.649 2.39371C16.8905 2.64034 16.8863 3.03605 16.6397 3.27754C16.3931 3.51904 15.9974 3.51487 15.7559 3.26824Z" fill="#3F484A"/>
<path fill-rule="evenodd" clip-rule="evenodd" d="M9.32616 2.75695C9.14778 2.45105 8.62794 2.26554 8.09987 2.56733C7.57374 2.86802 7.48121 3.39806 7.65649 3.69863L9.7612 7.30789C9.93508 7.60608 9.83432 7.98876 9.53613 8.16264C9.23795 8.33653 8.85527 8.23576 8.68139 7.93758L5.8751 3.12523C5.69672 2.81933 5.17688 2.63381 4.64882 2.93561C4.12269 3.2363 4.03015 3.76633 4.20543 4.0669L7.3625 9.4808C7.53638 9.77898 7.43562 10.1617 7.13743 10.3356C6.83925 10.5094 6.45657 10.4087 6.28269 10.1105L4.87954 7.70431C4.70116 7.39841 4.18132 7.2129 3.65326 7.51469C3.12713 7.81538 3.03459 8.34542 3.20987 8.64599L6.36694 14.0599C7.70772 16.3591 11.0164 17.1053 13.8222 15.5017C16.626 13.8993 17.6227 10.698 16.2851 8.40412L14.1804 4.79485C14.002 4.48895 13.4821 4.30344 12.9541 4.60524C12.4279 4.90592 12.3354 5.43596 12.5107 5.73653L13.9138 8.14271C13.9978 8.28672 14.0208 8.45831 13.9776 8.61933C13.9345 8.78035 13.8288 8.91746 13.684 9.00018C12.3987 9.73479 12.0047 11.1552 12.5675 12.1202C12.7414 12.4184 12.6406 12.8011 12.3424 12.975C12.0442 13.1489 11.6616 13.0481 11.4877 12.7499C10.7271 11.4456 11.0344 9.87508 12.0168 8.765C12.2914 8.45467 12.3855 8.00326 12.1767 7.64527L9.32616 2.75695Z" fill="#3F484A"/>
</svg>
