<svg width="25" height="25" viewBox="0 0 25 25" fill="none" xmlns="http://www.w3.org/2000/svg">
<path fill-rule="evenodd" clip-rule="evenodd" d="M9.11458 3.64587C9.11458 3.2144 9.46436 2.86462 9.89583 2.86462H15.1042C15.5356 2.86462 15.8854 3.2144 15.8854 3.64587C15.8854 4.07735 15.5356 4.42712 15.1042 4.42712H9.89583C9.46436 4.42712 9.11458 4.07735 9.11458 3.64587ZM10.3732 5.46902H14.6265C16.0528 5.46901 17.1829 5.469 18.0853 5.56081C19.0099 5.65487 19.7819 5.85172 20.4571 6.3029C20.9974 6.66389 21.4612 7.12776 21.8222 7.66802C22.2734 8.34322 22.4703 9.11504 22.5644 10.0396C22.6563 10.9424 22.6563 12.073 22.6562 13.5001V13.585C22.6563 15.0113 22.6563 16.1414 22.5645 17.0438C22.4704 17.9685 22.2735 18.7404 21.8224 19.4156C21.4614 19.9559 20.9975 20.4198 20.4572 20.7807C19.782 21.2319 19.0101 21.4288 18.0855 21.5228C17.183 21.6146 16.0529 21.6146 14.6266 21.6146H10.3734C8.9471 21.6146 7.81699 21.6146 6.91453 21.5228C5.9899 21.4288 5.21798 21.2319 4.54275 20.7807C4.00249 20.4198 3.53862 19.9559 3.17762 19.4156C2.72645 18.7404 2.5296 17.9685 2.43554 17.0438C2.34373 16.1414 2.34374 15.0113 2.34375 13.585V13.4964C2.34374 12.0708 2.34373 10.9412 2.43552 10.0391C2.52956 9.11479 2.72639 8.34311 3.17747 7.66802C3.53846 7.12776 4.00233 6.66389 4.5426 6.3029C5.21783 5.85172 5.98974 5.65487 6.91437 5.56081C7.81683 5.469 8.94693 5.46901 10.3732 5.46902ZM7.0725 7.11529C6.27142 7.19678 5.78638 7.35103 5.41068 7.60207C5.04102 7.84906 4.72364 8.16645 4.47664 8.5361C4.22567 8.91171 4.07146 9.39655 3.98999 10.1973C3.9072 11.011 3.90625 12.0612 3.90625 13.5398V13.5417C3.90625 15.0209 3.90719 16.0716 3.99002 16.8857C4.07151 17.6868 4.22576 18.1718 4.4768 18.5475C4.72379 18.9172 5.04118 19.2346 5.41083 19.4816C5.78653 19.7326 6.27157 19.8869 7.07266 19.9684C7.8868 20.0512 8.93743 20.0521 10.4167 20.0521H14.5833C16.0626 20.0521 17.1132 20.0512 17.9273 19.9684C18.7284 19.8869 19.2135 19.7326 19.5892 19.4816C19.9588 19.2346 20.2762 18.9172 20.5232 18.5475C20.7742 18.1718 20.9285 17.6868 21.01 16.8857C21.0928 16.0716 21.0938 15.0209 21.0938 13.5417C21.0938 12.0625 21.0928 11.0119 21.0099 10.1979C20.9284 9.39686 20.7741 8.91184 20.523 8.5361C20.2761 8.16645 19.9587 7.84906 19.589 7.60207C19.2133 7.35103 18.7283 7.19678 17.9272 7.11529C17.113 7.03247 16.0624 7.03152 14.5832 7.03152H10.4165C8.93727 7.03152 7.88665 7.03247 7.0725 7.11529ZM12.5 11.198C11.2056 11.198 10.1562 12.2473 10.1562 13.5417C10.1562 14.8361 11.2056 15.8855 12.5 15.8855C13.7944 15.8855 14.8438 14.8361 14.8438 13.5417C14.8438 12.2473 13.7944 11.198 12.5 11.198ZM8.59375 13.5417C8.59375 11.3843 10.3426 9.63546 12.5 9.63546C14.6574 9.63546 16.4062 11.3843 16.4062 13.5417C16.4062 15.6991 14.6574 17.448 12.5 17.448C10.3426 17.448 8.59375 15.6991 8.59375 13.5417ZM17.4479 10.4167C17.4479 9.98523 17.7977 9.63546 18.2292 9.63546H18.75C19.1815 9.63546 19.5312 9.98523 19.5312 10.4167C19.5312 10.8482 19.1815 11.198 18.75 11.198H18.2292C17.7977 11.198 17.4479 10.8482 17.4479 10.4167Z" fill="#3F484A"/>
</svg>
