<svg width="16" height="16" viewBox="0 0 16 16" fill="none" xmlns="http://www.w3.org/2000/svg">
<g clip-path="url(#clip0_670_4977)">
<path opacity="0.5" d="M7 14.6665V13.3332M9.66667 14.6665V13.3332" stroke="black" stroke-width="1.5" stroke-linecap="round"/>
<path d="M7.33325 13.3333V14.0833H8.08325V13.3333H7.33325ZM9.33325 12.5833C8.91904 12.5833 8.58325 12.9191 8.58325 13.3333C8.58325 13.7475 8.91904 14.0833 9.33325 14.0833V13.3333V12.5833ZM11.6666 3.25C11.2524 3.25 10.9166 3.58579 10.9166 4C10.9166 4.41421 11.2524 4.75 11.6666 4.75V4V3.25ZM4.66658 3.25C4.25237 3.25 3.91658 3.58579 3.91658 4C3.91658 4.41421 4.25237 4.75 4.66658 4.75V4V3.25ZM5.99992 12.5833C5.5857 12.5833 5.24992 12.9191 5.24992 13.3333C5.24992 13.7475 5.5857 14.0833 5.99992 14.0833V13.3333V12.5833ZM9.99992 14.0833C10.4141 14.0833 10.7499 13.7475 10.7499 13.3333C10.7499 12.9191 10.4141 12.5833 9.99992 12.5833V13.3333V14.0833ZM7.33325 7.5H6.58325V13.3333H7.33325H8.08325V7.5H7.33325ZM7.33325 13.3333V12.5833H2.82162V13.3333V14.0833H7.33325V13.3333ZM1.33325 11.5969H2.08325V7.5H1.33325H0.583252V11.5969H1.33325ZM2.82162 13.3333V12.5833C2.51813 12.5833 2.08325 12.2543 2.08325 11.5969H1.33325H0.583252C0.583252 12.8575 1.48111 14.0833 2.82162 14.0833V13.3333ZM4.33325 4V4.75C5.47159 4.75 6.58325 5.86859 6.58325 7.5H7.33325H8.08325C8.08325 5.26542 6.50862 3.25 4.33325 3.25V4ZM4.33325 4V3.25C2.15788 3.25 0.583252 5.26542 0.583252 7.5H1.33325H2.08325C2.08325 5.86859 3.19491 4.75 4.33325 4.75V4ZM14.6666 7.5H13.9166V11.6169H14.6666H15.4166V7.5H14.6666ZM13.1953 13.3333V12.5833H9.33325V13.3333V14.0833H13.1953V13.3333ZM14.6666 11.6169H13.9166C13.9166 12.2633 13.4894 12.5833 13.1953 12.5833V13.3333V14.0833C14.5264 14.0833 15.4166 12.8664 15.4166 11.6169H14.6666ZM14.6666 7.5H15.4166C15.4166 5.26542 13.842 3.25 11.6666 3.25V4V4.75C12.8049 4.75 13.9166 5.86859 13.9166 7.5H14.6666ZM4.66658 4V4.75H11.9999V4V3.25H4.66658V4ZM5.99992 13.3333V14.0833H9.99992V13.3333V12.5833H5.99992V13.3333Z" fill="black"/>
<path d="M3.33325 10.6665H5.33325" stroke="black" stroke-width="1.5" stroke-linecap="round"/>
<path opacity="0.5" d="M10.6667 6.58971V3.60763M10.6667 3.60763V1.75695C10.6667 1.59953 10.7785 1.46425 10.933 1.43446L11.2571 1.37202C11.6493 1.29645 12.0548 1.33253 12.4275 1.47616L12.4803 1.4965C12.8498 1.6389 13.2539 1.6655 13.6389 1.57277C13.823 1.52843 14.0001 1.66795 14.0001 1.85732V3.33832C14.0001 3.4963 13.8918 3.6337 13.7383 3.6707L13.6939 3.68139C13.2731 3.78274 12.8314 3.75367 12.4275 3.59802C12.0548 3.45439 11.6493 3.41831 11.2571 3.49388L10.6667 3.60763Z" stroke="black" stroke-width="1.5" stroke-linecap="round"/>
</g>
<defs>
<clipPath id="clip0_670_4977">
<rect width="16" height="16" fill="white"/>
</clipPath>
</defs>
</svg>
