<svg width="16" height="16" viewBox="0 0 16 16" fill="none" xmlns="http://www.w3.org/2000/svg">
<path fill-rule="evenodd" clip-rule="evenodd" d="M2.16602 6.76218C2.16602 3.49616 4.76936 0.833313 7.99935 0.833313C11.2293 0.833313 13.8327 3.49616 13.8327 6.76218C13.8327 8.33891 13.3833 10.0319 12.589 11.4946C11.7956 12.9554 10.6364 14.2248 9.18636 14.9026C8.43306 15.2547 7.56564 15.2547 6.81234 14.9026C5.36226 14.2248 4.20309 12.9554 3.40972 11.4946C2.61537 10.0319 2.16602 8.33891 2.16602 6.76218ZM7.99935 1.83331C5.3383 1.83331 3.16602 4.03163 3.16602 6.76218C3.16602 8.16022 3.56777 9.69025 4.28849 11.0173C5.01018 12.3461 6.03003 13.4331 7.23578 13.9966C7.72072 14.2233 8.27798 14.2233 8.76292 13.9966C9.96867 13.4331 10.9885 12.3461 11.7102 11.0173C12.4309 9.69025 12.8327 8.16022 12.8327 6.76218C12.8327 4.03163 10.6604 1.83331 7.99935 1.83331ZM7.99935 5.16665C7.17092 5.16665 6.49935 5.83822 6.49935 6.66665C6.49935 7.49507 7.17092 8.16665 7.99935 8.16665C8.82778 8.16665 9.49935 7.49507 9.49935 6.66665C9.49935 5.83822 8.82778 5.16665 7.99935 5.16665ZM5.49935 6.66665C5.49935 5.28593 6.61864 4.16665 7.99935 4.16665C9.38006 4.16665 10.4993 5.28593 10.4993 6.66665C10.4993 8.04736 9.38006 9.16665 7.99935 9.16665C6.61864 9.16665 5.49935 8.04736 5.49935 6.66665Z" fill="#3F484A"/>
</svg>
