<svg width="11" height="14" viewBox="0 0 11 14" fill="none" xmlns="http://www.w3.org/2000/svg">
<path fill-rule="evenodd" clip-rule="evenodd" d="M5.16667 0C3.41776 0 2 1.41777 2 3.16667C2 4.91557 3.41776 6.33333 5.16667 6.33333C6.91557 6.33333 8.33333 4.91557 8.33333 3.16667C8.33333 1.41777 6.91557 0 5.16667 0ZM3 3.16667C3 1.97005 3.97005 1 5.16667 1C6.36328 1 7.33333 1.97005 7.33333 3.16667C7.33333 4.36328 6.36328 5.33333 5.16667 5.33333C3.97005 5.33333 3 4.36328 3 3.16667Z" fill="black"/>
<path fill-rule="evenodd" clip-rule="evenodd" d="M5.16667 7.33333C3.80711 7.33333 2.55168 7.64717 1.61877 8.18026C0.699998 8.70527 0 9.50676 0 10.5C0 11.4932 0.699998 12.2947 1.61877 12.8197C2.55168 13.3528 3.80711 13.6667 5.16667 13.6667C6.52622 13.6667 7.78165 13.3528 8.71457 12.8197C9.63334 12.2947 10.3333 11.4932 10.3333 10.5C10.3333 9.50676 9.63334 8.70527 8.71457 8.18026C7.78165 7.64717 6.52622 7.33333 5.16667 7.33333ZM1 10.5C1 10.0205 1.34467 9.48864 2.1149 9.0485C2.87099 8.61645 3.94889 8.33333 5.16667 8.33333C6.38444 8.33333 7.46234 8.61645 8.21843 9.0485C8.98866 9.48864 9.33333 10.0205 9.33333 10.5C9.33333 10.9795 8.98866 11.5114 8.21843 11.9515C7.46234 12.3835 6.38444 12.6667 5.16667 12.6667C3.94889 12.6667 2.87099 12.3835 2.1149 11.9515C1.34467 11.5114 1 10.9795 1 10.5Z" fill="black"/>
</svg>
