<svg width="16" height="16" viewBox="0 0 16 16" fill="none" xmlns="http://www.w3.org/2000/svg">
<path d="M8.50008 6.6665C8.50008 6.39036 8.27622 6.1665 8.00008 6.1665C7.72393 6.1665 7.50008 6.39036 7.50008 6.6665V7.13396L7.09513 6.90016C6.85598 6.76209 6.55019 6.84403 6.41211 7.08317C6.27404 7.32232 6.35598 7.62811 6.59513 7.76618L6.99975 7.99979L6.59497 8.23349C6.35582 8.37156 6.27389 8.67736 6.41196 8.9165C6.55003 9.15565 6.85582 9.23759 7.09497 9.09952L7.50008 8.86563V9.33317C7.50008 9.60931 7.72393 9.83317 8.00008 9.83317C8.27622 9.83317 8.50008 9.60931 8.50008 9.33317V8.86601L8.90453 9.09952C9.14367 9.23759 9.44947 9.15565 9.58754 8.9165C9.72561 8.67736 9.64367 8.37156 9.40453 8.23349L8.99975 7.99979L9.40437 7.76618C9.64352 7.62811 9.72546 7.32232 9.58738 7.08317C9.44931 6.84403 9.14352 6.76209 8.90437 6.90016L8.50008 7.13358V6.6665Z" fill="black"/>
<path d="M4.48836 6.1665C4.7645 6.1665 4.98836 6.39036 4.98836 6.6665V7.13358L5.39265 6.90016C5.6318 6.76209 5.9376 6.84403 6.07567 7.08317C6.21374 7.32232 6.1318 7.62811 5.89265 7.76618L5.48803 7.99979L5.89281 8.23349C6.13196 8.37156 6.21389 8.67736 6.07582 8.9165C5.93775 9.15565 5.63196 9.23759 5.39281 9.09952L4.98836 8.86601V9.33317C4.98836 9.60931 4.7645 9.83317 4.48836 9.83317C4.21221 9.83317 3.98836 9.60931 3.98836 9.33317V8.86563L3.58325 9.09952C3.34411 9.23759 3.03831 9.15565 2.90024 8.9165C2.76217 8.67736 2.84411 8.37156 3.08325 8.23349L3.48803 7.99979L3.08341 7.76618C2.84426 7.62811 2.76233 7.32232 2.9004 7.08317C3.03847 6.84403 3.34426 6.76209 3.58341 6.90016L3.98836 7.13396V6.6665C3.98836 6.39036 4.21221 6.1665 4.48836 6.1665Z" fill="black"/>
<path d="M12.012 6.6665C12.012 6.39036 11.7881 6.1665 11.512 6.1665C11.2358 6.1665 11.012 6.39036 11.012 6.6665V7.13396L10.607 6.90016C10.3679 6.76209 10.0621 6.84403 9.924 7.08317C9.78593 7.32232 9.86787 7.62811 10.107 7.76618L10.5116 7.99979L10.1069 8.23349C9.86771 8.37156 9.78577 8.67736 9.92385 8.9165C10.0619 9.15565 10.3677 9.23759 10.6069 9.09952L11.012 8.86563V9.33317C11.012 9.60931 11.2358 9.83317 11.512 9.83317C11.7881 9.83317 12.012 9.60931 12.012 9.33317V8.86601L12.4164 9.09952C12.6556 9.23759 12.9614 9.15565 13.0994 8.9165C13.2375 8.67736 13.1556 8.37156 12.9164 8.23349L12.5116 7.99979L12.9163 7.76618C13.1554 7.62811 13.2373 7.32232 13.0993 7.08317C12.9612 6.84403 12.6554 6.76209 12.4163 6.90016L12.012 7.13358V6.6665Z" fill="black"/>
<path fill-rule="evenodd" clip-rule="evenodd" d="M6.62897 2.1665C5.40381 2.16649 4.43338 2.16649 3.6739 2.26859C2.89229 2.37368 2.25966 2.59509 1.76075 3.094C1.26184 3.59291 1.04043 4.22554 0.935342 5.00716C0.833234 5.76663 0.833242 6.73705 0.833252 7.96222V8.03745C0.833242 9.26262 0.833234 10.233 0.935342 10.9925C1.04043 11.7741 1.26184 12.4068 1.76075 12.9057C2.25966 13.4046 2.89229 13.626 3.6739 13.7311C4.43337 13.8332 5.40379 13.8332 6.62895 13.8332H9.37086C10.596 13.8332 11.5665 13.8332 12.3259 13.7311C13.1075 13.626 13.7402 13.4046 14.2391 12.9057C14.738 12.4068 14.9594 11.7741 15.0645 10.9925C15.1666 10.233 15.1666 9.26264 15.1666 8.03748V7.96223C15.1666 6.73707 15.1666 5.76663 15.0645 5.00716C14.9594 4.22554 14.738 3.59291 14.2391 3.094C13.7402 2.59509 13.1075 2.37368 12.3259 2.26859C11.5665 2.16649 10.596 2.16649 9.37087 2.1665H6.62897ZM2.46785 3.80111C2.74999 3.51897 3.13643 3.34985 3.80715 3.25968C4.49226 3.16757 5.39537 3.1665 6.66659 3.1665H9.33325C10.6045 3.1665 11.5076 3.16757 12.1927 3.25968C12.8634 3.34985 13.2498 3.51897 13.532 3.80111C13.8141 4.08325 13.9832 4.46968 14.0734 5.1404C14.1655 5.82551 14.1666 6.72862 14.1666 7.99984C14.1666 9.27105 14.1655 10.1742 14.0734 10.8593C13.9832 11.53 13.8141 11.9164 13.532 12.1986C13.2498 12.4807 12.8634 12.6498 12.1927 12.74C11.5076 12.8321 10.6045 12.8332 9.33325 12.8332H6.66658C5.39537 12.8332 4.49226 12.8321 3.80715 12.74C3.13643 12.6498 2.74999 12.4807 2.46785 12.1986C2.18571 11.9164 2.0166 11.53 1.92643 10.8593C1.83431 10.1742 1.83325 9.27105 1.83325 7.99984C1.83325 6.72862 1.83431 5.82551 1.92643 5.1404C2.0166 4.46968 2.18571 4.08325 2.46785 3.80111Z" fill="black"/>
</svg>
