<svg width="12" height="12" viewBox="0 0 12 12" fill="none" xmlns="http://www.w3.org/2000/svg">
<path fill-rule="evenodd" clip-rule="evenodd" d="M1.17163 0.770263C2.29168 -0.349783 4.18178 -0.264638 4.96165 1.13278L5.39433 1.90806C5.90361 2.82061 5.68658 3.972 4.94105 4.72665C4.93112 4.74025 4.87849 4.81687 4.87194 4.95075C4.86357 5.12163 4.92426 5.51681 5.53655 6.1291C6.14863 6.74118 6.54377 6.80202 6.71472 6.79371C6.8487 6.78719 6.92538 6.73454 6.93901 6.72459C7.69366 5.97906 8.84504 5.76204 9.75758 6.27132L10.5329 6.70399C11.9303 7.48387 12.0154 9.37396 10.8954 10.494C10.2963 11.0931 9.49967 11.6254 8.56353 11.6609C7.17625 11.7135 4.87275 11.3553 2.59157 9.07408C0.310376 6.79289 -0.047882 4.4894 0.00470968 3.10211C0.0401983 2.16598 0.572527 1.36937 1.17163 0.770263ZM4.08843 1.62011C3.68909 0.904545 2.61596 0.740149 1.87874 1.47737C1.36184 1.99427 1.0258 2.56481 1.00399 3.14C0.960134 4.29689 1.24576 6.31406 3.29867 8.36697C5.35158 10.4199 7.36875 10.7055 8.52565 10.6617C9.10083 10.6398 9.67138 10.3038 10.1883 9.7869C10.9255 9.04968 10.7611 7.97655 10.0455 7.57721L9.27025 7.14453C8.78798 6.87539 8.11057 6.9672 7.63502 7.44272L7.63487 7.44287C7.58816 7.48955 7.29095 7.76686 6.7633 7.79253C6.22316 7.8188 5.56933 7.5761 4.82944 6.8362C4.0893 6.09607 3.84668 5.44206 3.87313 4.90184C3.89897 4.37417 4.17645 4.0771 4.22288 4.03066L4.2229 4.03064C4.69845 3.5551 4.79026 2.87767 4.52111 2.39539L4.08843 1.62011Z" fill="#3E4E50"/>
</svg>
