<svg width="20" height="20" viewBox="0 0 20 20" fill="none" xmlns="http://www.w3.org/2000/svg">
<path d="M11.553 4.81949C11.2915 4.79246 10.9533 4.79169 10.4392 4.79169H9.99936C9.65418 4.79169 9.37436 4.51187 9.37436 4.16669C9.37436 3.82151 9.65418 3.54169 9.99936 3.54169H10.47H10.47C10.945 3.54167 11.3482 3.54166 11.6815 3.57612C12.0364 3.61281 12.3643 3.69247 12.6741 3.88395C12.9839 4.07542 13.2018 4.33311 13.3933 4.63408C13.5622 4.89946 13.7315 5.2336 13.9273 5.62502L14.8896 5.62502C15.1261 5.625 15.3433 5.62498 15.5242 5.64124C15.7198 5.65881 15.933 5.69917 16.1393 5.81701C16.3656 5.94626 16.5531 6.13379 16.6824 6.36009C16.8002 6.56642 16.8406 6.7796 16.8581 6.97517C16.8744 7.15612 16.8744 7.3733 16.8744 7.60981V7.60984V7.63396L16.8744 7.68774C16.8749 7.90421 16.8755 8.13598 16.8052 8.35594C16.7582 8.50329 16.6879 8.6422 16.5972 8.76748C16.4618 8.95452 16.2749 9.09156 16.1003 9.21955L16.057 9.25138L15.8257 9.42177L16.2316 10.2336C17.7691 10.4295 18.9577 11.7426 18.9577 13.3334C18.9577 15.0592 17.5586 16.4584 15.8327 16.4584C14.3208 16.4584 13.0597 15.3848 12.7702 13.9584H8.47852C8.18897 15.3848 6.92788 16.4584 5.41603 16.4584C3.90155 16.4584 2.6387 15.381 2.35204 13.9509C1.65245 13.8801 1.10094 13.3186 1.04552 12.6144C1.04095 12.5563 1.04099 12.4934 1.04102 12.4327L1.04103 12.4167L1.04103 12.3849C1.04101 12.1057 1.041 11.9282 1.05323 11.7728C1.206 9.83171 2.74772 8.28999 4.68879 8.13722C4.8442 8.12499 5.02174 8.125 5.30094 8.12502L5.3327 8.12502L5.87602 8.12502H5.87603C6.62476 8.125 7.24911 8.12498 7.74476 8.19161C8.26792 8.26195 8.74026 8.41668 9.11981 8.79624C9.49937 9.17579 9.6541 9.64813 9.72444 10.1713C9.79107 10.6669 9.79105 11.2913 9.79103 12.04L9.79103 12.7084H12.7702C12.9971 11.5908 13.8203 10.6898 14.8933 10.352L12.8617 6.28882C12.6318 5.82908 12.4798 5.52686 12.3387 5.30512C12.2054 5.0956 12.1099 5.0047 12.0169 4.94726C11.924 4.88982 11.8 4.84503 11.553 4.81949Z" fill="#3F484A"/>
</svg>
