<svg width="20" height="16" viewBox="0 0 20 16" fill="none" xmlns="http://www.w3.org/2000/svg">
<path fill-rule="evenodd" clip-rule="evenodd" d="M0 8.5V7.5C0 4.21252 0 2.56878 0.907958 1.46243C1.07418 1.25989 1.25989 1.07418 1.46243 0.907958C2.56878 0 4.21252 0 7.5 0C10.7875 0 12.4312 0 13.5376 0.907958C13.7401 1.07418 13.9258 1.25989 14.092 1.46243C14.7936 2.3173 14.9531 3.49303 14.9893 5.50002L15.6584 5.17082C17.6042 4.19788 18.5772 3.7114 19.2886 4.15107C20 4.59075 20 5.67853 20 7.8541V8.1459C20 10.3215 20 11.4093 19.2886 11.8489C18.5772 12.2886 17.6042 11.8021 15.6584 10.8292L14.9893 10.5C14.9531 12.507 14.7936 13.6827 14.092 14.5376C13.9258 14.7401 13.7401 14.9258 13.5376 15.092C12.4312 16 10.7875 16 7.5 16C4.21252 16 2.56878 16 1.46243 15.092C1.25989 14.9258 1.07418 14.7401 0.907958 14.5376C0 13.4312 0 11.7875 0 8.5ZM11.5607 5.56066C12.1464 4.97487 12.1464 4.02513 11.5607 3.43934C10.9749 2.85355 10.0251 2.85355 9.43934 3.43934C8.85355 4.02513 8.85355 4.97487 9.43934 5.56066C10.0251 6.14645 10.9749 6.14645 11.5607 5.56066Z" fill="#3F484A"/>
</svg>
