<svg width="22" height="18" viewBox="0 0 22 18" fill="none" xmlns="http://www.w3.org/2000/svg">
<path d="M17.75 8.75C17.75 9.30229 17.3023 9.75 16.75 9.75C16.1977 9.75 15.75 9.30229 15.75 8.75C15.75 8.19772 16.1977 7.75 16.75 7.75C17.3023 7.75 17.75 8.19772 17.75 8.75Z" fill="#7E8EA7"/>
<path fill-rule="evenodd" clip-rule="evenodd" d="M8.69358 3.21614e-07H11.8064C13.6442 -1.55332e-05 15.0998 -2.81632e-05 16.239 0.153135C17.4114 0.310763 18.3604 0.64288 19.1088 1.39124C20.0331 2.31563 20.3277 3.55363 20.4347 5.16008C21.0119 5.4141 21.4478 5.9513 21.4958 6.63179C21.5001 6.69199 21.5 6.75687 21.5 6.81701C21.5 6.82249 21.5 6.82794 21.5 6.83333V10.6667C21.5 10.6721 21.5 10.6775 21.5 10.683C21.5 10.7431 21.5001 10.808 21.4958 10.8682C21.4478 11.5487 21.0119 12.0859 20.4347 12.3399C20.3277 13.9464 20.0331 15.1844 19.1088 16.1088C18.3604 16.8571 17.4114 17.1892 16.239 17.3469C15.0998 17.5 13.6442 17.5 11.8064 17.5H8.69359C6.85583 17.5 5.40019 17.5 4.26098 17.3469C3.08856 17.1892 2.13961 16.8571 1.39124 16.1088C0.64288 15.3604 0.310763 14.4114 0.153135 13.239C-2.81632e-05 12.0998 -1.55332e-05 10.6442 3.21614e-07 8.80642V8.69358C-1.55332e-05 6.85582 -2.81632e-05 5.40019 0.153135 4.26098C0.310763 3.08856 0.64288 2.13961 1.39124 1.39124C2.13961 0.64288 3.08856 0.310763 4.26098 0.153135C5.40019 -2.81632e-05 6.85582 -1.55332e-05 8.69358 3.21614e-07ZM18.9179 12.5H16.9808C14.8356 12.5 13 10.8724 13 8.75C13 6.62756 14.8356 5 16.9808 5H18.9179C18.8041 3.65855 18.5466 2.95043 18.0481 2.4519C17.6249 2.02869 17.0452 1.77502 16.0392 1.63976C15.0115 1.50159 13.6568 1.5 11.75 1.5H8.75C6.84318 1.5 5.48851 1.50159 4.46085 1.63976C3.45476 1.77502 2.87511 2.02869 2.4519 2.4519C2.02869 2.87511 1.77502 3.45476 1.63976 4.46085C1.50159 5.48851 1.5 6.84318 1.5 8.75C1.5 10.6568 1.50159 12.0115 1.63976 13.0392C1.77502 14.0452 2.02869 14.6249 2.4519 15.0481C2.87511 15.4713 3.45476 15.725 4.46085 15.8602C5.48851 15.9984 6.84318 16 8.75 16H11.75C13.6568 16 15.0115 15.9984 16.0392 15.8602C17.0452 15.725 17.6249 15.4713 18.0481 15.0481C18.5466 14.5496 18.8041 13.8415 18.9179 12.5ZM19.6735 6.50023C19.6532 6.50001 19.6266 6.5 19.5833 6.5H16.9808C15.5574 6.5 14.5 7.55873 14.5 8.75C14.5 9.94127 15.5574 11 16.9808 11H19.5833C19.6266 11 19.6532 11 19.6735 10.9998C19.686 10.9996 19.6926 10.9995 19.6957 10.9993L19.6979 10.9992C19.9041 10.9867 19.9927 10.8476 19.9995 10.7639C19.9995 10.7639 19.9997 10.7576 19.9998 10.7486C20 10.7308 20 10.7072 20 10.6667V6.83333C20 6.79282 20 6.76917 19.9998 6.75143C19.9997 6.74238 19.9995 6.73609 19.9995 6.73609C19.9927 6.65242 19.9041 6.5133 19.6979 6.50076C19.6979 6.50076 19.693 6.50043 19.6735 6.50023ZM5.75 5C6.16421 5 6.5 5.33579 6.5 5.75V11.75C6.5 12.1642 6.16421 12.5 5.75 12.5C5.33579 12.5 5 12.1642 5 11.75V5.75C5 5.33579 5.33579 5 5.75 5Z" fill="#7E8EA7"/>
</svg>
