<svg width="24" height="24" viewBox="0 0 24 24" fill="none" xmlns="http://www.w3.org/2000/svg">
<path fill-rule="evenodd" clip-rule="evenodd" d="M7.10929 1.00001C7.13904 1.00001 7.16919 1.00002 7.19976 1.00002L7.23675 1.00001C7.58818 0.999991 7.81433 0.999975 8.03542 1.02065C8.93728 1.10499 9.79516 1.44531 10.5086 2.00002H16.75C16.7696 2.00002 16.7889 2.00001 16.8079 2.00001C17.2166 1.99994 17.4949 1.9999 17.7395 2.0321C19.4222 2.25364 20.7464 3.57779 20.9679 5.26054C20.9763 5.32397 20.9825 5.38966 20.987 5.45931C21.2645 5.58579 21.5215 5.74934 21.7577 5.96185C21.8561 6.05032 21.9497 6.14394 22.0382 6.24231C22.5665 6.82965 22.7922 7.54459 22.898 8.38601C23 9.1979 23 10.2241 23 11.497V13.8064C23 15.6442 23 17.0998 22.8469 18.239C22.6893 19.4115 22.3571 20.3604 21.6088 21.1088C20.8604 21.8571 19.9115 22.1893 18.739 22.3469C17.5998 22.5 16.1442 22.5 14.3064 22.5H10.1936C8.35584 22.5 6.90021 22.5 5.76099 22.3469C4.58857 22.1893 3.63962 21.8571 2.89126 21.1088C2.1429 20.3604 1.81078 19.4115 1.65315 18.239C1.49999 17.0998 1.5 15.6442 1.50002 13.8064L1.50002 6.69976C1.50002 6.66919 1.50001 6.63904 1.50001 6.60929C1.4999 5.81338 1.49982 5.30685 1.58237 4.86935C1.9449 2.94788 3.44788 1.4449 5.36935 1.08237C5.80685 0.999824 6.31338 0.999896 7.10929 1.00001ZM19.3974 5.07768C19.1395 4.2529 18.4232 3.63506 17.5437 3.51927C17.4098 3.50163 17.2383 3.50002 16.75 3.50002H12.0613C12.7042 4.13908 12.9959 4.40598 13.3268 4.59005C13.5448 4.71134 13.776 4.80713 14.016 4.87552C14.4293 4.99333 14.8824 5.00002 16.0784 5.00002L16.503 5.00002C17.6653 5 18.6218 4.99999 19.3974 5.07768ZM7.19976 2.50002C6.28312 2.50002 5.92873 2.50329 5.64746 2.55636C4.33277 2.80441 3.30441 3.83277 3.05636 5.14746C3.00329 5.42873 3.00002 5.78312 3.00002 6.69976V13.75C3.00002 15.6568 3.00161 17.0115 3.13978 18.0392C3.27504 19.0453 3.52871 19.6249 3.95192 20.0481C4.37513 20.4713 4.95478 20.725 5.96087 20.8603C6.98853 20.9984 8.3432 21 10.25 21H14.25C16.1568 21 17.5115 20.9984 18.5392 20.8603C19.5453 20.725 20.1249 20.4713 20.5481 20.0481C20.9713 19.6249 21.225 19.0453 21.3603 18.0392C21.4984 17.0115 21.5 15.6568 21.5 13.75V11.5479C21.5 10.2121 21.4986 9.2805 21.4097 8.57312C21.3231 7.88448 21.1641 7.51356 20.9229 7.24539C20.8698 7.18637 20.8137 7.1302 20.7546 7.07712C20.4865 6.83592 20.1156 6.67692 19.4269 6.59034C18.7195 6.50141 17.788 6.50002 16.4521 6.50002H16.0784C16.0412 6.50002 16.0045 6.50002 15.9682 6.50003C14.9202 6.50025 14.2444 6.50038 13.6048 6.31806C13.2541 6.21811 12.9161 6.07811 12.5975 5.90083C12.0163 5.57747 11.5385 5.0995 10.7976 4.35833C10.772 4.33265 10.746 4.30666 10.7197 4.28035L10.1694 3.73009C9.88616 3.44682 9.77778 3.33951 9.66731 3.24793C9.16403 2.83073 8.54664 2.575 7.89576 2.51413C7.75289 2.50077 7.60038 2.50002 7.19976 2.50002ZM12.5 9.75002C12.5 9.3358 12.8358 9.00002 13.25 9.00002H18.25C18.6642 9.00002 19 9.3358 19 9.75002C19 10.1642 18.6642 10.5 18.25 10.5H13.25C12.8358 10.5 12.5 10.1642 12.5 9.75002Z" fill="white"/>
</svg>
